<?xml version="1.0" encoding="utf-8"?>
<!-- Generator: Adobe Illustrator 27.0.0, SVG Export Plug-In . SVG Version: 6.00 Build 0)  -->
<svg version="1.1" id="Layer_1" xmlns="http://www.w3.org/2000/svg" xmlns:xlink="http://www.w3.org/1999/xlink" x="0px" y="0px"
	 viewBox="0 0 612 792" style="enable-background:new 0 0 612 792;" xml:space="preserve">
<style type="text/css">
	.st0{fill:#FFFFFF;}
	.st1{fill:#231F20;}
	.st2{fill:#3D80EA;}
	.st3{fill:#282264;}
	.st4{fill:#CE6700;}
</style>
<g>
	<circle class="st0" cx="308.6" cy="347.02" r="119.04"/>
	<path class="st1" d="M308.6,466.87c-66.09,0-119.85-53.76-119.85-119.85c0-66.08,53.76-119.85,119.85-119.85
		s119.85,53.76,119.85,119.85C428.45,413.11,374.68,466.87,308.6,466.87z M308.6,228.79c-65.2,0-118.24,53.04-118.24,118.24
		S243.4,465.26,308.6,465.26s118.24-53.04,118.24-118.24S373.79,228.79,308.6,228.79z"/>
</g>
<g>
	<path class="st2" d="M213.88,430.53c-19.96-24.12-30.48-51.66-30.43-82.91c0.05-31.15,10.59-58.61,30.6-82.54
		c-7.94,5.2-15.54,10.79-23,16.56c-7.47,5.77-14.88,11.6-22.31,17.43c-7.47,5.86-14.92,11.74-22.54,17.48
		c1.56-3.93,3.77-7.48,5.95-11.02c9.36-15.23,20.14-29.39,32.37-42.42c13.05-13.9,27.49-26.12,43.84-36.01
		c8.89-5.37,18.17-9.84,27.88-13.59c17.64-6.81,35.86-9.91,54.68-9.78c21.26,0.14,41.34,5.5,60.66,14.06
		c22.91,10.16,43.5,24.12,63.48,39.06c20.98,15.69,41.05,32.55,62.09,48.16c16.97,12.59,34.43,24.42,53.73,33.24
		c7.83,3.58,15.86,6.64,24.24,8.71c0.48,0.12,0.95,0.31,1.39,0.63c-4.5,0.36-8.97,0.03-13.42-0.34
		c-18.16-1.49-35.78-5.41-52.83-11.87c-20.14-7.63-38.31-18.57-55.05-32.08c-16.1-12.98-32.35-25.79-49.33-37.62
		c-0.47-0.33-0.84-0.86-1.75-0.81c20.36,23.82,30.96,51.3,31.07,82.5c0.11,31.27-10.36,58.84-30.37,82.93
		c23.45-15.85,45.07-34.13,67.91-51.04c-1.23,2.18-2.44,4.37-3.7,6.54c-7.1,12.23-15.24,23.74-24.26,34.62
		c-17.93,21.63-38.63,40-63.54,53.3c-11.95,6.39-24.54,11.17-37.75,14.24c-22.71,5.28-45.38,5.3-68.07-0.26
		c-7.66-1.88-15.02-4.55-22.35-7.36c-9.89-3.8-19.16-8.87-28.45-13.93c-3.56-1.93-7.07-3.99-10.45-6.15
		c-8.02-5.13-15.76-10.71-23.48-16.3c-20.99-15.19-40.84-31.85-61.46-47.52c-7.19-5.47-14.41-10.89-21.96-15.9
		c-4.62-3.07-9.16-6.3-13.87-9.25c-8.21-5.13-16.62-9.93-25.48-13.88c-7.96-3.54-16.05-6.78-24.55-8.83c-0.42-0.1-0.83-0.3-1.23-0.7
		c2.16,0,4.33-0.05,6.49,0.01c2.19,0.07,4.38,0.22,6.56,0.4c8.17,0.7,16.31,1.7,24.32,3.51c6.95,1.58,13.77,3.59,20.61,5.68
		c20.69,6.35,39.31,16.51,56.44,29.47c13.36,10.12,26.3,20.8,39.66,30.93c3.35,2.54,6.82,4.93,10.05,7.65
		C208.56,427.51,211.32,428.9,213.88,430.53z M309.41,237.18c-60.81-0.18-109.43,48.64-110.67,107.65
		c-1.35,64.12,49.11,112.1,107.53,113.51c64.3,1.56,112.03-49.09,113.64-107.3C421.67,287.48,370.41,237.04,309.41,237.18z"/>
</g>
<g>
	<path class="st0" d="M153.39,504.58h11.45l14.31,43.07l14.44-43.07h11.45l10.36,61.75h-11.37l-6.62-39l-13.12,39h-10.36l-13-39
		l-6.78,39H142.7L153.39,504.58z"/>
	<path class="st0" d="M269.27,546.81h-36.82c0.53,3.25,1.95,5.83,4.26,7.75c2.31,1.92,5.25,2.88,8.84,2.88
		c4.28,0,7.96-1.5,11.04-4.49l9.66,4.53c-2.41,3.41-5.29,5.94-8.65,7.58c-3.36,1.64-7.35,2.46-11.96,2.46
		c-7.16,0-13-2.26-17.51-6.78c-4.51-4.52-6.76-10.18-6.76-16.98c0-6.97,2.25-12.76,6.74-17.36c4.49-4.6,10.12-6.91,16.9-6.91
		c7.19,0,13.04,2.3,17.55,6.91c4.51,4.6,6.76,10.68,6.76,18.24L269.27,546.81z M257.81,537.78c-0.76-2.55-2.25-4.62-4.48-6.21
		c-2.23-1.6-4.81-2.39-7.76-2.39c-3.2,0-6,0.89-8.41,2.69c-1.51,1.12-2.92,3.09-4.2,5.92H257.81z"/>
	<path class="st0" d="M312.25,503.02h11.46v63.31h-11.46v-4.83c-2.24,2.13-4.48,3.66-6.73,4.6c-2.25,0.94-4.69,1.41-7.32,1.41
		c-5.9,0-11-2.29-15.3-6.86c-4.3-4.58-6.46-10.27-6.46-17.07c0-7.05,2.08-12.83,6.25-17.34c4.16-4.5,9.22-6.76,15.18-6.76
		c2.74,0,5.31,0.52,7.71,1.55c2.4,1.04,4.63,2.59,6.67,4.66V503.02z M300.21,530.06c-3.54,0-6.49,1.25-8.83,3.76
		c-2.34,2.5-3.51,5.72-3.51,9.63c0,3.95,1.19,7.19,3.58,9.74c2.38,2.55,5.32,3.82,8.81,3.82c3.6,0,6.58-1.25,8.95-3.76
		s3.56-5.79,3.56-9.84c0-3.97-1.18-7.19-3.56-9.65C306.83,531.29,303.83,530.06,300.21,530.06z"/>
	<path class="st0" d="M331.88,504.58h12.08l15.54,43.87l15.76-43.87h12.07l-22.25,61.75h-11.33L331.88,504.58z"/>
	<path class="st0" d="M395.92,504.58h11.67v61.75h-11.67V504.58z"/>
	<path class="st0" d="M477.57,515.43l-8.22,7.84c-5.59-5.91-11.88-8.87-18.87-8.87c-5.9,0-10.87,2.02-14.91,6.05
		c-4.04,4.03-6.06,9.01-6.06,14.92c0,4.12,0.9,7.77,2.69,10.97c1.79,3.19,4.32,5.7,7.59,7.52c3.27,1.82,6.91,2.73,10.91,2.73
		c3.41,0,6.53-0.64,9.35-1.91c2.82-1.27,5.93-3.59,9.31-6.95l7.97,8.32c-4.56,4.45-8.87,7.54-12.93,9.26
		c-4.06,1.72-8.69,2.58-13.9,2.58c-9.6,0-17.46-3.04-23.57-9.13c-6.11-6.09-9.17-13.89-9.17-23.4c0-6.16,1.39-11.63,4.18-16.41
		c2.78-4.79,6.77-8.63,11.96-11.54c5.19-2.91,10.78-4.37,16.77-4.37c5.09,0,10,1.08,14.71,3.23
		C470.09,508.4,474.15,511.46,477.57,515.43z"/>
</g>
<g>
	<g>
		<path class="st2" d="M397.28,317.5c1.08,3.23,2.19,6.46,3.24,9.71c1.36,4.21-0.5,8.01-4.68,9.51c-3.21,1.15-6.47,2.17-9.7,3.27
			c-3.98,1.35-5.58,3.62-5.78,7.85c-0.13,2.85-0.37,5.7-0.66,8.54c-0.39,3.76,0.93,6.4,4.29,8.13c3.03,1.56,6.11,3.03,9.15,4.58
			c4.44,2.26,5.79,6.34,3.58,10.79c-2.94,5.91-5.89,11.81-8.85,17.71c-2.24,4.47-6.3,5.83-10.74,3.62c-3.05-1.52-6.1-3.05-9.16-4.57
			c-3.75-1.86-6.69-1.32-9.77,1.56c-1.96,1.83-4.05,3.55-6.15,5.22c-2.77,2.21-3.8,5.03-2.75,8.48c1.06,3.47,2.28,6.9,3.42,10.34
			c1.65,4.98-0.18,8.63-5.18,10.31c-6.21,2.08-12.41,4.17-18.62,6.24c-4.82,1.61-8.63-0.29-10.26-5.12c-1.22-3.6-2.4-7.2-3.63-10.8
			c-1.16-3.39-3.57-5.11-7.16-5.31c-2.58-0.14-5.16-0.34-7.72-0.61c-4.09-0.44-6.77,0.94-8.6,4.6c-1.68,3.34-3.33,6.7-5.02,10.04
			c-2.22,4.39-6.2,5.75-10.64,3.58c-6.03-2.95-12.03-5.95-18.03-8.96c-4.19-2.11-5.59-6.21-3.55-10.41
			c1.72-3.56,3.52-7.09,5.29-10.64c1.78-3.57,1.34-6.47-1.3-9.38c-1.66-1.83-3.27-3.71-4.82-5.64c-2.39-2.96-5.32-3.91-8.94-2.72
			c-3.76,1.23-7.51,2.52-11.27,3.76c-4.77,1.57-8.52-0.27-10.15-5.04c-2.16-6.35-4.29-12.72-6.39-19.09
			c-1.47-4.46,0.45-8.25,4.93-9.8c3.74-1.29,7.51-2.51,11.26-3.78c3.84-1.3,5.56-3.71,5.69-7.75c0.08-2.36,0.22-4.72,0.43-7.07
			c0.38-4.13-0.95-6.68-4.69-8.56c-3.49-1.76-7-3.46-10.5-5.21c-4.05-2.02-5.53-6.25-3.53-10.3c3.06-6.22,6.16-12.42,9.28-18.61
			c1.9-3.78,6.13-5.2,9.96-3.35c3.57,1.72,7.1,3.51,10.65,5.26c3.52,1.73,6.49,1.2,9.34-1.49c1.88-1.77,3.81-3.49,5.8-5.14
			c2.96-2.47,3.82-5.25,2.59-8.96c-1.16-3.5-2.35-6.99-3.5-10.49c-1.6-4.84,0.33-8.64,5.14-10.25c6.32-2.1,12.62-4.23,18.94-6.33
			c4.6-1.53,8.32,0.32,9.9,4.93c1.12,3.28,2.19,6.58,3.32,9.85c1.4,4.06,3.73,5.69,8,5.81c2.74,0.08,5.49,0.25,8.22,0.49
			c3.67,0.32,6.42-1.14,8.07-4.45c1.57-3.15,3.1-6.32,4.71-9.45c2.25-4.36,6.31-5.66,10.68-3.48c5.96,2.97,11.91,5.94,17.87,8.89
			c4.26,2.11,5.7,6.25,3.61,10.51c-1.48,3.01-2.99,6.01-4.48,9.01c-1.83,3.69-1.28,6.62,1.56,9.61c1.93,2.03,3.76,4.16,5.54,6.32
			c2.52,3.07,5.28,3.98,9.07,2.75c3.14-1.02,6.25-2.11,9.4-3.13c4.83-1.56,8.51,0.29,10.12,5.07
			C395.16,311.13,396.22,314.32,397.28,317.5C397.29,317.5,397.28,317.5,397.28,317.5z M275.67,358.04
			c6.2,18.34,25.77,28.07,44.06,21.9c18.18-6.13,27.91-25.78,21.78-44c-6.16-18.31-25.86-27.99-44.27-21.74
			C279.29,320.29,269.58,340.02,275.67,358.04z"/>
		<path class="st3" d="M325.7,440.97c-3.96,0-7.1-2.4-8.59-6.77c-0.53-1.58-1.06-3.16-1.59-4.73c-0.67-2.02-1.35-4.04-2.04-6.06
			c-0.93-2.72-2.75-4.06-5.72-4.22c-2.85-0.16-5.4-0.36-7.81-0.62c-3.45-0.37-5.47,0.7-6.99,3.71l-1.93,3.87
			c-1.03,2.06-2.05,4.12-3.09,6.17c-2.64,5.22-7.54,6.86-12.79,4.3c-5.49-2.69-11.39-5.62-18.04-8.97
			c-4.98-2.51-6.7-7.55-4.28-12.55c1.21-2.49,2.45-4.97,3.69-7.45l1.61-3.21c1.47-2.95,1.16-5.14-1.05-7.58
			c-1.66-1.83-3.3-3.75-4.88-5.71c-1.98-2.46-4.27-3.16-7.19-2.2c-2.02,0.66-4.04,1.34-6.06,2.02c-1.74,0.58-3.47,1.17-5.21,1.74
			c-5.6,1.85-10.28-0.47-12.18-6.05c-2.16-6.36-4.29-12.73-6.39-19.11c-1.73-5.25,0.66-10.01,5.94-11.83
			c2.25-0.78,4.5-1.53,6.76-2.28c1.51-0.5,3.01-1,4.51-1.51c3.15-1.07,4.48-2.88,4.59-6.28c0.08-2.54,0.23-4.88,0.44-7.17
			c0.33-3.52-0.7-5.41-3.81-6.97c-2.05-1.04-4.11-2.05-6.17-3.07c-1.44-0.71-2.88-1.42-4.32-2.14c-4.83-2.41-6.63-7.65-4.26-12.45
			c3.06-6.22,6.16-12.43,9.28-18.62c2.29-4.55,7.49-6.31,12.1-4.08c2.15,1.04,4.29,2.1,6.43,3.17c1.41,0.7,2.82,1.4,4.23,2.1
			c2.87,1.41,5.12,1.05,7.52-1.22c1.9-1.79,3.87-3.54,5.87-5.21c2.49-2.07,3.1-4.16,2.09-7.21c-0.53-1.6-1.06-3.19-1.6-4.78
			c-0.64-1.9-1.28-3.8-1.91-5.71c-1.87-5.69,0.49-10.39,6.16-12.28l8.81-2.94c3.38-1.13,6.75-2.26,10.13-3.38
			c5.4-1.8,10.08,0.53,11.93,5.93c0.53,1.56,1.05,3.11,1.57,4.67c0.58,1.73,1.15,3.45,1.75,5.18c1.17,3.38,2.87,4.62,6.52,4.72
			c2.66,0.08,5.46,0.24,8.32,0.5c3.04,0.26,5.16-0.9,6.49-3.56c0.54-1.09,1.08-2.18,1.62-3.27c1.02-2.07,2.04-4.14,3.1-6.2
			c2.64-5.11,7.67-6.75,12.83-4.18c5.95,2.97,11.91,5.94,17.87,8.89c5.08,2.52,6.82,7.61,4.34,12.66c-0.86,1.76-1.74,3.51-2.61,5.26
			c-0.63,1.25-1.25,2.5-1.87,3.76c-1.51,3.04-1.15,5.23,1.29,7.78c1.74,1.82,3.52,3.86,5.61,6.41c2.13,2.59,4.25,3.24,7.33,2.24
			c1.56-0.51,3.12-1.03,4.68-1.56c1.57-0.53,3.14-1.06,4.72-1.57c5.7-1.84,10.24,0.43,12.15,6.09c0.72,2.15,1.44,4.3,2.16,6.45
			l1.59,4.75l-0.01,0l0.48,1.41c0.75,2.22,1.5,4.43,2.22,6.66c1.62,5.01-0.72,9.75-5.68,11.53c-2.04,0.73-4.1,1.41-6.16,2.09
			c-1.19,0.39-2.38,0.78-3.56,1.19c-3.29,1.12-4.52,2.79-4.69,6.39c-0.12,2.62-0.34,5.44-0.67,8.63c-0.33,3.18,0.69,5.13,3.42,6.53
			c1.61,0.83,3.24,1.63,4.86,2.44c1.43,0.71,2.86,1.41,4.28,2.14c5.2,2.65,6.88,7.73,4.29,12.95c-2.94,5.91-5.89,11.82-8.85,17.72
			c-2.62,5.23-7.69,6.93-12.9,4.35l-4.01-2c-1.71-0.86-3.43-1.71-5.15-2.57c-3.09-1.53-5.32-1.17-7.96,1.29
			c-2.05,1.91-4.21,3.68-6.25,5.31c-2.34,1.87-3.05,4.02-2.22,6.75c0.71,2.33,1.51,4.68,2.28,6.96c0.38,1.11,0.75,2.23,1.12,3.34
			c1.95,5.87-0.31,10.37-6.2,12.35c-6.2,2.08-12.41,4.17-18.62,6.24C328.12,440.76,326.87,440.97,325.7,440.97z M298.76,415.27
			c0.5,0,1.02,0.03,1.55,0.09c2.35,0.26,4.85,0.45,7.63,0.61c4.27,0.23,7.24,2.44,8.6,6.4c0.69,2.02,1.37,4.05,2.04,6.08
			c0.53,1.57,1.05,3.15,1.58,4.72c1.35,3.97,4.26,5.43,8.23,4.11c6.21-2.07,12.41-4.16,18.62-6.24c4.18-1.41,5.54-4.11,4.16-8.27
			c-0.37-1.11-0.74-2.21-1.12-3.32c-0.78-2.3-1.59-4.68-2.31-7.06c-1.21-3.99-0.08-7.52,3.29-10.21c1.98-1.58,4.09-3.3,6.06-5.14
			c3.61-3.37,7.29-3.95,11.59-1.82c1.72,0.85,3.44,1.71,5.16,2.57l4,2c3.62,1.8,6.75,0.74,8.58-2.9c2.96-5.9,5.91-11.8,8.85-17.71
			c1.81-3.64,0.77-6.79-2.86-8.64c-1.41-0.72-2.83-1.42-4.25-2.12c-1.64-0.81-3.28-1.62-4.91-2.46c-3.88-1.99-5.62-5.27-5.16-9.73
			c0.32-3.13,0.54-5.9,0.66-8.45c0.23-4.96,2.28-7.74,6.87-9.3c1.19-0.4,2.39-0.8,3.58-1.19c2.03-0.67,4.07-1.34,6.09-2.07
			c3.33-1.19,4.78-4.13,3.69-7.5c-0.72-2.21-1.46-4.41-2.2-6.61l-1.48-4.4l0.01,0l-0.59-1.77c-0.72-2.15-1.44-4.3-2.16-6.44
			c-1.32-3.93-4.13-5.33-8.1-4.05c-1.56,0.51-3.12,1.03-4.68,1.56c-1.57,0.53-3.14,1.06-4.72,1.57c-4.38,1.42-7.82,0.38-10.81-3.26
			c-2.04-2.48-3.78-4.46-5.46-6.23c-3.37-3.54-3.96-7.17-1.84-11.44c0.62-1.26,1.25-2.51,1.88-3.77c0.87-1.74,1.74-3.49,2.6-5.24
			c1.68-3.44,0.58-6.64-2.88-8.35c-5.96-2.96-11.92-5.92-17.88-8.89c-3.59-1.79-6.69-0.78-8.52,2.78c-1.05,2.04-2.06,4.09-3.07,6.14
			c-0.54,1.1-1.08,2.19-1.63,3.29c-1.94,3.87-5.26,5.72-9.66,5.33c-2.8-0.25-5.53-0.41-8.13-0.49c-4.96-0.15-7.88-2.27-9.48-6.9
			c-0.6-1.73-1.18-3.47-1.76-5.21c-0.52-1.55-1.03-3.1-1.56-4.65c-1.29-3.78-4.09-5.17-7.86-3.92c-3.38,1.12-6.75,2.25-10.13,3.38
			l-8.81,2.95c-3.96,1.32-5.43,4.24-4.12,8.21c0.63,1.9,1.26,3.79,1.9,5.69c0.54,1.6,1.07,3.2,1.6,4.8
			c1.42,4.29,0.41,7.79-3.09,10.7c-1.95,1.62-3.87,3.33-5.72,5.07c-3.4,3.21-7.05,3.79-11.16,1.77c-1.42-0.7-2.83-1.4-4.25-2.1
			c-2.13-1.06-4.26-2.12-6.4-3.15c-3.02-1.46-6.31-0.36-7.82,2.63c-3.11,6.19-6.21,12.38-9.27,18.59c-1.59,3.24-0.47,6.51,2.81,8.14
			c1.43,0.71,2.87,1.42,4.3,2.13c2.07,1.02,4.14,2.04,6.2,3.08c4.3,2.17,6.02,5.3,5.56,10.15c-0.21,2.22-0.35,4.51-0.43,6.98
			c-0.16,4.78-2.31,7.72-6.78,9.23c-1.51,0.51-3.02,1.01-4.53,1.51c-2.25,0.75-4.49,1.49-6.73,2.27c-3.65,1.26-5.11,4.17-3.93,7.77
			c2.1,6.37,4.22,12.73,6.38,19.08c1.34,3.94,4.15,5.33,8.12,4.03c1.73-0.57,3.46-1.15,5.19-1.74c2.03-0.68,4.05-1.37,6.09-2.03
			c4.18-1.37,7.88-0.25,10.7,3.24c1.54,1.91,3.14,3.78,4.76,5.57c3.09,3.41,3.59,7.07,1.54,11.18l-1.61,3.22
			c-1.23,2.46-2.47,4.93-3.67,7.4c-1.64,3.39-0.56,6.56,2.83,8.26c6.64,3.34,12.53,6.27,18.01,8.95c3.64,1.78,6.65,0.77,8.49-2.85
			c1.03-2.05,2.06-4.1,3.08-6.15l1.94-3.88C291.96,417.1,294.8,415.27,298.76,415.27z M308.69,383.37
			c-15.19,0-29.41-9.62-34.55-24.82c-6.39-18.91,3.74-39.49,22.57-45.88c9.35-3.17,19.32-2.54,28.06,1.79
			c8.67,4.29,15.15,11.74,18.26,20.96c6.39,19-3.83,39.65-22.79,46.04C316.42,382.76,312.52,383.37,308.69,383.37z M308.67,313.91
			c-3.65,0-7.33,0.6-10.91,1.82c-17.15,5.82-26.37,24.57-20.55,41.79v0c5.86,17.35,24.71,26.72,42.02,20.89
			c17.27-5.82,26.59-24.64,20.77-41.95c-2.83-8.41-8.74-15.19-16.63-19.1C318.72,315.07,313.72,313.91,308.67,313.91z"/>
	</g>
</g>
<g>
	<path class="st0" d="M144.98,576.37h2.03l2.54,7.64l2.56-7.64h2.03l1.84,10.96h-2.02l-1.18-6.92l-2.33,6.92h-1.84l-2.31-6.92
		l-1.2,6.92h-2.03L144.98,576.37z"/>
	<path class="st0" d="M165.55,583.86h-6.53c0.09,0.58,0.35,1.03,0.76,1.38c0.41,0.34,0.93,0.51,1.57,0.51c0.76,0,1.41-0.27,1.96-0.8
		l1.71,0.8c-0.43,0.6-0.94,1.05-1.53,1.34c-0.6,0.29-1.3,0.44-2.12,0.44c-1.27,0-2.31-0.4-3.11-1.2c-0.8-0.8-1.2-1.81-1.2-3.01
		c0-1.24,0.4-2.26,1.2-3.08c0.8-0.82,1.8-1.23,3-1.23c1.28,0,2.31,0.41,3.11,1.23c0.8,0.82,1.2,1.9,1.2,3.24L165.55,583.86z
		 M163.51,582.26c-0.13-0.45-0.4-0.82-0.79-1.1c-0.4-0.28-0.85-0.42-1.38-0.42c-0.57,0-1.06,0.16-1.49,0.48
		c-0.27,0.2-0.52,0.55-0.75,1.05H163.51z"/>
	<path class="st0" d="M173.18,576.09h2.03v11.24h-2.03v-0.86c-0.4,0.38-0.8,0.65-1.19,0.82c-0.4,0.17-0.83,0.25-1.3,0.25
		c-1.05,0-1.95-0.41-2.72-1.22c-0.76-0.81-1.15-1.82-1.15-3.03c0-1.25,0.37-2.28,1.11-3.08c0.74-0.8,1.64-1.2,2.69-1.2
		c0.49,0,0.94,0.09,1.37,0.28c0.43,0.18,0.82,0.46,1.18,0.83V576.09z M171.04,580.89c-0.63,0-1.15,0.22-1.57,0.67
		c-0.42,0.44-0.62,1.01-0.62,1.71c0,0.7,0.21,1.28,0.63,1.73c0.42,0.45,0.94,0.68,1.56,0.68c0.64,0,1.17-0.22,1.59-0.67
		c0.42-0.44,0.63-1.03,0.63-1.75c0-0.7-0.21-1.28-0.63-1.71C172.21,581.11,171.68,580.89,171.04,580.89z"/>
	<path class="st0" d="M178.06,575.88c0.36,0,0.66,0.13,0.92,0.39s0.38,0.57,0.38,0.94c0,0.36-0.13,0.67-0.38,0.93
		c-0.25,0.26-0.55,0.38-0.91,0.38c-0.36,0-0.67-0.13-0.93-0.39c-0.26-0.26-0.38-0.58-0.38-0.95c0-0.36,0.13-0.66,0.38-0.92
		C177.4,576.01,177.7,575.88,178.06,575.88z M177.04,579.22h2.03v8.11h-2.03V579.22z"/>
	<path class="st0" d="M188.86,580.86l-1.69,0.93c-0.32-0.33-0.63-0.56-0.94-0.69s-0.67-0.19-1.09-0.19c-0.76,0-1.38,0.23-1.85,0.68
		c-0.47,0.45-0.7,1.03-0.7,1.74c0,0.69,0.23,1.25,0.68,1.69c0.45,0.44,1.05,0.66,1.78,0.66c0.91,0,1.62-0.31,2.13-0.93l1.6,1.1
		c-0.87,1.13-2.1,1.69-3.68,1.69c-1.43,0-2.54-0.42-3.35-1.27s-1.21-1.83-1.21-2.96c0-0.79,0.2-1.51,0.59-2.17
		c0.39-0.66,0.94-1.18,1.64-1.56c0.7-0.38,1.49-0.57,2.36-0.57c0.8,0,1.53,0.16,2.17,0.48
		C187.93,579.81,188.45,580.27,188.86,580.86z"/>
	<path class="st0" d="M196.67,579.22h2.03v8.11h-2.03v-0.86c-0.4,0.38-0.8,0.65-1.19,0.82c-0.4,0.17-0.83,0.25-1.3,0.25
		c-1.05,0-1.95-0.41-2.72-1.22c-0.76-0.81-1.15-1.82-1.15-3.03c0-1.25,0.37-2.28,1.11-3.08c0.74-0.8,1.64-1.2,2.69-1.2
		c0.49,0,0.94,0.09,1.37,0.28c0.43,0.18,0.82,0.46,1.18,0.83V579.22z M194.53,580.89c-0.63,0-1.15,0.22-1.57,0.67
		c-0.42,0.44-0.62,1.01-0.62,1.71c0,0.7,0.21,1.28,0.63,1.73c0.42,0.45,0.94,0.68,1.56,0.68c0.64,0,1.17-0.22,1.59-0.67
		c0.42-0.44,0.63-1.03,0.63-1.75c0-0.7-0.21-1.28-0.63-1.71C195.71,581.11,195.18,580.89,194.53,580.89z"/>
	<path class="st0" d="M200.54,576.09h2.03v11.24h-2.03V576.09z"/>
	<path class="st0" d="M208.08,576.37h2.15l2.76,7.79l2.8-7.79h2.14l-3.95,10.96h-2.01L208.08,576.37z"/>
	<path class="st0" d="M220.17,575.88c0.36,0,0.66,0.13,0.92,0.39s0.38,0.57,0.38,0.94c0,0.36-0.13,0.67-0.38,0.93
		c-0.25,0.26-0.55,0.38-0.91,0.38c-0.36,0-0.67-0.13-0.93-0.39c-0.26-0.26-0.38-0.58-0.38-0.95c0-0.36,0.13-0.66,0.38-0.92
		C219.51,576.01,219.81,575.88,220.17,575.88z M219.15,579.22h2.03v8.11h-2.03V579.22z"/>
	<path class="st0" d="M227.99,580.35l-1.26,1.26c-0.51-0.51-0.98-0.76-1.39-0.76c-0.23,0-0.41,0.05-0.54,0.14
		c-0.13,0.1-0.19,0.22-0.19,0.36c0,0.11,0.04,0.21,0.12,0.3c0.08,0.09,0.28,0.22,0.61,0.38l0.75,0.37c0.78,0.39,1.32,0.78,1.62,1.18
		c0.29,0.4,0.44,0.87,0.44,1.42c0,0.72-0.26,1.32-0.79,1.8c-0.53,0.48-1.24,0.72-2.13,0.72c-1.18,0-2.13-0.46-2.83-1.39l1.25-1.36
		c0.24,0.28,0.52,0.5,0.84,0.67c0.32,0.17,0.6,0.26,0.85,0.26c0.27,0,0.48-0.06,0.65-0.19c0.16-0.13,0.25-0.28,0.25-0.45
		c0-0.31-0.3-0.62-0.89-0.92l-0.69-0.34c-1.31-0.66-1.97-1.49-1.97-2.48c0-0.64,0.25-1.19,0.74-1.64c0.49-0.45,1.13-0.68,1.9-0.68
		c0.53,0,1.02,0.12,1.49,0.35C227.28,579.59,227.67,579.92,227.99,580.35z"/>
	<path class="st0" d="M230.54,575.88c0.36,0,0.66,0.13,0.92,0.39c0.26,0.26,0.38,0.57,0.38,0.94c0,0.36-0.13,0.67-0.38,0.93
		c-0.25,0.26-0.55,0.38-0.91,0.38c-0.36,0-0.67-0.13-0.93-0.39c-0.26-0.26-0.38-0.58-0.38-0.95c0-0.36,0.13-0.66,0.38-0.92
		C229.88,576.01,230.18,575.88,230.54,575.88z M229.52,579.22h2.03v8.11h-2.03V579.22z"/>
	<path class="st0" d="M237.21,579.01c0.76,0,1.48,0.19,2.16,0.57c0.67,0.38,1.2,0.9,1.58,1.56c0.38,0.66,0.57,1.36,0.57,2.12
		c0,0.77-0.19,1.48-0.57,2.15c-0.38,0.67-0.9,1.19-1.55,1.56c-0.66,0.37-1.38,0.56-2.17,0.56c-1.16,0-2.15-0.41-2.98-1.24
		c-0.82-0.83-1.23-1.83-1.23-3.01c0-1.27,0.46-2.32,1.39-3.17C235.21,579.38,236.15,579.01,237.21,579.01z M237.24,580.93
		c-0.63,0-1.16,0.22-1.58,0.66c-0.42,0.44-0.63,1-0.63,1.69c0,0.71,0.21,1.28,0.62,1.71c0.42,0.44,0.94,0.66,1.58,0.66
		c0.64,0,1.17-0.22,1.59-0.66c0.42-0.44,0.63-1.01,0.63-1.71c0-0.7-0.21-1.26-0.62-1.69C238.42,581.14,237.89,580.93,237.24,580.93z
		"/>
	<path class="st0" d="M243.17,579.22h2.03v0.83c0.46-0.39,0.88-0.66,1.25-0.81c0.37-0.15,0.76-0.23,1.15-0.23
		c0.8,0,1.49,0.28,2.05,0.84c0.47,0.48,0.71,1.18,0.71,2.12v5.36h-2.01v-3.55c0-0.97-0.04-1.61-0.13-1.93
		c-0.09-0.32-0.24-0.56-0.45-0.73c-0.22-0.17-0.48-0.25-0.8-0.25c-0.41,0-0.76,0.14-1.06,0.41c-0.3,0.28-0.5,0.66-0.61,1.14
		c-0.06,0.25-0.09,0.8-0.09,1.64v3.25h-2.03V579.22z"/>
	<path class="st0" d="M262.58,579.22h2.03v8.11h-2.03v-0.86c-0.4,0.38-0.8,0.65-1.19,0.82c-0.4,0.17-0.83,0.25-1.3,0.25
		c-1.05,0-1.95-0.41-2.72-1.22c-0.76-0.81-1.15-1.82-1.15-3.03c0-1.25,0.37-2.28,1.11-3.08c0.74-0.8,1.64-1.2,2.69-1.2
		c0.49,0,0.94,0.09,1.37,0.28c0.43,0.18,0.82,0.46,1.18,0.83V579.22z M260.44,580.89c-0.63,0-1.15,0.22-1.57,0.67
		c-0.42,0.44-0.62,1.01-0.62,1.71c0,0.7,0.21,1.28,0.63,1.73c0.42,0.45,0.94,0.68,1.56,0.68c0.64,0,1.17-0.22,1.59-0.67
		c0.42-0.44,0.63-1.03,0.63-1.75c0-0.7-0.21-1.28-0.63-1.71C261.61,581.11,261.08,580.89,260.44,580.89z"/>
	<path class="st0" d="M266.67,579.22h2.03v0.83c0.46-0.39,0.88-0.66,1.25-0.81c0.37-0.15,0.76-0.23,1.15-0.23
		c0.8,0,1.49,0.28,2.05,0.84c0.47,0.48,0.71,1.18,0.71,2.12v5.36h-2.01v-3.55c0-0.97-0.04-1.61-0.13-1.93
		c-0.09-0.32-0.24-0.56-0.45-0.73c-0.22-0.17-0.48-0.25-0.8-0.25c-0.41,0-0.76,0.14-1.06,0.41c-0.3,0.28-0.5,0.66-0.61,1.14
		c-0.06,0.25-0.09,0.8-0.09,1.64v3.25h-2.03V579.22z"/>
	<path class="st0" d="M281.81,576.09h2.03v11.24h-2.03v-0.86c-0.4,0.38-0.8,0.65-1.19,0.82c-0.4,0.17-0.83,0.25-1.3,0.25
		c-1.05,0-1.95-0.41-2.72-1.22c-0.76-0.81-1.15-1.82-1.15-3.03c0-1.25,0.37-2.28,1.11-3.08c0.74-0.8,1.64-1.2,2.69-1.2
		c0.49,0,0.94,0.09,1.37,0.28c0.43,0.18,0.82,0.46,1.18,0.83V576.09z M279.67,580.89c-0.63,0-1.15,0.22-1.57,0.67
		c-0.42,0.44-0.62,1.01-0.62,1.71c0,0.7,0.21,1.28,0.63,1.73c0.42,0.45,0.94,0.68,1.56,0.68c0.64,0,1.17-0.22,1.59-0.67
		c0.42-0.44,0.63-1.03,0.63-1.75c0-0.7-0.21-1.28-0.63-1.71C280.84,581.11,280.31,580.89,279.67,580.89z"/>
	<path class="st0" d="M290.24,576.37h2.07v10.96h-2.07V576.37z"/>
	<path class="st0" d="M294.43,579.22h2.03v0.83c0.46-0.39,0.88-0.66,1.25-0.81c0.37-0.15,0.76-0.23,1.15-0.23
		c0.8,0,1.49,0.28,2.05,0.84c0.47,0.48,0.71,1.18,0.71,2.12v5.36h-2.01v-3.55c0-0.97-0.04-1.61-0.13-1.93
		c-0.09-0.32-0.24-0.56-0.45-0.73c-0.22-0.17-0.48-0.25-0.8-0.25c-0.41,0-0.76,0.14-1.06,0.41c-0.3,0.28-0.5,0.66-0.61,1.14
		c-0.06,0.25-0.09,0.8-0.09,1.64v3.25h-2.03V579.22z"/>
	<path class="st0" d="M303.84,576.23h2.03v2.99h1.21v1.75h-1.21v6.36h-2.03v-6.36h-1.04v-1.75h1.04V576.23z"/>
	<path class="st0" d="M316.28,583.86h-6.53c0.09,0.58,0.35,1.03,0.76,1.38c0.41,0.34,0.93,0.51,1.57,0.51c0.76,0,1.41-0.27,1.96-0.8
		l1.71,0.8c-0.43,0.6-0.94,1.05-1.54,1.34c-0.6,0.29-1.3,0.44-2.12,0.44c-1.27,0-2.31-0.4-3.11-1.2c-0.8-0.8-1.2-1.81-1.2-3.01
		c0-1.24,0.4-2.26,1.2-3.08c0.8-0.82,1.8-1.23,3-1.23c1.28,0,2.32,0.41,3.11,1.23c0.8,0.82,1.2,1.9,1.2,3.24L316.28,583.86z
		 M314.25,582.26c-0.13-0.45-0.4-0.82-0.8-1.1c-0.4-0.28-0.85-0.42-1.38-0.42c-0.57,0-1.06,0.16-1.49,0.48
		c-0.27,0.2-0.52,0.55-0.75,1.05H314.25z"/>
	<path class="st0" d="M317.71,576.09h2.03v11.24h-2.03V576.09z"/>
	<path class="st0" d="M321.37,576.09h2.03v11.24h-2.03V576.09z"/>
	<path class="st0" d="M326.04,575.88c0.36,0,0.66,0.13,0.92,0.39c0.26,0.26,0.38,0.57,0.38,0.94c0,0.36-0.13,0.67-0.38,0.93
		c-0.25,0.26-0.55,0.38-0.91,0.38c-0.36,0-0.67-0.13-0.92-0.39c-0.26-0.26-0.38-0.58-0.38-0.95c0-0.36,0.13-0.66,0.38-0.92
		C325.38,576.01,325.68,575.88,326.04,575.88z M325.02,579.22h2.03v8.11h-2.03V579.22z"/>
	<path class="st0" d="M334.89,579.22h2.03v6.94c0,1.37-0.28,2.38-0.83,3.02c-0.74,0.87-1.86,1.31-3.35,1.31c-0.79,0-1.46-0.1-2-0.3
		c-0.54-0.2-1-0.49-1.37-0.87c-0.37-0.39-0.65-0.85-0.83-1.41h2.24c0.2,0.23,0.46,0.4,0.77,0.52c0.31,0.12,0.68,0.17,1.11,0.17
		c0.55,0,0.99-0.09,1.32-0.25c0.33-0.17,0.57-0.39,0.7-0.66c0.14-0.27,0.2-0.73,0.2-1.39c-0.36,0.36-0.73,0.61-1.12,0.77
		c-0.39,0.16-0.84,0.23-1.33,0.23c-1.09,0-2.01-0.39-2.76-1.18c-0.75-0.78-1.13-1.78-1.13-2.98c0-1.29,0.4-2.32,1.19-3.1
		c0.72-0.71,1.58-1.06,2.58-1.06c0.47,0,0.91,0.09,1.32,0.26c0.41,0.17,0.83,0.45,1.25,0.85V579.22z M332.79,580.91
		c-0.64,0-1.17,0.22-1.59,0.65c-0.42,0.43-0.63,0.97-0.63,1.62c0,0.68,0.21,1.23,0.64,1.66c0.43,0.43,0.96,0.65,1.61,0.65
		c0.63,0,1.15-0.21,1.56-0.63c0.41-0.42,0.62-0.98,0.62-1.66c0-0.68-0.21-1.23-0.62-1.65C333.97,581.12,333.44,580.91,332.79,580.91
		z"/>
	<path class="st0" d="M347.1,583.86h-6.53c0.09,0.58,0.35,1.03,0.76,1.38c0.41,0.34,0.93,0.51,1.57,0.51c0.76,0,1.41-0.27,1.96-0.8
		l1.71,0.8c-0.43,0.6-0.94,1.05-1.54,1.34c-0.6,0.29-1.3,0.44-2.12,0.44c-1.27,0-2.31-0.4-3.11-1.2c-0.8-0.8-1.2-1.81-1.2-3.01
		c0-1.24,0.4-2.26,1.2-3.08c0.8-0.82,1.8-1.23,3-1.23c1.28,0,2.32,0.41,3.11,1.23c0.8,0.82,1.2,1.9,1.2,3.24L347.1,583.86z
		 M345.07,582.26c-0.13-0.45-0.4-0.82-0.8-1.1c-0.4-0.28-0.85-0.42-1.38-0.42c-0.57,0-1.06,0.16-1.49,0.48
		c-0.27,0.2-0.52,0.55-0.75,1.05H345.07z"/>
	<path class="st0" d="M348.75,579.22h2.03v0.83c0.46-0.39,0.88-0.66,1.25-0.81c0.37-0.15,0.76-0.23,1.15-0.23
		c0.8,0,1.49,0.28,2.05,0.84c0.47,0.48,0.71,1.18,0.71,2.12v5.36h-2.01v-3.55c0-0.97-0.04-1.61-0.13-1.93
		c-0.09-0.32-0.24-0.56-0.45-0.73c-0.21-0.17-0.48-0.25-0.8-0.25c-0.41,0-0.76,0.14-1.06,0.41s-0.5,0.66-0.61,1.14
		c-0.06,0.25-0.09,0.8-0.09,1.64v3.25h-2.03V579.22z"/>
	<path class="st0" d="M358.15,576.23h2.03v2.99h1.21v1.75h-1.21v6.36h-2.03v-6.36h-1.04v-1.75h1.04V576.23z"/>
	<path class="st0" d="M377.04,578.29l-1.46,1.39c-0.99-1.05-2.11-1.57-3.35-1.57c-1.05,0-1.93,0.36-2.65,1.07
		c-0.72,0.72-1.08,1.6-1.08,2.65c0,0.73,0.16,1.38,0.48,1.95c0.32,0.57,0.77,1.01,1.35,1.34c0.58,0.32,1.23,0.48,1.94,0.48
		c0.6,0,1.16-0.11,1.66-0.34c0.5-0.23,1.05-0.64,1.65-1.23l1.41,1.48c-0.81,0.79-1.58,1.34-2.29,1.64
		c-0.72,0.31-1.54,0.46-2.47,0.46c-1.7,0-3.1-0.54-4.18-1.62c-1.09-1.08-1.63-2.47-1.63-4.15c0-1.09,0.25-2.06,0.74-2.91
		s1.2-1.53,2.12-2.05c0.92-0.52,1.91-0.77,2.98-0.77c0.9,0,1.77,0.19,2.61,0.57C375.71,577.05,376.44,577.59,377.04,578.29z"/>
	<path class="st0" d="M382.45,579.01c0.76,0,1.48,0.19,2.16,0.57c0.67,0.38,1.2,0.9,1.58,1.56c0.38,0.66,0.57,1.36,0.57,2.12
		c0,0.77-0.19,1.48-0.57,2.15c-0.38,0.67-0.9,1.19-1.55,1.56c-0.66,0.37-1.38,0.56-2.17,0.56c-1.16,0-2.15-0.41-2.98-1.24
		c-0.82-0.83-1.23-1.83-1.23-3.01c0-1.27,0.46-2.32,1.39-3.17C380.46,579.38,381.39,579.01,382.45,579.01z M382.48,580.93
		c-0.63,0-1.16,0.22-1.58,0.66c-0.42,0.44-0.63,1-0.63,1.69c0,0.71,0.21,1.28,0.62,1.71c0.42,0.44,0.94,0.66,1.58,0.66
		s1.17-0.22,1.59-0.66c0.42-0.44,0.63-1.01,0.63-1.71c0-0.7-0.21-1.26-0.62-1.69C383.66,581.14,383.13,580.93,382.48,580.93z"/>
	<path class="st0" d="M388.39,579.22h2.03v0.93c0.35-0.38,0.74-0.67,1.16-0.86c0.42-0.19,0.89-0.28,1.39-0.28
		c0.51,0,0.96,0.12,1.37,0.37c0.41,0.25,0.74,0.61,0.98,1.09c0.32-0.48,0.72-0.84,1.19-1.09c0.47-0.25,0.98-0.37,1.54-0.37
		c0.58,0,1.08,0.13,1.52,0.4c0.44,0.27,0.75,0.62,0.94,1.05c0.19,0.43,0.29,1.13,0.29,2.11v4.75h-2.05v-4.11
		c0-0.92-0.11-1.54-0.34-1.87c-0.23-0.32-0.57-0.49-1.03-0.49c-0.35,0-0.66,0.1-0.94,0.3c-0.28,0.2-0.48,0.47-0.61,0.82
		c-0.13,0.35-0.2,0.91-0.2,1.69v3.66h-2.05v-3.93c0-0.72-0.05-1.25-0.16-1.58c-0.11-0.33-0.27-0.57-0.48-0.73
		c-0.21-0.16-0.47-0.24-0.78-0.24c-0.34,0-0.65,0.1-0.92,0.3c-0.28,0.2-0.48,0.48-0.62,0.85c-0.14,0.36-0.21,0.93-0.21,1.71v3.61
		h-2.03V579.22z"/>
	<path class="st0" d="M404.77,579.22v0.89c0.37-0.37,0.77-0.64,1.19-0.83c0.43-0.18,0.88-0.28,1.37-0.28c1.06,0,1.96,0.4,2.7,1.2
		c0.74,0.8,1.11,1.83,1.11,3.08c0,1.21-0.38,2.22-1.15,3.03c-0.77,0.81-1.67,1.22-2.72,1.22c-0.47,0-0.9-0.08-1.3-0.25
		c-0.4-0.17-0.8-0.44-1.2-0.82v3.82h-2.02v-11.07H404.77z M406.91,580.89c-0.64,0-1.17,0.22-1.59,0.66
		c-0.42,0.44-0.63,1.01-0.63,1.71c0,0.72,0.21,1.3,0.63,1.75c0.42,0.45,0.95,0.67,1.59,0.67c0.62,0,1.14-0.23,1.57-0.68
		c0.42-0.45,0.64-1.03,0.64-1.73c0-0.69-0.21-1.26-0.63-1.71C408.07,581.11,407.55,580.89,406.91,580.89z"/>
	<path class="st0" d="M412.82,579.22h2.06v3.9c0,0.76,0.05,1.29,0.16,1.58c0.1,0.3,0.27,0.53,0.5,0.69
		c0.23,0.16,0.52,0.25,0.86,0.25c0.34,0,0.63-0.08,0.86-0.24c0.24-0.16,0.41-0.4,0.53-0.71c0.09-0.23,0.13-0.73,0.13-1.5v-3.97h2.04
		v3.43c0,1.42-0.11,2.38-0.34,2.91c-0.27,0.63-0.68,1.12-1.21,1.46c-0.53,0.34-1.21,0.51-2.03,0.51c-0.89,0-1.61-0.2-2.16-0.6
		c-0.55-0.4-0.94-0.95-1.16-1.66c-0.16-0.49-0.24-1.39-0.24-2.68V579.22z"/>
	<path class="st0" d="M422.23,576.23h2.03v2.99h1.21v1.75h-1.21v6.36h-2.03v-6.36h-1.04v-1.75h1.04V576.23z"/>
	<path class="st0" d="M427.35,575.88c0.36,0,0.66,0.13,0.92,0.39c0.26,0.26,0.38,0.57,0.38,0.94c0,0.36-0.13,0.67-0.38,0.93
		c-0.25,0.26-0.55,0.38-0.91,0.38c-0.36,0-0.67-0.13-0.92-0.39c-0.26-0.26-0.38-0.58-0.38-0.95c0-0.36,0.13-0.66,0.38-0.92
		C426.69,576.01,426.99,575.88,427.35,575.88z M426.33,579.22h2.03v8.11h-2.03V579.22z"/>
	<path class="st0" d="M430.21,579.22h2.03v0.83c0.46-0.39,0.88-0.66,1.25-0.81c0.37-0.15,0.76-0.23,1.15-0.23
		c0.8,0,1.49,0.28,2.05,0.84c0.47,0.48,0.71,1.18,0.71,2.12v5.36h-2.01v-3.55c0-0.97-0.04-1.61-0.13-1.93
		c-0.09-0.32-0.24-0.56-0.45-0.73c-0.21-0.17-0.48-0.25-0.8-0.25c-0.41,0-0.76,0.14-1.06,0.41s-0.5,0.66-0.61,1.14
		c-0.06,0.25-0.09,0.8-0.09,1.64v3.25h-2.03V579.22z"/>
	<path class="st0" d="M445.36,579.22h2.03v6.94c0,1.37-0.28,2.38-0.83,3.02c-0.74,0.87-1.86,1.31-3.35,1.31c-0.79,0-1.46-0.1-2-0.3
		c-0.54-0.2-1-0.49-1.37-0.87c-0.37-0.39-0.65-0.85-0.83-1.41h2.24c0.2,0.23,0.46,0.4,0.77,0.52c0.31,0.12,0.68,0.17,1.11,0.17
		c0.55,0,0.99-0.09,1.32-0.25c0.33-0.17,0.57-0.39,0.7-0.66c0.14-0.27,0.2-0.73,0.2-1.39c-0.36,0.36-0.73,0.61-1.12,0.77
		c-0.39,0.16-0.84,0.23-1.33,0.23c-1.09,0-2.01-0.39-2.76-1.18c-0.75-0.78-1.13-1.78-1.13-2.98c0-1.29,0.4-2.32,1.19-3.1
		c0.72-0.71,1.58-1.06,2.58-1.06c0.47,0,0.91,0.09,1.32,0.26c0.41,0.17,0.83,0.45,1.25,0.85V579.22z M443.25,580.91
		c-0.64,0-1.17,0.22-1.59,0.65c-0.42,0.43-0.63,0.97-0.63,1.62c0,0.68,0.21,1.23,0.64,1.66c0.43,0.43,0.96,0.65,1.61,0.65
		c0.63,0,1.15-0.21,1.56-0.63c0.41-0.42,0.62-0.98,0.62-1.66c0-0.68-0.21-1.23-0.62-1.65C444.43,581.12,443.9,580.91,443.25,580.91z
		"/>
	<path class="st0" d="M453.94,576.37h2.09v8.97h3.04v1.99h-5.13V576.37z"/>
	<path class="st0" d="M466.41,579.22h2.03v8.11h-2.03v-0.86c-0.4,0.38-0.8,0.65-1.19,0.82c-0.4,0.17-0.83,0.25-1.3,0.25
		c-1.05,0-1.95-0.41-2.72-1.22c-0.76-0.81-1.15-1.82-1.15-3.03c0-1.25,0.37-2.28,1.11-3.08c0.74-0.8,1.64-1.2,2.69-1.2
		c0.49,0,0.94,0.09,1.37,0.28c0.43,0.18,0.82,0.46,1.18,0.83V579.22z M464.27,580.89c-0.63,0-1.15,0.22-1.57,0.67
		c-0.42,0.44-0.62,1.01-0.62,1.71c0,0.7,0.21,1.28,0.63,1.73c0.42,0.45,0.94,0.68,1.56,0.68c0.64,0,1.17-0.22,1.59-0.67
		c0.42-0.44,0.63-1.03,0.63-1.75c0-0.7-0.21-1.28-0.63-1.71C465.44,581.11,464.91,580.89,464.27,580.89z"/>
	<path class="st0" d="M472.51,576.09v4.02c0.37-0.37,0.77-0.64,1.19-0.83c0.43-0.18,0.88-0.28,1.37-0.28c1.06,0,1.96,0.4,2.7,1.2
		c0.74,0.8,1.11,1.83,1.11,3.08c0,1.21-0.38,2.22-1.15,3.03c-0.77,0.81-1.67,1.22-2.72,1.22c-0.47,0-0.9-0.08-1.3-0.25
		c-0.4-0.17-0.8-0.44-1.2-0.82v0.86h-2.02v-11.24H472.51z M474.65,580.89c-0.64,0-1.17,0.22-1.59,0.66
		c-0.42,0.44-0.63,1.01-0.63,1.71c0,0.72,0.21,1.3,0.63,1.75c0.42,0.45,0.95,0.67,1.59,0.67c0.62,0,1.14-0.23,1.57-0.68
		c0.42-0.45,0.64-1.03,0.64-1.73c0-0.69-0.21-1.26-0.63-1.71C475.82,581.11,475.29,580.89,474.65,580.89z"/>
</g>
<g>
	<path class="st3" d="M300.37,309.05c1.5-0.75,2.9-1.7,4.38-2.45c1.7-0.86,3.56-1.4,5.39-1.97c6.41-2.01,12.93-2.44,19.55-1.16
		c0.19,0.04,0.41,0,0.58,0.35c-7.4-0.11-14.39,1.42-20.96,4.74c0,0-0.02,0.03-0.02,0.03l0.03-0.04c2.69-0.64,5.33-1.5,8.1-1.83
		c6.09-0.72,12.07-0.26,17.89,1.69c1.88,0.63,3.78,1.26,5.48,2.39c-6.89-1.93-13.84-2.35-20.88-0.84
		c10.99-0.26,20.72,2.98,28.99,10.34c-6.21-3.6-12.85-5.8-20.06-6.13c9.26,2.07,16.99,6.66,23.11,13.93
		c0.57,0.67,1.16,1.33,1.53,2.15c-0.08,0.08-0.16,0.16-0.24,0.24c-4.36-4.07-9.22-7.35-14.82-9.47c-0.48-0.18-0.94-0.47-1.5-0.35
		c-0.06-0.31-0.3-0.22-0.5-0.23c-0.06-0.03-0.12-0.05-0.19-0.08c0.07,0.02,0.14,0.04,0.21,0.06c0.09,0.24,0.29,0.24,0.49,0.24
		c2.77,1.69,5.55,3.38,8.01,5.53c5.54,4.85,9.55,10.72,11.9,17.71c0.05,0.15,0.07,0.31,0.1,0.46c0,0.02-0.03,0.06-0.09,0.17
		c-1.56-2.97-3.39-5.71-5.56-8.21c-2.06-2.38-4.38-4.5-6.9-6.38c-0.34-0.25-0.64-0.76-1.21-0.53c0.14-0.28-0.04-0.27-0.23-0.25
		c0.06-0.14,0.03-0.21-0.13-0.16c0.05,0.05,0.1,0.09,0.15,0.14c0.08,0.08,0.15,0.17,0.23,0.25c7.72,7.47,12.01,16.55,12.84,27.37
		c-0.47-0.38-0.4-0.87-0.53-1.28c-0.14-0.42-0.27-0.84-0.39-1.27c-1.68-5.72-4.48-10.84-8.29-15.42c-0.1-0.12-0.25-0.19-0.38-0.28
		c-0.1-0.15-0.21-0.29-0.31-0.44c-0.05-0.05-0.08-0.25-0.18-0.03c0.06,0,0.13,0.01,0.19,0.01c-0.11,0.24-0.04,0.42,0.2,0.53
		c1.33,2.51,2.74,4.98,3.73,7.67c1.61,4.38,2.66,8.9,2.51,13.56c-0.1,3.11-0.01,6.28-1.02,9.32c0.11-4.9-0.4-9.73-1.85-14.42
		c-0.69-2.22-1.38-4.44-2.65-6.43c-0.02-0.03-0.03-0.07-0.05-0.1c-0.02-0.03-0.04-0.07-0.06-0.1c0.04,0.06,0.08,0.12,0.12,0.18
		c0.6,2.5,1.3,4.98,1.62,7.55c0.73,5.93,0.23,11.75-1.63,17.42c-0.67,2.04-1.34,4.1-2.54,5.95c1.97-6.87,2.45-13.8,0.94-20.85
		c0.15,10.52-2.79,19.93-9.8,27.91c3.28-6,5.2-12.39,5.65-19.46c-0.58,1.99-1.05,3.76-1.61,5.49c-0.58,1.8-1.37,3.52-2.24,5.21
		c-2.93,5.69-6.95,10.43-12.14,14.19c-0.29,0.21-0.54,0.65-1.02,0.38l0.02,0.01c2.69-2.89,5.22-5.91,7.17-9.37
		c1.3-2.31,2.43-4.68,3.17-7.27c-5.15,9.06-12.34,15.65-22.11,19.23c-0.09-0.11-0.18-0.23-0.27-0.34c0.59-0.37,1.19-0.73,1.78-1.1
		c4.53-2.82,8.29-6.47,11.5-10.71c0.19-0.25,0.33-0.55,0.49-0.83c0.18-0.14,0.27-0.3,0.19-0.53c0.1,0.03,0.21,0.06,0.15-0.11
		c-0.04,0.05-0.09,0.09-0.13,0.14c-0.16,0.14-0.35,0.27-0.19,0.53c-1.29,0.44-2.09,1.57-2.97,2.46c-1.97,2-4.31,3.4-6.67,4.78
		c-5.26,3.08-10.98,4.76-17.05,5.26c-0.33,0.03-0.67,0-1.02-0.05c3.91-1.01,7.69-2.34,11.22-4.31c2.88-1.6,5.64-3.39,7.96-5.76
		c0.03-0.02,0.05-0.04,0.08-0.06c0.03-0.02,0.06-0.03,0.09-0.05c-0.05,0.04-0.1,0.08-0.15,0.12c-2.7,1.5-5.36,3.07-8.29,4.15
		c-6.39,2.35-12.94,3.21-19.7,2.22c-0.75-0.11-1.55,0.01-2.27-0.47c6.88-0.21,13.51-1.44,19.68-4.61
		c-10.54,3.08-20.75,2.38-30.6-2.54c3.01,0.71,6.04,1.36,9.13,1.62c3.92,0.33,7.8,0.05,11.66-0.66c0.1-0.02,0.19-0.13,0.28-0.2
		c0.07-0.03,0.13-0.06,0.2-0.1c-0.06,0.04-0.12,0.08-0.18,0.11c-3.67-0.03-7.33-0.14-10.94-0.94c-6.36-1.42-12.1-4.12-17.14-8.27
		c-0.21-0.17-0.5-0.29-0.51-0.84c3.07,1.66,6.14,3.13,9.4,4.12c3.24,0.98,6.54,1.64,9.93,1.76c-10.07-2.37-18.33-7.51-24.47-15.9
		c-0.21-0.29-0.66-0.52-0.39-1.01l-0.01,0.02c0.96,0.85,1.92,1.7,2.89,2.56c3.74,3.31,8.01,5.75,12.66,7.51
		c0.11,0.04,0.23,0.08,0.34,0.09c0.07,0.01,0.15-0.04,0.46-0.12c-9.54-5.4-16.13-13.08-19.44-23.43c1.76,3.07,3.73,6.01,6.1,8.66
		c2.39,2.68,5.09,5.02,8.14,6.96c-8.12-7.67-12.59-17.04-13.28-28.2c1.72,6.82,4.69,13.01,9.43,18.33
		c-5.38-9.28-7.35-19.14-5.17-29.71c0.1,6.96,1.34,13.66,4.55,19.94c-3.09-10.56-2.34-20.79,2.6-30.66
		c-1.92,6.85-2.37,13.77-0.88,20.78c0.11-2.56,0.13-5.13,0.51-7.67c0.38-2.56,0.97-5.07,1.8-7.51c0.84-2.48,1.91-4.88,3.25-7.14
		c1.32-2.22,2.74-4.36,4.63-6.19c-1.56,3.09-3.09,6.19-4.13,9.5c-1.05,3.34-1.71,6.75-1.82,10.27c0.69-2.77,1.48-5.5,2.65-8.11
		c1.2-2.65,2.59-5.19,4.31-7.54c2.51-3.45,5.47-6.45,8.95-8.93c0.29-0.21,0.51-0.68,1-0.37l-0.02-0.01
		c-1.75,2.04-3.63,3.97-5.15,6.2c-2.13,3.11-3.86,6.42-5.04,10.05c2.77-4.44,5.89-8.58,9.97-11.92c4.05-3.31,8.52-5.83,13.52-7.38
		c-4.04,2.32-7.78,5.03-10.99,8.42c-1.63,1.72-3.17,3.52-4.38,5.62c7.55-7.99,16.8-12.36,27.77-13.02
		c-1.36,0.42-2.72,0.82-4.06,1.26c-4.63,1.53-8.86,3.82-12.7,6.82c-0.53,0.41-1.12,0.78-1.48,1.38c-0.15,0.1-0.3,0.19-0.45,0.29
		c-0.05,0.05-0.26,0.08-0.02,0.18c0-0.06,0-0.13,0-0.19C300.1,309.38,300.27,309.3,300.37,309.05z M275.2,365.19l-0.03-0.01
		l0.04,0.02l0.03,0.03C275.25,365.23,275.2,365.19,275.2,365.19z M344.49,346.79c0.03-20.01-16.32-35.87-35.75-35.86
		c-20.23,0.01-36.06,16.03-36.01,36.41c0.05,19.53,16.3,35.4,36.21,35.35C328.52,382.64,344.54,366.47,344.49,346.79z"/>
</g>
<g>
	<g>
		<path class="st0" d="M284.91,303.82c0.21-0.24,0.36-0.43,0.53-0.61c4.58-5.1,5.45-12.76,2.11-18.58
			c-3.53-6.15-10.44-9.34-17.29-7.89c-10.2,2.16-16.09,13.29-10.76,23.44c3.57,6.8,11.53,9.86,18.94,7.55
			c0.54-0.17,0.78-0.08,1.07,0.39c2.58,4.06,5.19,8.1,7.78,12.14c1.11,1.73,2.22,3.47,3.3,5.14c-1.15,1.18-2.31,2.25-3.33,3.44
			c-3.88,4.55-6.13,9.81-6.69,15.77c-0.05,0.53-0.25,0.64-0.74,0.67c-4.68,0.2-9.36,0.41-14.04,0.65c-0.58,0.03-0.85-0.1-1.09-0.67
			c-2.37-5.48-8.73-8.19-14.35-6.16c-5.64,2.04-8.79,8.18-7.14,13.9c1.39,4.82,5.77,8.25,10.67,8.36c5.1,0.12,9.56-3,11.23-7.91
			c0.17-0.5,0.38-0.69,0.93-0.71c3.86-0.16,7.72-0.36,11.58-0.55c1.04-0.05,2.08-0.1,3.15-0.15c1.49,7.9,5.47,14.11,12,18.72
			c-5.83,11.3-11.65,22.58-17.47,33.84c-12.41-4.01-24.7,2.5-29.05,13.15c-4.4,10.77-0.26,23.16,9.69,28.99
			c10,5.87,22.88,3.49,30.05-5.58c3.57-4.51,5.29-9.68,5.01-15.43c-0.36-7.47-3.67-13.43-9.59-17.99c0.1-0.21,0.19-0.38,0.28-0.56
			c3.52-6.82,7.03-13.64,10.55-20.46c2.11-4.09,4.24-8.19,6.34-12.29c0.22-0.44,0.42-0.51,0.92-0.38c1.75,0.46,3.5,0.88,5.28,1.23
			c3.23,0.62,6.47,0.48,9.65-0.25c2.24-0.51,4.42-1.3,6.74-2c14.16,22.05,28.41,44.26,42.77,66.63c-0.28,0.24-0.61,0.45-0.84,0.73
			c-3.59,4.36-4.82,9.31-3.31,14.77c2.42,8.8,11.39,13.73,20.11,11.04c6.18-1.9,9.95-6.21,11.07-12.52
			c1.13-6.41-1.01-11.8-6.27-15.7c-4.37-3.25-9.28-3.9-14.48-2.32c-0.48,0.15-0.69,0.07-0.94-0.35c-0.77-1.28-1.59-2.52-2.4-3.78
			c-2.17-3.37-4.33-6.75-6.5-10.12c-9.7-15.11-19.4-30.23-29.1-45.34c-1.48-2.3-2.95-4.61-4.44-6.92
			c6.08-5.21,9.41-11.8,10.17-19.71c12.03-0.57,24-1.13,35.96-1.7c2.67,12.62,14.9,19.59,25.89,17.59
			c10.55-1.93,18.1-10.9,18.48-21.15c0.44-11.74-7.89-20.94-18.07-22.9c-5.31-1.03-10.4-0.28-15.11,2.38
			c-6.69,3.79-10.43,9.63-11.52,17.21c-12.01,0.57-23.95,1.13-35.96,1.7c-1.48-7.88-5.49-14.11-11.99-18.69
			c1.9-3.68,3.77-7.28,5.63-10.89c2.74-5.31,5.49-10.62,8.22-15.94c0.22-0.43,0.41-0.56,0.91-0.4c5.55,1.75,11.05,1.57,16.49-0.47
			c11.05-4.15,17.8-16.12,15.39-27.59c-1.93-9.18-7.26-15.54-16.17-18.79c-4.11-1.5-8.32-1.79-12.58-0.99
			c-12.48,2.34-21,13.3-20.18,25.97c0.41,6.27,2.89,11.64,7.41,16.04c0.92,0.9,1.92,1.71,2.9,2.59
			c-4.71,9.11-9.42,18.24-14.13,27.37c-3.68-1.34-7.38-1.91-11.18-1.74c-3.82,0.17-7.47,1.1-10.97,2.76
			C292.59,315.78,288.77,309.83,284.91,303.82z"/>
		<path class="st0" d="M375.07,467.72c-2.77,0-5.5-0.69-7.97-2.05c-3.99-2.19-6.86-5.85-8.09-10.33c-1.54-5.6-0.38-10.82,3.47-15.49
			c0.12-0.15,0.26-0.28,0.4-0.39l-42.05-65.51c-0.52,0.16-1.04,0.33-1.55,0.49c-1.59,0.51-3.09,0.99-4.67,1.35
			c-3.43,0.78-6.79,0.87-9.98,0.25c-1.58-0.3-3.27-0.7-5.33-1.24c-1.52,2.95-2.99,5.79-4.46,8.63l-12.41,24.04
			c5.87,4.72,9.03,10.83,9.38,18.18c0.29,5.89-1.46,11.26-5.18,15.97c-7.39,9.35-20.76,11.83-31.09,5.77
			c-10.24-6.01-14.55-18.9-10.03-29.99c4.63-11.34,17.43-17.32,29.39-13.81l16.84-32.62c-6.14-4.53-10.05-10.63-11.62-18.13
			l-5.35,0.26c-2.9,0.14-5.8,0.29-8.69,0.41c-0.07,0-0.12,0.01-0.14,0.01c0,0.01-0.03,0.06-0.06,0.16c-1.8,5.26-6.5,8.61-12.02,8.45
			c-5.24-0.12-9.94-3.8-11.43-8.95c-1.78-6.15,1.58-12.69,7.64-14.88c6.07-2.2,12.82,0.7,15.37,6.6c0.05,0.12,0.09,0.17,0.1,0.19
			c0,0,0.03,0,0.09,0c0.03,0,0.07,0,0.12,0c4.67-0.24,9.34-0.45,14.02-0.65c0.61-6.12,2.92-11.52,6.88-16.15
			c0.71-0.83,1.47-1.58,2.27-2.38c0.21-0.21,0.43-0.42,0.64-0.64l-4.86-7.56c-1.96-3.05-3.93-6.11-5.88-9.17
			c-0.02-0.03-0.04-0.06-0.06-0.08c-0.02,0.01-0.05,0.02-0.1,0.03c-7.84,2.44-16.2-0.9-19.9-7.94c-2.58-4.93-2.77-10.5-0.52-15.29
			c2.25-4.8,6.57-8.19,11.83-9.31c7.16-1.51,14.45,1.81,18.15,8.28c3.51,6.13,2.61,14.16-2.21,19.52l-0.13,0.14l10.81,16.84
			c3.41-1.52,6.98-2.38,10.63-2.54c3.7-0.17,7.24,0.34,10.82,1.55l13.52-26.19l-0.45-0.4c-0.69-0.59-1.36-1.18-2.01-1.81
			c-4.66-4.54-7.23-10.11-7.65-16.56c-0.86-13.12,7.91-24.39,20.83-26.82c4.45-0.84,8.83-0.49,13,1.03
			c9.07,3.3,14.68,9.82,16.69,19.38c2.5,11.91-4.33,24.17-15.9,28.51c-5.6,2.1-11.31,2.27-16.96,0.5
			c-2.24,4.34-4.41,8.56-6.59,12.77l-6.94,13.43c6.14,4.52,10.04,10.6,11.61,18.1l34.6-1.63c1.27-7.65,5.24-13.42,11.82-17.14
			c4.8-2.72,10.07-3.55,15.66-2.47c11.28,2.18,19.16,12.15,18.72,23.72c-0.4,10.74-8.46,19.96-19.14,21.91
			c-10.46,1.91-23.48-4.26-26.68-17.54l-34.6,1.63c-0.89,7.63-4.2,14.04-9.84,19.09l40.29,62.77c0.6,0.93,1.21,1.87,1.78,2.82
			c5.7-1.68,10.77-0.85,15.22,2.45c5.49,4.08,7.77,9.78,6.58,16.49c-1.17,6.63-5.19,11.17-11.62,13.15
			C378.46,467.47,376.76,467.72,375.07,467.72z M321.52,372.06L365,439.8l-0.53,0.46c-0.1,0.09-0.21,0.17-0.32,0.25
			c-0.17,0.13-0.33,0.26-0.43,0.38c-3.49,4.25-4.56,8.97-3.16,14.04c1.12,4.05,3.71,7.36,7.32,9.34c3.59,1.97,7.77,2.38,11.79,1.15
			c5.9-1.81,9.43-5.81,10.51-11.89c1.09-6.15-0.92-11.17-5.96-14.92c-4.04-3-8.67-3.74-13.77-2.2c-0.83,0.25-1.42,0.03-1.86-0.71
			c-0.57-0.94-1.16-1.86-1.76-2.78l-41.05-63.95l0.53-0.46c5.82-4.99,9.15-11.44,9.89-19.18l0.07-0.7l37.35-1.76l0.14,0.67
			c2.71,12.8,15.07,18.76,24.96,16.96c9.95-1.82,17.44-10.39,17.82-20.39c0.4-10.77-6.92-20.05-17.41-22.08
			c-5.2-1-10.1-0.23-14.56,2.29c-6.31,3.57-10.05,9.16-11.12,16.62l-0.09,0.66l-37.32,1.76l-0.13-0.69
			c-1.44-7.62-5.36-13.74-11.66-18.18l-0.57-0.4l7.58-14.67c2.2-4.26,4.4-8.52,6.59-12.79c0.15-0.3,0.61-1.2,1.87-0.8
			c5.31,1.68,10.68,1.52,15.96-0.46c10.65-4,17.18-15.72,14.89-26.67c-1.89-8.98-7.15-15.1-15.66-18.2
			c-3.89-1.42-7.98-1.74-12.15-0.96c-12.11,2.27-20.32,12.84-19.52,25.13c0.39,6.04,2.8,11.26,7.16,15.51
			c0.62,0.6,1.28,1.17,1.94,1.74l1.41,1.24l-14.74,28.56l-0.67-0.24c-3.61-1.31-7.17-1.86-10.87-1.69
			c-3.67,0.17-7.26,1.07-10.66,2.68l-0.64,0.3l-12.23-19.04l0.93-1.08c4.36-4.85,5.18-12.11,2.01-17.64
			c-3.36-5.86-9.95-8.88-16.42-7.5c-4.76,1.01-8.67,4.08-10.7,8.41c-2.04,4.33-1.86,9.38,0.49,13.86c3.33,6.35,10.9,9.36,17.99,7.15
			c0.88-0.27,1.5-0.05,1.99,0.73c1.95,3.06,3.91,6.11,5.87,9.17l5.55,8.65l-0.45,0.46c-0.37,0.38-0.74,0.75-1.11,1.11
			c-0.78,0.77-1.51,1.5-2.18,2.28c-3.77,4.42-5.96,9.57-6.5,15.32c-0.12,1.34-1.16,1.38-1.51,1.4c-4.68,0.2-9.36,0.41-14.03,0.65
			c-0.94,0.04-1.5-0.3-1.88-1.16c-2.21-5.11-8.07-7.62-13.34-5.72c-5.26,1.91-8.18,7.58-6.64,12.92c1.29,4.48,5.37,7.68,9.92,7.78
			c4.78,0.14,8.89-2.78,10.45-7.36c0.29-0.83,0.8-1.22,1.65-1.26c2.9-0.12,5.79-0.27,8.68-0.41l6.74-0.32l0.13,0.69
			c1.46,7.74,5.28,13.7,11.67,18.21l0.57,0.4l-18.1,35.07l-0.65-0.21c-11.33-3.66-23.65,1.91-28.05,12.69
			c-4.23,10.36-0.21,22.39,9.35,27.99c9.64,5.66,22.12,3.34,29.01-5.38c3.47-4.4,5.1-9.41,4.83-14.89
			c-0.34-7.07-3.47-12.92-9.28-17.39l-0.53-0.4l1.78-3.48l11.23-21.76c1.49-2.88,2.98-5.77,4.46-8.66c0.4-0.77,0.98-1.02,1.84-0.8
			c2.02,0.53,3.68,0.92,5.22,1.22c2.97,0.57,6.1,0.49,9.31-0.24c1.51-0.34,2.98-0.82,4.54-1.31c0.71-0.23,1.42-0.46,2.15-0.68
			L321.52,372.06z"/>
	</g>
	<g>
		<path class="st4" d="M284.91,303.82c3.86,6.01,7.67,11.95,11.52,17.94c3.5-1.66,7.14-2.59,10.97-2.76
			c3.8-0.17,7.5,0.41,11.18,1.74c4.71-9.13,9.43-18.26,14.13-27.37c-0.98-0.87-1.98-1.69-2.9-2.59c-4.51-4.4-7-9.77-7.41-16.04
			c-0.83-12.67,7.7-23.63,20.18-25.97c4.26-0.8,8.46-0.5,12.58,0.99c8.91,3.25,14.25,9.61,16.17,18.79
			c2.41,11.48-4.34,23.44-15.39,27.59c-5.44,2.04-10.94,2.22-16.49,0.47c-0.5-0.16-0.69-0.03-0.91,0.4
			c-2.73,5.32-5.47,10.63-8.22,15.94c-1.86,3.61-3.73,7.21-5.63,10.89c6.5,4.58,10.51,10.81,11.99,18.69
			c12-0.57,23.95-1.13,35.96-1.7c1.09-7.58,4.83-13.42,11.52-17.21c4.71-2.66,9.8-3.41,15.11-2.38
			c10.18,1.96,18.51,11.16,18.07,22.9c-0.39,10.25-7.93,19.22-18.48,21.15c-10.99,2.01-23.22-4.96-25.89-17.59
			c-11.96,0.56-23.93,1.13-35.96,1.7c-0.76,7.91-4.08,14.5-10.17,19.71c1.48,2.31,2.96,4.62,4.44,6.92
			c9.7,15.11,19.4,30.23,29.1,45.34c2.17,3.37,4.33,6.75,6.5,10.12c0.81,1.26,1.63,2.5,2.4,3.78c0.25,0.42,0.46,0.5,0.94,0.35
			c5.2-1.58,10.11-0.93,14.48,2.32c5.26,3.91,7.4,9.29,6.27,15.7c-1.12,6.31-4.89,10.62-11.07,12.52
			c-8.72,2.68-17.69-2.25-20.11-11.04c-1.5-5.45-0.27-10.4,3.31-14.77c0.23-0.28,0.56-0.49,0.84-0.73
			c-14.36-22.37-28.61-44.58-42.77-66.63c-2.32,0.7-4.5,1.49-6.74,2c-3.18,0.73-6.42,0.87-9.65,0.25c-1.77-0.34-3.53-0.77-5.28-1.23
			c-0.49-0.13-0.69-0.05-0.92,0.38c-2.1,4.1-4.22,8.19-6.34,12.29c-3.52,6.82-7.03,13.64-10.55,20.46
			c-0.09,0.17-0.17,0.35-0.28,0.56c5.93,4.56,9.23,10.52,9.59,17.99c0.28,5.75-1.44,10.92-5.01,15.43
			c-7.17,9.07-20.05,11.45-30.05,5.58c-9.95-5.84-14.08-18.22-9.69-28.99c4.34-10.65,16.63-17.16,29.05-13.15
			c5.81-11.26,11.63-22.54,17.47-33.84c-6.53-4.61-10.51-10.82-12-18.72c-1.07,0.05-2.11,0.1-3.15,0.15
			c-3.86,0.19-7.72,0.39-11.58,0.55c-0.54,0.02-0.75,0.21-0.93,0.71c-1.68,4.9-6.14,8.02-11.23,7.91c-4.9-0.11-9.28-3.54-10.67-8.36
			c-1.65-5.72,1.5-11.86,7.14-13.9c5.62-2.04,11.99,0.68,14.35,6.16c0.25,0.57,0.52,0.7,1.09,0.67c4.68-0.24,9.36-0.45,14.04-0.65
			c0.49-0.02,0.69-0.14,0.74-0.67c0.56-5.96,2.8-11.22,6.69-15.77c1.02-1.19,2.18-2.25,3.33-3.44c-1.07-1.67-2.18-3.4-3.3-5.14
			c-2.6-4.04-5.2-8.08-7.78-12.14c-0.3-0.46-0.54-0.55-1.07-0.39c-7.41,2.31-15.38-0.75-18.94-7.55
			c-5.32-10.15,0.56-21.27,10.76-23.44c6.85-1.45,13.76,1.74,17.29,7.89c3.34,5.83,2.47,13.48-2.11,18.58
			C285.28,303.4,285.12,303.59,284.91,303.82z M307.73,325.83c-11.88,0.56-21.03,10.64-20.47,22.55
			c0.55,11.75,10.69,20.94,22.49,20.39c11.81-0.55,20.98-10.61,20.49-22.48C329.75,334.53,319.56,325.27,307.73,325.83z
			 M346.15,255.18c-9.96,0.52-17.54,8.99-16.96,19.07c0.57,9.98,9.6,17.96,20.33,16.6c8.02-1.01,15.87-8.35,15.4-18.68
			C364.47,262.35,355.93,254.67,346.15,255.18z M268.55,443.08c9.01-0.4,16.1-8.14,15.68-17.14c-0.44-9.29-8.17-16-16.87-15.73
			c-9.34,0.29-16.4,7.98-16,17.19C251.76,436.47,259.46,443.49,268.55,443.08z M394.21,327.7c-8.36,0.36-15.05,7.61-14.8,15.83
			c0.27,8.92,7.68,15.64,16.29,15.23c8.5-0.4,15.15-7.62,14.81-16.1C410.19,334.4,403.27,327.2,394.21,327.7z M273.3,283.25
			c-4.94,0.1-8.99,4.22-9,9.06c-0.02,5.53,4.39,9.39,9.39,9.36c5.05-0.03,9.21-4.3,9.08-9.45
			C282.61,286.94,278.16,283.05,273.3,283.25z M366.03,451.24c0.23,5.1,4.52,9.06,9.58,8.83c5.09-0.23,9.04-4.53,8.82-9.61
			c-0.21-5-4.59-9.04-9.56-8.81C369.79,441.88,365.8,446.2,366.03,451.24z M249.67,350.08c0.13,2.63,2.23,4.53,4.86,4.39
			c2.56-0.14,4.44-2.25,4.32-4.85c-0.12-2.57-2.23-4.47-4.83-4.34C251.42,345.41,249.54,347.48,249.67,350.08z"/>
		<path class="st0" d="M375.07,467.72c-2.77,0-5.5-0.69-7.97-2.05c-3.99-2.19-6.86-5.85-8.09-10.33c-1.54-5.6-0.38-10.82,3.47-15.49
			c0.12-0.15,0.26-0.28,0.4-0.39l-42.05-65.51c-0.52,0.16-1.04,0.33-1.55,0.49c-1.59,0.51-3.09,0.99-4.67,1.35
			c-3.43,0.78-6.79,0.87-9.98,0.25c-1.58-0.3-3.27-0.7-5.33-1.24c-1.52,2.95-2.99,5.79-4.46,8.63l-12.41,24.04
			c5.87,4.72,9.03,10.83,9.38,18.18c0.29,5.89-1.46,11.26-5.18,15.97c-7.39,9.35-20.76,11.83-31.09,5.77
			c-10.24-6.01-14.55-18.9-10.03-29.99c4.63-11.34,17.43-17.32,29.39-13.81l16.84-32.62c-6.14-4.53-10.05-10.63-11.62-18.13
			l-5.35,0.26c-2.9,0.14-5.8,0.29-8.69,0.41c-0.07,0-0.12,0.01-0.14,0.01c0,0.01-0.03,0.06-0.06,0.16c-1.8,5.26-6.5,8.61-12.02,8.45
			c-5.24-0.12-9.94-3.8-11.43-8.95c-1.78-6.15,1.58-12.69,7.64-14.88c6.07-2.2,12.82,0.7,15.37,6.6c0.05,0.12,0.09,0.17,0.1,0.19
			c0,0,0.03,0,0.09,0c0.03,0,0.07,0,0.12,0c4.67-0.24,9.34-0.45,14.02-0.65c0.61-6.12,2.92-11.52,6.88-16.15
			c0.71-0.83,1.47-1.58,2.27-2.38c0.21-0.21,0.43-0.42,0.64-0.64l-4.86-7.56c-1.96-3.05-3.93-6.11-5.88-9.17
			c-0.02-0.03-0.04-0.06-0.06-0.08c-0.02,0.01-0.05,0.02-0.1,0.03c-7.84,2.44-16.2-0.9-19.9-7.94c-2.58-4.93-2.77-10.5-0.52-15.29
			c2.25-4.8,6.57-8.19,11.83-9.31c7.16-1.51,14.45,1.81,18.15,8.28c3.51,6.13,2.61,14.16-2.21,19.52l-0.13,0.14l10.81,16.84
			c3.41-1.52,6.98-2.38,10.63-2.54c3.7-0.17,7.24,0.34,10.82,1.55l13.52-26.19l-0.45-0.4c-0.69-0.59-1.36-1.18-2.01-1.81
			c-4.66-4.54-7.23-10.11-7.65-16.56c-0.86-13.12,7.91-24.39,20.83-26.82c4.45-0.84,8.83-0.49,13,1.03
			c9.07,3.3,14.68,9.82,16.69,19.38c2.5,11.91-4.33,24.17-15.9,28.51c-5.6,2.1-11.31,2.27-16.96,0.5
			c-2.24,4.34-4.41,8.56-6.59,12.77l-6.94,13.43c6.14,4.52,10.04,10.6,11.61,18.1l34.6-1.63c1.27-7.65,5.24-13.42,11.82-17.14
			c4.8-2.72,10.07-3.55,15.66-2.47c11.28,2.18,19.16,12.15,18.72,23.72c-0.4,10.74-8.46,19.96-19.14,21.91
			c-10.46,1.91-23.48-4.26-26.68-17.54l-34.6,1.63c-0.89,7.63-4.2,14.04-9.84,19.09l40.29,62.77c0.6,0.93,1.21,1.87,1.78,2.82
			c5.7-1.68,10.77-0.85,15.22,2.45c5.49,4.08,7.77,9.78,6.58,16.49c-1.17,6.63-5.19,11.17-11.62,13.15
			C378.46,467.47,376.76,467.72,375.07,467.72z M321.52,372.06L365,439.8l-0.53,0.46c-0.1,0.09-0.21,0.17-0.32,0.25
			c-0.17,0.13-0.33,0.26-0.43,0.38c-3.49,4.25-4.56,8.97-3.16,14.04c1.12,4.05,3.71,7.36,7.32,9.34c3.59,1.97,7.77,2.38,11.79,1.15
			c5.9-1.81,9.43-5.81,10.51-11.89c1.09-6.15-0.92-11.17-5.96-14.92c-4.04-3-8.67-3.74-13.77-2.2c-0.83,0.25-1.42,0.03-1.86-0.71
			c-0.57-0.94-1.16-1.86-1.76-2.78l-41.05-63.95l0.53-0.46c5.82-4.99,9.15-11.44,9.89-19.18l0.07-0.7l37.35-1.76l0.14,0.67
			c2.71,12.8,15.07,18.76,24.96,16.96c9.95-1.82,17.44-10.39,17.82-20.39c0.4-10.77-6.92-20.05-17.41-22.08
			c-5.2-1-10.1-0.23-14.56,2.29c-6.31,3.57-10.05,9.16-11.12,16.62l-0.09,0.66l-37.32,1.76l-0.13-0.69
			c-1.44-7.62-5.36-13.74-11.66-18.18l-0.57-0.4l7.58-14.67c2.2-4.26,4.4-8.52,6.59-12.79c0.15-0.3,0.61-1.2,1.87-0.8
			c5.31,1.68,10.68,1.52,15.96-0.46c10.65-4,17.18-15.72,14.89-26.67c-1.89-8.98-7.15-15.1-15.66-18.2
			c-3.89-1.42-7.98-1.74-12.15-0.96c-12.11,2.27-20.32,12.84-19.52,25.13c0.39,6.04,2.8,11.26,7.16,15.51
			c0.62,0.6,1.28,1.17,1.94,1.74l1.41,1.24l-14.74,28.56l-0.67-0.24c-3.61-1.31-7.17-1.86-10.87-1.69
			c-3.67,0.17-7.26,1.07-10.66,2.68l-0.64,0.3l-12.23-19.04l0.93-1.08c4.36-4.85,5.18-12.11,2.01-17.64
			c-3.36-5.86-9.95-8.88-16.42-7.5c-4.76,1.01-8.67,4.08-10.7,8.41c-2.04,4.33-1.86,9.38,0.49,13.86c3.33,6.35,10.9,9.36,17.99,7.15
			c0.88-0.27,1.5-0.05,1.99,0.73c1.95,3.06,3.91,6.11,5.87,9.17l5.55,8.65l-0.45,0.46c-0.37,0.38-0.74,0.75-1.11,1.11
			c-0.78,0.77-1.51,1.5-2.18,2.28c-3.77,4.42-5.96,9.57-6.5,15.32c-0.12,1.34-1.16,1.38-1.51,1.4c-4.68,0.2-9.36,0.41-14.03,0.65
			c-0.94,0.04-1.5-0.3-1.88-1.16c-2.21-5.11-8.07-7.62-13.34-5.72c-5.26,1.91-8.18,7.58-6.64,12.92c1.29,4.48,5.37,7.68,9.92,7.78
			c4.78,0.14,8.89-2.78,10.45-7.36c0.29-0.83,0.8-1.22,1.65-1.26c2.9-0.12,5.79-0.27,8.68-0.41l6.74-0.32l0.13,0.69
			c1.46,7.74,5.28,13.7,11.67,18.21l0.57,0.4l-18.1,35.07l-0.65-0.21c-11.33-3.66-23.65,1.91-28.05,12.69
			c-4.23,10.36-0.21,22.39,9.35,27.99c9.64,5.66,22.12,3.34,29.01-5.38c3.47-4.4,5.1-9.41,4.83-14.89
			c-0.34-7.07-3.47-12.92-9.28-17.39l-0.53-0.4l1.78-3.48l11.23-21.76c1.49-2.88,2.98-5.77,4.46-8.66c0.4-0.77,0.98-1.02,1.84-0.8
			c2.02,0.53,3.68,0.92,5.22,1.22c2.97,0.57,6.1,0.49,9.31-0.24c1.51-0.34,2.98-0.82,4.54-1.31c0.71-0.23,1.42-0.46,2.15-0.68
			L321.52,372.06z M375.19,460.89c-2.5,0-4.88-0.93-6.73-2.64c-1.97-1.81-3.12-4.29-3.24-6.97l0,0c-0.24-5.5,4.07-10.18,9.62-10.43
			c2.63-0.14,5.14,0.82,7.12,2.63c2,1.84,3.17,4.3,3.28,6.95c0.23,5.51-4.07,10.2-9.59,10.44
			C375.49,460.89,375.34,460.89,375.19,460.89z M366.83,451.21c0.1,2.26,1.07,4.34,2.72,5.86c1.65,1.52,3.8,2.29,6.02,2.2
			c4.63-0.21,8.25-4.14,8.05-8.77c-0.09-2.22-1.07-4.29-2.75-5.83c-1.67-1.53-3.79-2.3-5.96-2.21
			C370.25,442.67,366.63,446.6,366.83,451.21L366.83,451.21z M267.8,443.91c-4.32,0-8.43-1.59-11.64-4.52
			c-3.41-3.11-5.39-7.36-5.6-11.96c-0.21-4.68,1.41-9.13,4.56-12.53c3.16-3.4,7.49-5.36,12.22-5.5c9.51-0.24,17.25,6.95,17.7,16.5
			c0.22,4.56-1.38,8.95-4.49,12.36c-3.12,3.43-7.37,5.42-11.96,5.63l0,0C268.33,443.9,268.06,443.91,267.8,443.91z M267.89,411.01
			c-0.17,0-0.33,0-0.5,0.01c-4.29,0.13-8.22,1.9-11.08,4.99c-2.85,3.07-4.32,7.11-4.13,11.36c0.18,4.17,1.99,8.02,5.07,10.84
			c3.09,2.82,7.09,4.24,11.28,4.08v0c4.16-0.18,8-2,10.84-5.11c2.82-3.09,4.27-7.07,4.07-11.19
			C283.02,417.49,276.24,411.01,267.89,411.01z M308.74,369.6c-5.54,0-10.83-2.04-14.99-5.82c-4.42-4.01-7.01-9.47-7.29-15.37
			c-0.57-12.32,8.96-22.81,21.24-23.39l0,0c5.97-0.28,11.69,1.8,16.13,5.87c4.41,4.03,6.97,9.49,7.21,15.37
			c0.51,12.29-9.02,22.75-21.25,23.32C309.44,369.6,309.09,369.6,308.74,369.6z M307.77,326.64c-11.4,0.54-20.24,10.28-19.71,21.71
			c0.25,5.46,2.65,10.53,6.76,14.25c4.11,3.72,9.4,5.64,14.89,5.38c11.35-0.53,20.19-10.24,19.72-21.64
			c-0.23-5.45-2.6-10.51-6.69-14.24C318.62,328.31,313.29,326.37,307.77,326.64L307.77,326.64z M394.95,359.58
			c-4.11,0-8.01-1.53-11.06-4.34c-3.27-3.03-5.15-7.18-5.28-11.69c-0.26-8.65,6.86-16.28,15.56-16.66
			c4.38-0.24,8.53,1.24,11.74,4.15c3.27,2.97,5.24,7.19,5.42,11.58c0.36,8.91-6.63,16.51-15.58,16.94
			C395.48,359.58,395.21,359.58,394.95,359.58z M395.08,328.48c-0.27,0-0.55,0.01-0.82,0.02l-0.01,0c-7.84,0.34-14.26,7.21-14.03,15
			c0.12,4.07,1.82,7.82,4.77,10.55c2.92,2.7,6.7,4.1,10.68,3.9c8.07-0.38,14.37-7.23,14.05-15.26c-0.16-3.96-1.94-7.77-4.89-10.45
			C402.14,329.8,398.71,328.48,395.08,328.48z M254.25,355.28c-1.37,0-2.64-0.48-3.63-1.37c-1.06-0.96-1.69-2.3-1.76-3.79l0,0
			c-0.15-3.06,2.05-5.49,5.12-5.65c1.49-0.06,2.88,0.42,3.95,1.38c1.05,0.95,1.66,2.28,1.73,3.73c0.14,3.03-2.1,5.53-5.09,5.69
			C254.46,355.28,254.35,355.28,254.25,355.28z M254.27,346.08c-0.07,0-0.14,0-0.21,0.01c-2.15,0.11-3.69,1.81-3.59,3.96l0,0
			c0.05,1.06,0.49,2.01,1.23,2.68c0.74,0.67,1.72,1,2.78,0.94c2.13-0.11,3.66-1.84,3.56-4.01c-0.05-1.02-0.47-1.94-1.2-2.61
			C256.15,346.42,255.24,346.08,254.27,346.08z M273.62,302.48c-2.7,0-5.32-1.07-7.21-2.95c-1.89-1.89-2.93-4.45-2.93-7.22
			c0.01-5.32,4.4-9.75,9.79-9.86c2.59-0.09,5.17,0.87,7.1,2.67c1.98,1.85,3.11,4.36,3.18,7.08c0.07,2.71-0.93,5.27-2.83,7.23
			c-1.88,1.95-4.39,3.03-7.05,3.04C273.66,302.48,273.64,302.48,273.62,302.48z M273.65,284.05c-0.11,0-0.22,0-0.32,0.01l-0.02,0
			c-4.52,0.09-8.2,3.8-8.21,8.25c-0.01,2.33,0.86,4.49,2.45,6.07c1.6,1.59,3.88,2.53,6.12,2.48c2.23-0.01,4.32-0.92,5.9-2.55
			c1.59-1.64,2.43-3.8,2.37-6.07c-0.06-2.29-1.01-4.4-2.67-5.95C277.73,284.86,275.7,284.05,273.65,284.05z M347.12,291.81
			c-4.42,0-8.63-1.51-12.05-4.35c-3.96-3.29-6.4-8.09-6.69-13.16c-0.29-5.11,1.4-9.99,4.77-13.75c3.34-3.72,7.94-5.91,12.95-6.18
			l0,0c4.97-0.24,9.77,1.47,13.5,4.86c3.72,3.38,5.89,7.96,6.11,12.9c0.49,10.88-7.8,18.47-16.1,19.52
			C348.78,291.76,347.94,291.81,347.12,291.81z M346.19,255.99c-4.59,0.24-8.79,2.24-11.84,5.64c-3.08,3.44-4.63,7.9-4.36,12.58
			c0.26,4.62,2.49,9,6.11,12.01c3.71,3.09,8.44,4.45,13.31,3.83c7.57-0.96,15.14-7.89,14.7-17.85c-0.2-4.51-2.19-8.7-5.59-11.78
			C355.11,257.33,350.72,255.74,346.19,255.99L346.19,255.99z"/>
	</g>
	<g>
		<path class="st0" d="M307.73,325.83c11.83-0.56,22.01,8.7,22.5,20.46c0.49,11.87-8.67,21.93-20.49,22.48
			c-11.8,0.55-21.94-8.65-22.49-20.39C286.71,336.47,295.86,326.39,307.73,325.83z"/>
		<path class="st0" d="M308.74,369.6c-5.54,0-10.83-2.04-14.99-5.82c-4.42-4.01-7.01-9.47-7.29-15.37
			c-0.57-12.32,8.96-22.81,21.24-23.39l0,0c5.97-0.28,11.69,1.8,16.13,5.87c4.41,4.03,6.97,9.49,7.21,15.37
			c0.51,12.29-9.02,22.75-21.25,23.32C309.44,369.6,309.09,369.6,308.74,369.6z M307.77,326.64L307.77,326.64
			c-11.4,0.54-20.24,10.28-19.71,21.71c0.25,5.46,2.65,10.53,6.76,14.25c4.11,3.72,9.4,5.64,14.89,5.38
			c11.35-0.53,20.19-10.24,19.72-21.64c-0.23-5.45-2.6-10.51-6.69-14.24C318.62,328.31,313.31,326.36,307.77,326.64z"/>
	</g>
	<g>
		<path class="st0" d="M346.15,255.18c9.79-0.51,18.32,7.17,18.77,16.99c0.46,10.33-7.38,17.67-15.4,18.68
			c-10.72,1.35-19.76-6.62-20.33-16.6C328.61,264.17,336.19,255.7,346.15,255.18z"/>
		<path class="st0" d="M347.12,291.81c-4.42,0-8.63-1.51-12.05-4.35c-3.96-3.29-6.4-8.09-6.69-13.16c-0.29-5.11,1.4-9.99,4.77-13.75
			c3.34-3.72,7.94-5.91,12.95-6.18c4.97-0.24,9.77,1.47,13.5,4.86c3.72,3.38,5.89,7.96,6.11,12.9c0.49,10.88-7.8,18.47-16.1,19.52
			C348.78,291.76,347.94,291.81,347.12,291.81z M346.19,255.99c-4.59,0.24-8.79,2.24-11.84,5.64c-3.08,3.44-4.63,7.9-4.36,12.58
			c0.26,4.62,2.49,9,6.11,12.01c3.71,3.09,8.44,4.45,13.31,3.83c7.57-0.96,15.14-7.89,14.7-17.85c-0.2-4.51-2.19-8.7-5.59-11.78
			C355.11,257.33,350.72,255.74,346.19,255.99L346.19,255.99z"/>
	</g>
	<g>
		<path class="st0" d="M394.21,327.7c9.06-0.5,15.98,6.7,16.31,14.96c0.34,8.48-6.31,15.7-14.81,16.1
			c-8.61,0.41-16.02-6.32-16.29-15.23C379.16,335.31,385.85,328.06,394.21,327.7z"/>
		<path class="st0" d="M394.95,359.58c-4.11,0-8.01-1.53-11.06-4.34c-3.27-3.03-5.15-7.18-5.28-11.69
			c-0.26-8.65,6.86-16.28,15.57-16.66c4.35-0.24,8.53,1.24,11.74,4.15c3.27,2.97,5.24,7.19,5.42,11.58
			c0.36,8.91-6.63,16.51-15.58,16.94C395.48,359.58,395.21,359.58,394.95,359.58z M395.08,328.48c-0.27,0-0.55,0.01-0.82,0.02
			l-0.01,0c-7.84,0.34-14.26,7.21-14.03,15c0.12,4.07,1.82,7.82,4.77,10.55c2.92,2.7,6.71,4.09,10.68,3.9
			c8.07-0.38,14.37-7.23,14.05-15.26c-0.16-3.96-1.94-7.77-4.89-10.45C402.14,329.8,398.71,328.48,395.08,328.48z"/>
	</g>
	<g>
		<path class="st0" d="M273.3,283.25c4.86-0.2,9.31,3.69,9.46,8.97c0.14,5.15-4.03,9.42-9.08,9.45c-5,0.03-9.4-3.84-9.39-9.36
			C264.31,287.48,268.35,283.36,273.3,283.25z"/>
		<path class="st0" d="M273.62,302.48c-2.7,0-5.32-1.07-7.21-2.95c-1.89-1.89-2.93-4.45-2.93-7.22c0.01-5.32,4.4-9.75,9.79-9.86
			c2.58-0.09,5.17,0.87,7.1,2.67c1.98,1.85,3.11,4.36,3.18,7.08c0.07,2.71-0.93,5.27-2.83,7.23c-1.88,1.95-4.39,3.03-7.05,3.04
			C273.66,302.48,273.64,302.48,273.62,302.48z M273.65,284.05c-0.11,0-0.22,0-0.32,0.01l-0.02,0c-4.52,0.09-8.2,3.8-8.21,8.25
			c-0.01,2.33,0.86,4.49,2.45,6.07c1.6,1.59,3.88,2.53,6.12,2.48c2.23-0.01,4.32-0.92,5.9-2.55c1.59-1.64,2.43-3.8,2.37-6.07
			c-0.06-2.29-1.01-4.4-2.67-5.95C277.73,284.86,275.7,284.05,273.65,284.05z"/>
	</g>
	<g>
		<path class="st0" d="M366.03,451.24c-0.22-5.04,3.76-9.36,8.85-9.59c4.97-0.23,9.35,3.81,9.56,8.81c0.21,5.08-3.74,9.38-8.82,9.61
			C370.55,460.3,366.26,456.35,366.03,451.24z"/>
		<path class="st0" d="M375.19,460.89c-2.5,0-4.88-0.93-6.73-2.64c-1.97-1.81-3.12-4.29-3.24-6.97l0,0
			c-0.24-5.5,4.07-10.18,9.62-10.43c2.59-0.14,5.14,0.81,7.12,2.63c2,1.84,3.17,4.3,3.28,6.95c0.23,5.51-4.07,10.2-9.59,10.44
			C375.49,460.89,375.34,460.89,375.19,460.89z M366.83,451.21c0.1,2.26,1.07,4.34,2.72,5.86c1.65,1.52,3.8,2.29,6.02,2.2
			c4.63-0.21,8.25-4.14,8.05-8.77c-0.09-2.22-1.07-4.29-2.75-5.83c-1.67-1.53-3.79-2.3-5.96-2.21
			C370.25,442.67,366.63,446.6,366.83,451.21L366.83,451.21z"/>
	</g>
</g>
</svg>
