<?xml version="1.0" encoding="utf-8"?>
<!-- Generator: Adobe Illustrator 27.0.0, SVG Export Plug-In . SVG Version: 6.00 Build 0)  -->
<svg version="1.1" id="Layer_1" xmlns="http://www.w3.org/2000/svg" xmlns:xlink="http://www.w3.org/1999/xlink" x="0px" y="0px"
	 viewBox="0 0 612 792" style="enable-background:new 0 0 612 792;" xml:space="preserve">
<style type="text/css">
	.st0{fill:#FFFFFF;}
	.st1{font-family:'CenturyGothic-Bold';}
	.st2{font-size:80.2421px;}
	.st3{font-size:14.2406px;}
</style>
<text transform="matrix(1 0 0 1 151.9845 548.1475)" class="st0 st1 st2">MedVIC</text>
<text transform="matrix(1 0 0 1 154.1505 567.7442)" class="st0 st1 st3">Medical Vision and Intelligent Computing Lab</text>
<g>
	<path class="st0" d="M268.17,351.83c0.46,0.58,0.93,1.15,1.42,1.7c2.23,2.5,4.75,4.68,7.6,6.49c-3.35-3.16-5.99-6.65-8-10.44
		c-0.01,0.02-0.02,0.04-0.04,0.1C268.9,350.45,268.55,351.16,268.17,351.83z"/>
	<path class="st0" d="M307.5,379.26c-4.43,1.3-8.81,1.87-13.11,1.69l-1.21,2.34C298.15,382.79,302.96,381.59,307.5,379.26z"/>
	<path class="st0" d="M319.58,308.88c1.04-0.02,2.06-0.01,3.08,0.04l0.3-0.59C321.84,308.47,320.71,308.64,319.58,308.88z"/>
	<path class="st0" d="M309.7,307.56c2.51-0.6,4.97-1.4,7.55-1.71c2.39-0.28,4.76-0.36,7.1-0.23l1.22-2.37
		C320.03,303.63,314.73,305.02,309.7,307.56z"/>
	<path class="st0" d="M344.7,335.79c-0.09-0.11-0.23-0.18-0.35-0.26c-0.09-0.13-0.19-0.26-0.28-0.39c-0.08,0.21-0.02,0.36,0.19,0.46
		c0.43,0.82,0.87,1.63,1.3,2.45l0.85-0.04C345.86,337.25,345.3,336.51,344.7,335.79z"/>
	<path class="st0" d="M284.82,316.19c0.32-0.51,0.66-1,0.99-1.51c-0.09-0.14-0.18-0.29-0.28-0.43
		C285.29,314.89,285.04,315.53,284.82,316.19z"/>
	<path class="st0" d="M280.28,314.74c-0.98,3.12-1.59,6.3-1.7,9.58c0.64-2.58,1.38-5.14,2.48-7.57c0.81-1.79,1.72-3.53,2.76-5.18
		c-0.47-0.73-0.93-1.46-1.4-2.19C281.61,311.13,280.86,312.9,280.28,314.74z"/>
	<path class="st0" d="M295.82,378.17c0.84-0.11,1.69-0.24,2.53-0.39c0.09-0.02,0.17-0.11,0.25-0.17c-0.82-0.01-1.64-0.02-2.46-0.04
		c-0.01,0.01-0.01,0.02-0.02,0.04L295.82,378.17z"/>
	<path class="st0" d="M339.56,361.91c-0.54,1.86-0.98,3.51-1.5,5.13c-0.54,1.68-1.28,3.29-2.09,4.86c-0.59,1.14-1.23,2.23-1.91,3.29
		l1.51,2.35C337.84,372.69,339.2,367.53,339.56,361.91z"/>
	<path class="st0" d="M333.35,369.98c-0.41,0.72-0.86,1.41-1.3,2.1l0.36,0.56C332.77,371.77,333.09,370.89,333.35,369.98z"/>
	<path class="st0" d="M348.87,333.48c-1.92-2.22-4.09-4.2-6.44-5.96c-0.31-0.23-0.58-0.69-1.1-0.5c3.38,3.28,6.03,6.89,8,10.84
		l2.73-0.13C351.08,336.25,350.03,334.82,348.87,333.48z"/>
	<path class="st0" d="M273.6,350.82c-0.28-0.48-0.55-0.97-0.81-1.45c-0.13,0.01-0.26,0.01-0.39,0.02
		C272.8,349.87,273.18,350.35,273.6,350.82z"/>
	<path class="st0" d="M557.76,343.4c-7.82-1.93-15.31-4.79-22.63-8.13c-18.02-8.23-34.31-19.27-50.15-31.02
		c-19.64-14.57-38.37-30.31-57.95-44.95c-18.64-13.94-37.86-26.97-59.24-36.45c-18.03-8-36.77-12.99-56.61-13.13
		c-17.56-0.12-34.58,2.77-51.04,9.13c-9.06,3.5-17.73,7.67-26.02,12.68c-15.26,9.23-28.74,20.64-40.92,33.61
		c-11.42,12.16-21.48,25.38-30.22,39.59c-2.03,3.31-4.1,6.62-5.55,10.29c7.11-5.36,14.07-10.84,21.04-16.31
		c6.93-5.44,13.85-10.88,20.82-16.27c6.97-5.38,14.06-10.6,21.47-15.45c-18.68,22.33-28.52,47.96-28.56,77.03
		c-0.04,29.17,9.78,54.88,28.41,77.38c-2.39-1.52-4.96-2.82-7.11-4.63c-3.02-2.54-6.25-4.77-9.38-7.14
		c-12.47-9.46-24.54-19.43-37.01-28.87c-15.98-12.1-33.36-21.58-52.67-27.51c-6.38-1.96-12.74-3.83-19.23-5.31
		c-7.48-1.69-15.07-2.62-22.7-3.28c-2.04-0.17-4.08-0.31-6.12-0.38c-2.02-0.06-4.04-0.01-6.05-0.01c0.38,0.38,0.75,0.56,1.15,0.66
		c7.94,1.91,15.48,4.93,22.91,8.24c8.27,3.68,16.12,8.16,23.78,12.95c4.4,2.75,8.63,5.77,12.94,8.63
		c7.04,4.68,13.78,9.74,20.49,14.84c19.24,14.62,37.77,30.17,57.36,44.35c7.2,5.21,14.43,10.42,21.92,15.21
		c3.15,2.02,6.43,3.94,9.75,5.74c8.67,4.72,17.32,9.45,26.55,13c6.84,2.62,13.71,5.12,20.86,6.87c21.18,5.19,42.34,5.17,63.53,0.24
		c12.33-2.87,24.08-7.33,35.23-13.29c23.25-12.42,42.57-29.56,59.3-49.75c8.42-10.15,16.01-20.9,22.64-32.31
		c1.17-2.02,2.3-4.07,3.45-6.1c-21.31,15.78-41.49,32.85-63.38,47.64c18.67-22.48,28.44-48.21,28.34-77.4c-0.1-29.12-10-54.76-29-77
		c0.84-0.04,1.2,0.46,1.63,0.76c15.85,11.05,31.01,23,46.04,35.11c15.63,12.6,32.59,22.81,51.38,29.94
		c15.91,6.03,32.36,9.69,49.31,11.08c4.15,0.34,8.32,0.65,12.53,0.31C558.65,343.69,558.21,343.52,557.76,343.4z M412.91,347.21
		c-0.85,30.65-15.4,59.05-38.69,77.72c2.22,0.42,4.31,1.35,6.27,2.8c5.13,3.81,7.25,9.13,6.15,15.39
		c-1.09,6.18-4.85,10.43-10.85,12.27c-1.56,0.48-3.15,0.72-4.73,0.72c-2.59,0-5.13-0.64-7.44-1.91c-3.72-2.04-6.4-5.46-7.55-9.64
		c-0.76-2.76-0.8-5.42-0.15-7.95c-14.47,7.21-31.07,11.18-49.07,10.75c-12.24-0.3-24.09-2.8-35.12-7.15
		c-4.17,0.15-8.41-0.82-12.22-3.05c-3.15-1.85-5.68-4.4-7.53-7.34c-27.64-18.59-46.29-50.46-45.5-88.4
		c1.16-55.07,46.53-100.64,103.29-100.47C366.71,240.82,414.55,287.89,412.91,347.21z"/>
	<path class="st0" d="M342.07,346.14l-0.74,0.04l-0.79,0.04c-0.74,8.37-4.8,16.16-11.25,21.56l0.43,0.67l0.4,0.63l0.09,0.14
		c6.81-5.59,11.4-13.82,12.17-23.09L342.07,346.14z"/>
	<path class="st0" d="M330.14,293.19c-0.64-0.55-1.26-1.09-1.86-1.67c-3.91-3.81-6.23-8.41-6.95-13.69
		c-0.03-0.25-0.06-0.5-0.08-0.76c-0.03-0.26-0.06-0.51-0.08-0.77c-0.98,0.38-2.09,0.52-3.37,0.41c-2.65-0.23-5.25-0.39-7.72-0.46
		c-3.74-0.11-5.58-1.44-6.78-4.92c-0.55-1.61-1.09-3.22-1.63-4.83c-0.49-1.46-0.97-2.91-1.47-4.37c-1.6-4.68-5.51-6.62-10.19-5.07
		c-3.17,1.05-6.33,2.11-9.5,3.17l-8.18,2.73c-4.93,1.64-6.9,5.57-5.27,10.51c0.57,1.74,1.16,3.49,1.74,5.23
		c0.23-0.12,0.44-0.25,0.67-0.36c0.23-0.11,0.46-0.19,0.7-0.29c0.93-0.39,1.89-0.71,2.9-0.93c6.68-1.41,13.49,1.69,16.94,7.73
		c3.28,5.72,2.43,13.21-2.06,18.22l-0.12,0.14l1.2,1.87c1.35-1.34,2.8-2.58,4.37-3.7c0.26-0.19,0.47-0.61,0.91-0.36c0,0,0,0,0-0.01
		l0.02,0.01c-0.01-0.01-0.02,0-0.03-0.01c-1.51,1.76-3.11,3.44-4.47,5.33l1.1,1.71c0.99-1.05,2.03-2.06,3.16-2.99
		c3.78-3.09,7.95-5.44,12.62-6.89c-3.77,2.17-7.26,4.7-10.25,7.85c-1.39,1.47-2.7,3.01-3.78,4.75l0.07,0.11
		c6.98-7.21,15.48-11.17,25.54-11.78c-1.26,0.39-2.54,0.76-3.79,1.18c-4.32,1.43-8.27,3.57-11.85,6.37
		c-0.49,0.39-1.04,0.73-1.38,1.29c-0.14,0.09-0.27,0.17-0.41,0.26c0.21,0.08,0.36,0.02,0.45-0.2c1.4-0.7,2.71-1.58,4.09-2.28
		c1.58-0.8,3.32-1.31,5.03-1.84c5.12-1.6,10.3-2.12,15.56-1.49l4.56-8.84C330.44,293.44,330.29,293.32,330.14,293.19z"/>
	<path class="st0" d="M393.42,318.41l-0.71-2.12l0.01,0l-0.98-2.93c-0.74-2.2-1.47-4.4-2.21-6.6c-1.63-4.83-5.52-6.78-10.39-5.2
		c-1.46,0.47-2.92,0.97-4.38,1.46c-1.46,0.49-2.92,0.99-4.39,1.46c-3.17,1.02-5.46,0.33-7.65-2.33c-1.94-2.36-3.59-4.25-5.2-5.94
		c-0.33-0.34-0.61-0.68-0.86-1.02c-0.22,0.12-0.44,0.24-0.66,0.36c-0.22,0.12-0.44,0.24-0.67,0.35c-0.6,0.29-1.22,0.56-1.85,0.79
		c-5.23,1.96-10.55,2.12-15.83,0.47c-1.72,3.34-3.4,6.6-5.08,9.85c0.47,0.14,0.94,0.27,1.4,0.42c1.75,0.59,3.53,1.18,5.12,2.23
		c-2.38-0.67-4.77-1.14-7.17-1.4c-0.19,0.36-0.38,0.73-0.56,1.09l-0.39,0.75c5.71,1.45,10.96,4.21,15.69,8.42
		c-5.34-3.1-11.02-5.06-17.15-5.6l-0.13,0.26c7.99,2.08,14.74,6.22,20.12,12.62c0.53,0.63,1.08,1.25,1.42,2.01
		c-0.08,0.07-0.15,0.15-0.23,0.22c-4.07-3.8-8.6-6.86-13.83-8.84c-0.44-0.17-0.86-0.42-1.37-0.33c2.58,1.58,5.17,3.14,7.46,5.15
		c4.4,3.85,7.75,8.39,10,13.68l15.2-0.72c1.18-7.14,4.89-12.52,11.03-16c3.92-2.22,8.17-3.09,12.65-2.6
		c0.28,0.03,0.56,0.08,0.84,0.12c0.28,0.04,0.56,0.08,0.84,0.13C393.47,318.56,393.45,318.48,393.42,318.41z"/>
	<path class="st0" d="M288.27,318.52l-0.42-0.65l-0.25-0.4c-6.88,5.72-11.36,14.2-11.98,23.89c0.09,0,0.19-0.01,0.28-0.01
		c0.26-0.01,0.51-0.02,0.77-0.04c0.25-0.01,0.5-0.02,0.75-0.03c0.58-8.58,4.68-16.6,11.28-22.11L288.27,318.52z"/>
	<path class="st0" d="M388.26,363.38c-1.31-0.67-2.64-1.32-3.96-1.98c-1.31-0.65-2.62-1.3-3.92-1.96c-0.2-0.1-0.41-0.2-0.61-0.3
		c-0.02-0.01-0.03-0.02-0.05-0.02c-0.01-0.01-0.02-0.01-0.03-0.02c-1.24-0.63-2.42-1.39-3.54-2.26c-0.42-0.33-0.84-0.67-1.24-1.03
		c-2.99-2.72-5.32-6.36-6.42-10.9l-16.31,0.77c0.54,2.21,0.92,4.5,1.1,6.89c-0.44-0.36-0.37-0.82-0.49-1.19
		c-0.13-0.39-0.25-0.79-0.37-1.19c-0.45-1.53-1-3.01-1.62-4.45l-2.07,0.1c0.91,3.12,1.43,6.31,1.33,9.58
		c-0.09,2.9-0.01,5.86-0.95,8.69c0.1-4.58-0.38-9.08-1.73-13.45c-0.49-1.59-0.99-3.18-1.73-4.67l-0.39,0.02
		c0.47,1.88,0.94,3.76,1.17,5.69c0.68,5.53,0.22,10.97-1.52,16.26c-0.63,1.9-1.25,3.83-2.37,5.56c1.83-6.41,2.28-12.88,0.88-19.46
		c0.12,8.95-2.15,17.05-7.52,24.05l11.95,18.61l0.42,0.66l0.42,0.66c0.37-0.46,0.8-0.9,1.33-1.32c1.89-1.51,3.89-3.14,5.79-4.91
		c2.7-2.52,5.1-2.91,8.28-1.33c1.62,0.8,3.24,1.61,4.86,2.42l3.69,1.84c4.52,2.25,8.75,0.83,11.04-3.72
		c2.76-5.51,5.52-11.02,8.26-16.53C394.19,369.93,392.78,365.68,388.26,363.38z"/>
	<path class="st0" d="M289.25,373.66l0.07-0.13c-9.09-2.28-16.57-7.01-22.17-14.65c-0.19-0.27-0.59-0.48-0.37-0.92c0,0,0,0-0.01,0
		l0.01-0.02c0,0.01,0,0.01,0,0.02c0.9,0.79,1.79,1.59,2.69,2.38c3.49,3.09,7.47,5.36,11.82,7.01c0.1,0.04,0.21,0.08,0.32,0.09
		c0.07,0.01,0.14-0.03,0.43-0.11c-6.35-3.6-11.28-8.3-14.71-14.2c-2.18,2.86-5.55,4.53-9.38,4.46c-4.89-0.11-9.28-3.55-10.67-8.35
		c-1.66-5.74,1.47-11.84,7.13-13.89c3.74-1.36,7.75-0.63,10.73,1.6c-0.15-1.06-0.28-2.13-0.34-3.23c0.34,1.34,0.74,2.64,1.18,3.93
		c1.15,1.05,2.11,2.35,2.77,3.86c0.05,0.11,0.08,0.16,0.1,0.18c0,0,0.03,0,0.09,0c0.03,0,0.06,0,0.11,0
		c0.18-0.01,0.35-0.02,0.53-0.02c-1.79-5.92-2.13-12.1-0.8-18.55c0.09,6.42,1.23,12.6,4.14,18.4c0.01,0,0.03,0,0.04,0
		c-2.81-9.78-2.1-19.26,2.48-28.4c-1.79,6.4-2.22,12.85-0.82,19.39c0.1-2.39,0.12-4.79,0.48-7.16c0.36-2.39,0.91-4.73,1.68-7.01
		c0.79-2.32,1.78-4.55,3.04-6.66c0.64-1.08,1.31-2.13,2.05-3.13c-0.21-0.32-0.41-0.64-0.62-0.96c-0.02-0.03-0.04-0.06-0.05-0.08
		c-0.02,0.01-0.05,0.02-0.09,0.03c-7.31,2.28-15.12-0.84-18.57-7.41c-0.31-0.6-0.59-1.21-0.82-1.83c-0.09-0.24-0.16-0.49-0.24-0.73
		c-0.08-0.24-0.17-0.49-0.24-0.73c-1.98,1.24-4.01,1.28-6.38,0.11c-1.32-0.65-2.64-1.3-3.95-1.96c-1.99-0.99-3.99-1.98-5.99-2.95
		c-3.92-1.89-8.35-0.4-10.29,3.47c-2.91,5.78-5.8,11.57-8.66,17.37c-2.05,4.16-0.55,8.52,3.64,10.61c1.33,0.66,2.67,1.32,4,1.98
		c1.93,0.95,3.87,1.91,5.79,2.88c3.19,1.61,4.3,3.64,3.96,7.25c-0.2,2.11-0.33,4.34-0.41,6.65c-0.11,3.49-1.55,5.45-4.8,6.55
		c-1.41,0.48-2.82,0.94-4.22,1.41c-2.1,0.7-4.2,1.4-6.29,2.12c-4.58,1.58-6.57,5.55-5.07,10.1c1.96,5.95,3.95,11.9,5.96,17.83
		c1.65,4.85,5.55,6.78,10.42,5.17c1.61-0.53,3.22-1.07,4.83-1.61c1.89-0.64,3.79-1.28,5.69-1.9c3.02-0.99,5.48-0.24,7.53,2.3
		c1.46,1.81,2.98,3.59,4.53,5.29c2.15,2.38,2.54,4.63,1.3,7.43c0.32-0.12,0.64-0.23,0.96-0.34c0.29-0.1,0.57-0.19,0.87-0.27
		c4.1-1.2,8.58-1.29,12.95-0.01l8.57-16.61c-2.43-0.67-4.83-1.59-7.21-2.78c2.61,0.62,5.23,1.17,7.91,1.44l0.91-1.77
		c-5.67-1.36-10.81-3.82-15.33-7.55c-0.19-0.16-0.46-0.27-0.48-0.78c2.87,1.55,5.73,2.92,8.77,3.84
		C283.51,372.92,286.34,373.49,289.25,373.66z"/>
	<path class="st0" d="M323.46,373.33l-0.41-0.64l-0.42-0.65c-1.12,0.53-2.27,1.02-3.47,1.43c-7.02,2.37-14.3,2.09-20.79-0.25
		c-0.13,0.25-0.26,0.5-0.39,0.75c-0.1,0.2-0.2,0.4-0.31,0.6c-0.02,0.05-0.05,0.1-0.07,0.14c3.66,1.33,7.61,2.05,11.72,2.04
		c5.08-0.01,9.91-1.19,14.23-3.28L323.46,373.33z"/>
	<path class="st0" d="M350.63,415.66l-1.21-1.89l-20.62-32.13c-1.29,1.25-2.66,2.43-4.15,3.51c-0.27,0.19-0.5,0.59-0.94,0.36
		c0,0,0,0,0,0l-0.02-0.01c0.01,0,0.01,0,0.02,0.01c1.52-1.63,2.97-3.32,4.29-5.11l-1.09-1.7c-3.9,4.06-8.59,7.18-14.19,9.23
		c-0.08-0.11-0.17-0.21-0.25-0.32c0.55-0.34,1.11-0.68,1.66-1.03c4.22-2.64,7.74-6.04,10.73-9.99c0.13-0.17,0.23-0.38,0.33-0.57
		l-0.06-0.09c-1.08,0.46-1.8,1.41-2.57,2.19c-1.84,1.86-4.03,3.17-6.23,4.46c-4.91,2.87-10.25,4.44-15.91,4.91
		c-0.31,0.03-0.63,0-0.95-0.04c3.65-0.94,7.17-2.19,10.47-4.02c2.67-1.48,5.22-3.14,7.37-5.33c-2.5,1.39-4.96,2.84-7.67,3.83
		c-5.5,2.02-11.13,2.85-16.92,2.24l-8.12,15.73c4.19,3.36,6.88,7.49,8.08,12.31c0.09,0.38,0.16,0.76,0.23,1.15
		c0.08,0.41,0.17,0.82,0.23,1.23l0.62-1.24c1.55-3.1,3.73-4.27,7.27-3.88c2.23,0.24,4.6,0.43,7.25,0.58
		c3.08,0.17,5.04,1.62,6.01,4.45c0.64,1.86,1.26,3.73,1.88,5.6c0.5,1.49,0.99,2.98,1.5,4.47c1.28,3.79,3.9,5.82,7.27,5.82
		c1.02,0,2.11-0.19,3.26-0.57c5.13-1.71,10.25-3.43,15.38-5.16l2-0.67c3.78-1.27,5.81-3.75,5.89-7.03L350.63,415.66z"/>
	<path class="st0" d="M328.06,315.71l-0.24,0.46l-0.33,0.64l-0.36,0.7c5.53,3.84,9.7,9.32,11.9,15.85c0.55,1.64,0.92,3.28,1.19,4.93
		l0.79-0.04l0.75-0.04l0.38-0.02C340.74,328.84,335.45,320.82,328.06,315.71z"/>
	<path class="st0" d="M279,353.5c-0.49-1.45-0.83-2.91-1.1-4.38l-0.59,0.03c-0.07,0-0.13,0.01-0.2,0.01
		c-0.25,0.01-0.51,0.02-0.76,0.04c-0.11,0.01-0.22,0.01-0.33,0.02c1.58,9.13,6.97,17,14.52,21.96l0.09-0.18l0.31-0.6l0.39-0.76
		C285.76,365.87,281.31,360.35,279,353.5z"/>
	<path class="st0" d="M309.14,309.78c-5.38,0-10.43,1.22-14.89,3.4l0.28,0.44l0.41,0.64l0.41,0.64c1.07-0.5,2.16-0.96,3.3-1.35
		c7.11-2.41,14.62-2.3,21.48,0.27l0.35-0.67l0.35-0.67l0.24-0.46C317.35,310.57,313.32,309.78,309.14,309.78z"/>
	<path class="st0" d="M258.32,342.58c-0.07,0-0.13,0-0.2,0c-2.01,0.1-3.45,1.69-3.35,3.69c0.05,0.99,0.46,1.87,1.15,2.5
		c0.69,0.62,1.6,0.93,2.59,0.88c1.99-0.11,3.42-1.72,3.32-3.74c-0.04-0.95-0.44-1.81-1.12-2.43
		C260.07,342.9,259.22,342.58,258.32,342.58z"/>
	<path class="st0" d="M271.02,403.18c-0.16,0-0.31,0-0.47,0.01c-4,0.12-7.67,1.78-10.34,4.65c-0.75,0.81-1.39,1.7-1.93,2.64
		c-0.28,0.49-0.53,0.99-0.75,1.5c-0.18,0.41-0.33,0.83-0.47,1.25c-0.53,1.65-0.79,3.4-0.71,5.2c0.17,3.89,1.85,7.49,4.73,10.11
		c2.88,2.63,6.61,3.95,10.52,3.81v0c3.88-0.17,7.47-1.86,10.12-4.76c0.06-0.07,0.12-0.15,0.18-0.22c0.21-0.24,0.42-0.49,0.61-0.74
		c0.2-0.26,0.38-0.53,0.57-0.8c1.72-2.57,2.59-5.58,2.44-8.69C285.15,409.24,278.82,403.18,271.02,403.18z"/>
	<path class="st0" d="M392.36,319.98c-4.43-0.62-8.61,0.14-12.44,2.31c-5.89,3.33-9.38,8.55-10.38,15.52l-0.09,0.62l-15.92,0.75
		l-0.56,0.03l-2.96,0.14l-2.59,0.12l-1.11,0.05l-3.98,0.19l-0.36,0.02l-0.75,0.04l-0.76,0.04l-5.84,0.28l-0.12-0.64
		c-1.34-7.12-5-12.82-10.89-16.97l-0.54-0.38l2.81-5.43l0.35-0.67l0.35-0.67l0.22-0.43l2.64-5.12l0.57-1.1
		c0.09-0.18,0.18-0.35,0.27-0.53c0.26-0.51,0.52-1.02,0.78-1.52c1.75-3.38,3.5-6.77,5.23-10.16c0.14-0.28,0.58-1.11,1.75-0.75
		c4.96,1.57,9.97,1.42,14.89-0.43c0.55-0.21,1.08-0.44,1.6-0.69c0.23-0.11,0.44-0.22,0.66-0.34c0.22-0.12,0.44-0.24,0.66-0.36
		c8.17-4.61,12.89-14.33,10.96-23.51c-1.76-8.38-6.68-14.09-14.62-16.98c-3.63-1.32-7.45-1.62-11.34-0.89
		c-11.14,2.09-18.73,11.71-18.23,22.97c0.01,0.16,0,0.32,0.01,0.49c0.01,0.13,0.03,0.25,0.04,0.37c0.02,0.28,0.06,0.56,0.09,0.84
		c0.59,5.13,2.78,9.59,6.56,13.27c0.57,0.56,1.18,1.08,1.79,1.61c0.3,0.26,0.6,0.52,0.9,0.78l0.44,0.39l-4.86,9.42l-0.28,0.53
		l-1.33,2.57l-1.24,2.4l-0.45,0.88l-1.84,3.56l-0.25,0.49l-0.33,0.64l-0.36,0.7l-2.82,5.46l-0.62-0.23
		c-3.37-1.22-6.69-1.73-10.14-1.58c-3.43,0.16-6.77,1-9.95,2.51l-0.6,0.28l-3.38-5.26l-0.42-0.66l-0.41-0.64l-0.27-0.43l-2.98-4.64
		l-0.98-1.52l-0.96-1.5l-2.01-3.13l0.87-1.01c4.06-4.53,4.84-11.3,1.88-16.47c-3.13-5.47-9.3-8.29-15.33-7
		c-0.95,0.2-1.86,0.51-2.73,0.88c-0.23,0.1-0.46,0.2-0.69,0.31c-0.23,0.11-0.45,0.24-0.67,0.36c-2.55,1.43-4.62,3.59-5.89,6.3
		c-1.37,2.92-1.65,6.19-0.88,9.35c0.06,0.27,0.14,0.53,0.22,0.8c0.08,0.26,0.16,0.51,0.25,0.77c0.24,0.68,0.52,1.36,0.87,2.02
		c3.11,5.93,10.17,8.74,16.79,6.67c0.83-0.26,1.4-0.05,1.86,0.68c0.11,0.17,0.22,0.35,0.33,0.52c0.11,0.17,0.22,0.35,0.33,0.52
		c0.52,0.81,1.04,1.62,1.55,2.43c0.51,0.79,1.02,1.59,1.52,2.38c0.16,0.24,0.31,0.48,0.47,0.73c0.42,0.65,0.83,1.3,1.25,1.96
		l0.81,1.27l0.26,0.4l0.41,0.64l0.41,0.64l3.31,5.15l-0.42,0.43c-0.34,0.35-0.69,0.7-1.03,1.04c-0.73,0.72-1.41,1.4-2.04,2.13
		c-3.52,4.12-5.56,8.93-6.06,14.3c-0.12,1.25-1.09,1.29-1.41,1.3c-1.61,0.07-3.23,0.15-4.84,0.22c-0.26,0.01-0.52,0.02-0.78,0.04
		c-0.25,0.01-0.51,0.02-0.76,0.04c-0.09,0-0.19,0.01-0.28,0.01c-1.83,0.09-3.67,0.16-5.5,0.26c-0.31,0.02-0.62,0.03-0.93,0.04
		c-0.33,0.02-0.6-0.04-0.84-0.13c-0.4-0.15-0.7-0.45-0.91-0.95c-0.45-1.04-1.07-1.96-1.8-2.75c-2.62-2.84-6.8-3.98-10.65-2.59
		c-4.91,1.78-7.64,7.07-6.2,12.05c1.21,4.18,5.01,7.16,9.26,7.26c3.49,0.05,6.63-1.62,8.52-4.43c0.24-0.36,0.47-0.74,0.67-1.14
		c0.21-0.42,0.41-0.85,0.56-1.3c0.16-0.47,0.41-0.77,0.74-0.96c0.22-0.12,0.48-0.21,0.8-0.22c0.67-0.03,1.35-0.06,2.02-0.1
		c0.25-0.01,0.49-0.02,0.74-0.03c1.25-0.06,2.5-0.11,3.75-0.18c0.11-0.01,0.21-0.01,0.32-0.01c0.25-0.01,0.51-0.02,0.76-0.04
		c0.12-0.01,0.24-0.01,0.36-0.02l0.41-0.02l6.04-0.29l0.12,0.64c1.36,7.22,4.92,12.78,10.89,17l0.54,0.38l-2.64,5.11l-0.38,0.74
		l-0.31,0.61l-0.08,0.16l-2.53,4.91l-0.81,1.56l-0.83,1.61l-9.31,18.04l-0.61-0.2c-4.66-1.5-9.49-1.33-13.8,0.18
		c-0.36,0.13-0.7,0.28-1.05,0.42c-0.36,0.15-0.72,0.31-1.08,0.47c-4.52,2.16-8.26,5.89-10.25,10.76c-3.18,7.8-1.35,16.62,4.17,22.49
		c1.32,1.4,2.84,2.63,4.56,3.64c2.3,1.35,4.78,2.21,7.3,2.61c7.32,1.16,14.99-1.58,19.78-7.63c3.2-4.04,4.71-8.65,4.51-13.68
		c0-0.08,0-0.15,0-0.22c-0.02-0.42-0.08-0.81-0.12-1.22c-0.05-0.46-0.08-0.92-0.16-1.37c-0.88-5.45-3.69-10.03-8.38-13.64
		l-0.49-0.38l0.54-1.09l7.87-15.26l0.28-0.54l1.34-2.6l1.29-2.5l0.45-0.86l0.3-0.58c0.47-0.91,0.94-1.83,1.41-2.74
		c0.02-0.05,0.05-0.09,0.07-0.14c0.1-0.2,0.21-0.4,0.31-0.6c0.13-0.25,0.26-0.5,0.39-0.76c0.68-1.32,1.37-2.65,2.05-3.97
		c0.37-0.72,0.92-0.96,1.72-0.75c1.9,0.5,3.45,0.86,4.88,1.13c2.77,0.54,5.69,0.46,8.69-0.22c1.41-0.32,2.79-0.76,4.24-1.23
		c0.66-0.21,1.32-0.42,2-0.63l0.54-0.16l2.9,4.52l0.43,0.66l0.4,0.63l0.09,0.14l3.05,4.74l1,1.56l0.93,1.45l17.56,27.36l1.67,2.6
		l1.67,2.61l10.88,16.95l-0.5,0.43c-0.09,0.08-0.19,0.15-0.29,0.23c-0.16,0.12-0.31,0.24-0.41,0.36c-1.22,1.49-2.13,3.04-2.71,4.64
		c-0.97,2.67-1.05,5.5-0.24,8.46c1.04,3.78,3.46,6.87,6.82,8.72c3.36,1.84,7.26,2.22,11,1.07c5.5-1.69,8.8-5.43,9.81-11.1
		c1.01-5.74-0.86-10.42-5.56-13.92c-2.18-1.62-4.54-2.5-7.06-2.71c-1.85-0.15-3.78,0.05-5.79,0.66c-0.78,0.23-1.33,0.02-1.74-0.66
		c-0.54-0.89-1.1-1.77-1.67-2.64l-6.62-10.31l-8.88-13.83l-0.49-0.76L346.9,398l-11.98-18.67l-0.14-0.21l-1.64-2.56l-1.46-2.27
		l-0.53-0.83l-2.12-3.31l-0.09-0.14l-0.4-0.62l-0.42-0.66l-3.06-4.77l0.5-0.43c5.43-4.65,8.53-10.68,9.23-17.9l0.06-0.65l5.78-0.27
		l0.8-0.04l0.74-0.03l0.32-0.02l2.37-0.11l0,0l3.43-0.16l1.87-0.09l1.62-0.08l17.93-0.84l0.13,0.63c0.8,3.78,2.5,6.91,4.75,9.39
		c0.26,0.28,0.53,0.54,0.8,0.81c0.29,0.29,0.59,0.57,0.9,0.84c4.77,4.15,11.23,5.83,16.85,4.8c9.29-1.7,16.28-9.7,16.63-19.02
		c0.37-9.86-6.21-18.37-15.71-20.48c-0.18-0.04-0.36-0.09-0.54-0.13c-0.1-0.02-0.2-0.03-0.3-0.05
		C392.92,320.06,392.64,320.02,392.36,319.98z M327.48,275.59c-0.03-0.6-0.04-1.19-0.02-1.78c0.07-1.86,0.44-3.66,1.06-5.36
		c0.44-1.22,1.03-2.38,1.74-3.47c0.5-0.77,1.04-1.52,1.67-2.22c0.17-0.19,0.35-0.35,0.53-0.53c0.62-0.64,1.27-1.24,1.98-1.76
		c0.44-0.33,0.89-0.63,1.35-0.92c2.46-1.51,5.27-2.39,8.24-2.55c4.64-0.24,9.11,1.37,12.6,4.53c3.47,3.15,5.5,7.43,5.7,12.04
		c0.26,5.88-2.23,10.72-5.87,13.95c-0.42,0.37-0.86,0.72-1.31,1.05c-0.34,0.25-0.68,0.49-1.04,0.71c-2.12,1.34-4.47,2.2-6.82,2.5
		c-0.78,0.1-1.56,0.15-2.32,0.15c-4.13,0-8.06-1.41-11.25-4.06C330.03,284.8,327.75,280.32,327.48,275.59z M283.01,299.05
		c-1.76,1.82-4.09,2.82-6.58,2.84c-0.02,0-0.04,0-0.06,0c-2.52,0-4.97-1-6.73-2.76c-1.45-1.44-2.35-3.31-2.63-5.35
		c-0.04-0.3-0.07-0.61-0.08-0.92c-0.01-0.15-0.02-0.31-0.02-0.46c0-0.18,0.02-0.36,0.03-0.54c0.01-0.13,0.01-0.26,0.02-0.39
		c0.28-2.64,1.71-4.96,3.77-6.47c0.22-0.16,0.45-0.32,0.69-0.46c0.23-0.14,0.47-0.27,0.71-0.39c1.19-0.59,2.51-0.94,3.91-0.97
		c0,0,0,0,0,0c0,0,0,0,0,0c0.6-0.02,1.21,0.02,1.8,0.11c1.78,0.29,3.47,1.12,4.83,2.38c1.85,1.72,2.9,4.07,2.97,6.61
		C285.72,294.83,284.78,297.23,283.01,299.05z M258.59,351.16c-0.1,0.01-0.2,0.01-0.3,0.01c-1.28,0-2.47-0.45-3.39-1.28
		c-0.99-0.89-1.57-2.15-1.64-3.54c-0.14-2.86,1.91-5.12,4.78-5.27c1.38-0.08,2.69,0.39,3.68,1.29c0.98,0.89,1.55,2.12,1.61,3.48
		C263.46,348.68,261.38,351.01,258.59,351.16z M287.03,417.08c0.13,2.74-0.45,5.41-1.65,7.81c-0.21,0.42-0.43,0.83-0.67,1.23
		c-0.22,0.35-0.45,0.69-0.7,1.03c-0.36,0.5-0.75,0.99-1.17,1.46c-2.92,3.2-6.88,5.06-11.16,5.25c-0.25,0.01-0.49,0.02-0.74,0.02
		c-4.04,0-7.87-1.48-10.87-4.22c-3.18-2.9-5.03-6.87-5.22-11.16c-0.13-3.05,0.58-5.98,2.01-8.56c0.41-0.74,0.88-1.46,1.41-2.13
		c0.27-0.34,0.54-0.68,0.84-1c0.3-0.32,0.61-0.61,0.93-0.9c2.84-2.61,6.51-4.11,10.48-4.23c0.17,0,0.35-0.01,0.52-0.01
		C279.63,401.68,286.61,408.35,287.03,417.08z M370.84,431.03c2.43-0.13,4.79,0.76,6.65,2.46c1.87,1.71,2.95,4.01,3.06,6.48
		c0.21,5.14-3.8,9.52-8.95,9.75c-0.14,0.01-0.29,0.01-0.43,0.01c-2.33,0-4.55-0.87-6.28-2.46c-1.84-1.69-2.91-4-3.02-6.51
		C361.64,435.64,365.66,431.27,370.84,431.03z M310.13,364.52c-0.33,0.02-0.66,0.02-0.98,0.02c-9.67,0-17.94-6.64-20.21-15.74
		c-0.32-1.3-0.52-2.65-0.59-4.04c-0.53-11.5,8.36-21.29,19.82-21.83c5.56-0.27,10.91,1.68,15.06,5.47c4.11,3.76,6.5,8.86,6.73,14.34
		C330.44,354.22,321.54,363.99,310.13,364.52z M394.12,325.32c0.28,0.08,0.56,0.17,0.83,0.27c0.29,0.11,0.57,0.23,0.85,0.35
		c1.46,0.65,2.82,1.52,4.03,2.62c3.05,2.77,4.89,6.71,5.06,10.81c0.33,8.32-6.19,15.41-14.54,15.81c-0.25,0.01-0.49,0.02-0.74,0.02
		c-3.84,0-7.48-1.42-10.32-4.05c-1.09-1.01-2.01-2.16-2.75-3.41c-0.25-0.41-0.47-0.84-0.68-1.27c-0.24-0.51-0.46-1.03-0.65-1.57
		c-0.51-1.48-0.8-3.04-0.85-4.66c-0.24-8.07,6.41-15.19,14.53-15.55c0.51-0.03,1.01-0.03,1.51-0.01
		C391.67,324.72,392.92,324.95,394.12,325.32z"/>
	<path class="st0" d="M308.25,324.44c-10.64,0.5-18.89,9.59-18.39,20.26c0.49,10.48,9.34,18.61,19.87,18.32c0.11,0,0.22,0.01,0.33,0
		c0,0,0,0,0,0c5.79-0.27,10.89-3.1,14.24-7.36c0.48-0.61,0.92-1.24,1.33-1.91c1.94-3.18,3-6.95,2.84-10.94
		c-0.21-5.08-2.43-9.8-6.24-13.29C318.37,326,313.41,324.19,308.25,324.44z"/>
	<path class="st0" d="M347.11,290.3c2.88-0.36,5.76-1.67,8.13-3.7c0.58-0.49,1.13-1.02,1.63-1.6c2.54-2.88,4.16-6.77,3.95-11.36
		c-0.01-0.17-0.03-0.33-0.05-0.5c-0.31-4.02-2.12-7.73-5.17-10.49c-3.19-2.89-7.27-4.34-11.51-4.15c-2.03,0.11-3.97,0.59-5.77,1.4
		c-0.36,0.16-0.72,0.35-1.07,0.54c-0.35,0.19-0.7,0.4-1.04,0.62c-1.16,0.75-2.23,1.65-3.18,2.7c-2.87,3.21-4.32,7.38-4.07,11.74
		c0.25,4.32,2.32,8.4,5.7,11.21C338.15,289.6,342.57,290.86,347.11,290.3z"/>
	<path class="st0" d="M388.96,326.18L388.96,326.18c-7.33,0.32-13.32,6.73-13.1,14c0.01,0.2,0.03,0.4,0.05,0.6
		c0.05,0.64,0.13,1.27,0.26,1.88c0.14,0.67,0.33,1.33,0.56,1.97c0.75,2.04,1.95,3.88,3.58,5.39c2.73,2.52,6.26,3.8,9.97,3.64
		c7.53-0.36,13.41-6.75,13.11-14.25c-0.15-3.7-1.81-7.25-4.56-9.75c-0.88-0.8-1.84-1.46-2.87-1.99c-0.25-0.13-0.51-0.25-0.77-0.36
		c-0.25-0.11-0.5-0.22-0.76-0.32c-1.49-0.55-3.07-0.84-4.7-0.84C389.47,326.16,389.22,326.17,388.96,326.18z"/>
	<path class="st0" d="M276.41,284.69c-0.1,0-0.2,0-0.3,0.01h-0.02c-1.38,0.03-2.67,0.45-3.79,1.11c-0.26,0.16-0.52,0.32-0.77,0.5
		c-0.29,0.22-0.59,0.45-0.85,0.71c-0.89,0.89-1.53,2-1.9,3.22c-0.13,0.41-0.21,0.83-0.27,1.26c-0.04,0.3-0.09,0.59-0.09,0.9
		c0,0.06,0.01,0.11,0.01,0.16c0.03,2.11,0.83,4.06,2.27,5.5c1.49,1.49,3.65,2.33,5.72,2.32c2.08-0.01,4.03-0.86,5.51-2.38
		c1.49-1.53,2.27-3.55,2.21-5.66c-0.06-2.13-0.94-4.1-2.49-5.55C280.21,285.45,278.31,284.69,276.41,284.69z"/>
	<path class="st0" d="M371.53,448.23c4.33-0.2,7.7-3.87,7.52-8.18c-0.09-2.07-1-4-2.57-5.44c-1.47-1.35-3.31-2.07-5.22-2.07
		c-0.11,0-0.23,0-0.34,0.01c-4.35,0.2-7.73,3.86-7.54,8.17h0c0.09,2.1,0.99,4.05,2.54,5.47
		C367.45,447.59,369.46,448.31,371.53,448.23z"/>
</g>
</svg>
