<?xml version="1.0" encoding="utf-8"?>
<!-- Generator: Adobe Illustrator 27.0.0, SVG Export Plug-In . SVG Version: 6.00 Build 0)  -->
<svg version="1.1" id="Layer_1" xmlns="http://www.w3.org/2000/svg" xmlns:xlink="http://www.w3.org/1999/xlink" x="0px" y="0px"
	 viewBox="0 0 612 792" style="enable-background:new 0 0 612 792;" xml:space="preserve">
<style type="text/css">
	.st0{fill:#FFFFFF;}
	.st1{fill:#231F20;}
	.st2{fill:#282264;}
	.st3{fill:#3D80EA;}
	.st4{fill:#CE6700;}
</style>
<g>
	<circle class="st0" cx="306.47" cy="344.33" r="121.81"/>
	<path class="st1" d="M306.47,466.97c-67.62,0-122.64-55.02-122.64-122.64c0-67.62,55.02-122.64,122.64-122.64
		s122.64,55.02,122.64,122.64C429.11,411.95,374.1,466.97,306.47,466.97z M306.47,223.34c-66.71,0-120.99,54.28-120.99,120.99
		s54.28,120.99,120.99,120.99s120.99-54.28,120.99-120.99S373.19,223.34,306.47,223.34z"/>
</g>
<g>
	<path class="st2" d="M209.54,429.78c-20.42-24.68-31.19-52.86-31.14-84.84c0.05-31.88,10.84-59.98,31.31-84.46
		c-8.13,5.32-15.9,11.04-23.54,16.94c-7.64,5.91-15.23,11.88-22.83,17.84c-7.64,6-15.27,12.01-23.07,17.89
		c1.6-4.02,3.86-7.65,6.09-11.28c9.58-15.59,20.61-30.08,33.13-43.41c13.35-14.22,28.13-26.73,44.86-36.85
		c9.09-5.5,18.59-10.07,28.53-13.91c18.05-6.97,36.7-10.14,55.96-10.01c21.75,0.15,42.31,5.62,62.07,14.39
		c23.45,10.4,44.51,24.68,64.96,39.97c21.47,16.05,42.01,33.31,63.54,49.29c17.36,12.89,35.23,24.99,54.98,34.01
		c8.02,3.66,16.23,6.79,24.81,8.92c0.49,0.12,0.97,0.32,1.42,0.64c-4.61,0.37-9.18,0.03-13.73-0.34
		c-18.58-1.53-36.61-5.53-54.06-12.15c-20.61-7.81-39.2-19.01-56.33-32.82c-16.47-13.29-33.1-26.39-50.48-38.5
		c-0.48-0.33-0.86-0.88-1.79-0.83c20.83,24.38,31.68,52.49,31.79,84.42c0.11,32-10.61,60.21-31.07,84.86
		c24-16.22,46.12-34.93,69.49-52.23c-1.26,2.23-2.5,4.48-3.78,6.69c-7.26,12.52-15.59,24.29-24.82,35.43
		c-18.35,22.13-39.53,40.93-65.02,54.55c-12.23,6.53-25.11,11.43-38.63,14.57c-23.24,5.4-46.44,5.42-69.66-0.27
		c-7.84-1.92-15.37-4.65-22.87-7.53c-10.12-3.88-19.61-9.08-29.11-14.25c-3.64-1.98-7.23-4.09-10.69-6.3
		c-8.21-5.25-16.13-10.96-24.03-16.67c-21.48-15.54-41.79-32.59-62.89-48.62c-7.36-5.59-14.75-11.14-22.47-16.27
		c-4.73-3.14-9.37-6.45-14.19-9.46c-8.4-5.25-17-10.16-26.07-14.2c-8.15-3.63-16.42-6.93-25.12-9.03c-0.43-0.1-0.85-0.31-1.26-0.72
		c2.21,0,4.43-0.05,6.64,0.02c2.24,0.07,4.48,0.22,6.71,0.41c8.36,0.72,16.69,1.74,24.89,3.6c7.12,1.61,14.09,3.67,21.08,5.82
		c21.17,6.5,40.23,16.89,57.75,30.16c13.67,10.35,26.91,21.28,40.58,31.65c3.43,2.6,6.97,5.05,10.28,7.83
		C204.1,426.69,206.93,428.11,209.54,429.78z M307.3,231.93c-62.23-0.19-111.98,49.78-113.24,110.16
		c-1.38,65.62,50.26,114.71,110.04,116.15c65.79,1.59,114.64-50.23,116.29-109.8C422.18,283.39,369.72,231.78,307.3,231.93z"/>
</g>
<g>
	<g>
		<path class="st3" d="M397.22,314.12c1.11,3.31,2.25,6.61,3.32,9.93c1.39,4.3-0.51,8.2-4.79,9.73c-3.29,1.18-6.62,2.22-9.92,3.34
			c-4.07,1.38-5.71,3.7-5.91,8.03c-0.14,2.92-0.38,5.84-0.68,8.74c-0.4,3.84,0.96,6.55,4.39,8.32c3.1,1.6,6.25,3.1,9.36,4.68
			c4.55,2.32,5.92,6.49,3.66,11.04c-3.01,6.05-6.03,12.09-9.06,18.12c-2.29,4.57-6.45,5.97-10.99,3.71
			c-3.12-1.55-6.24-3.12-9.37-4.67c-3.84-1.9-6.85-1.35-10,1.59c-2.01,1.88-4.15,3.63-6.3,5.35c-2.84,2.27-3.89,5.15-2.82,8.68
			c1.08,3.55,2.33,7.06,3.5,10.58c1.69,5.1-0.18,8.83-5.3,10.55c-6.35,2.13-12.7,4.27-19.05,6.39c-4.93,1.65-8.83-0.29-10.5-5.24
			c-1.25-3.68-2.45-7.37-3.71-11.05c-1.19-3.47-3.65-5.23-7.33-5.44c-2.64-0.14-5.28-0.34-7.9-0.63c-4.19-0.46-6.93,0.96-8.8,4.7
			c-1.72,3.42-3.41,6.85-5.14,10.27c-2.27,4.49-6.34,5.89-10.89,3.66c-6.17-3.02-12.31-6.08-18.45-9.17
			c-4.29-2.16-5.72-6.35-3.64-10.65c1.77-3.65,3.6-7.26,5.41-10.89c1.82-3.65,1.37-6.62-1.33-9.6c-1.7-1.87-3.34-3.8-4.93-5.77
			c-2.44-3.02-5.45-4-9.15-2.79c-3.85,1.26-7.68,2.58-11.53,3.85c-4.89,1.61-8.72-0.27-10.38-5.16c-2.21-6.5-4.39-13.02-6.54-19.54
			c-1.5-4.56,0.46-8.44,5.05-10.03c3.83-1.32,7.69-2.57,11.53-3.87c3.93-1.33,5.68-3.79,5.82-7.93c0.08-2.42,0.22-4.83,0.44-7.24
			c0.39-4.23-0.97-6.83-4.79-8.76c-3.57-1.8-7.16-3.54-10.74-5.33c-4.14-2.07-5.65-6.4-3.62-10.54c3.13-6.36,6.3-12.71,9.49-19.04
			c1.95-3.87,6.28-5.32,10.19-3.43c3.65,1.76,7.26,3.59,10.9,5.38c3.6,1.77,6.64,1.23,9.56-1.53c1.92-1.81,3.9-3.57,5.93-5.26
			c3.03-2.52,3.9-5.37,2.65-9.17c-1.19-3.58-2.41-7.15-3.59-10.73c-1.63-4.96,0.33-8.84,5.26-10.49c6.46-2.15,12.92-4.33,19.38-6.48
			c4.7-1.56,8.52,0.33,10.13,5.04c1.15,3.36,2.24,6.73,3.4,10.08c1.43,4.16,3.82,5.82,8.18,5.95c2.81,0.08,5.62,0.26,8.42,0.5
			c3.76,0.33,6.57-1.16,8.26-4.55c1.61-3.22,3.17-6.47,4.82-9.67c2.3-4.47,6.46-5.79,10.93-3.56c6.09,3.04,12.19,6.07,18.29,9.1
			c4.36,2.16,5.83,6.4,3.69,10.75c-1.51,3.08-3.06,6.15-4.59,9.22c-1.87,3.77-1.31,6.77,1.6,9.84c1.97,2.07,3.85,4.25,5.66,6.47
			c2.58,3.14,5.41,4.07,9.28,2.82c3.21-1.04,6.4-2.16,9.61-3.2c4.95-1.6,8.71,0.3,10.36,5.18
			C395.05,307.6,396.14,310.86,397.22,314.12C397.22,314.12,397.22,314.12,397.22,314.12z M272.78,355.6
			c6.34,18.76,26.37,28.72,45.09,22.41c18.6-6.27,28.56-26.38,22.29-45.02c-6.31-18.74-26.47-28.64-45.3-22.25
			C276.48,316.98,266.55,337.16,272.78,355.6z"/>
		<path class="st2" d="M323.97,440.47c-4.05,0-7.27-2.45-8.79-6.93c-0.55-1.61-1.08-3.23-1.62-4.85c-0.69-2.07-1.38-4.13-2.08-6.2
			c-0.95-2.78-2.81-4.16-5.85-4.32c-2.91-0.16-5.53-0.37-7.99-0.64c-3.53-0.38-5.6,0.72-7.15,3.8l-1.98,3.97
			c-1.05,2.11-2.1,4.21-3.16,6.31c-2.7,5.34-7.71,7.02-13.08,4.4c-5.62-2.75-11.66-5.76-18.46-9.18c-5.1-2.56-6.86-7.73-4.38-12.84
			c1.23-2.55,2.5-5.09,3.77-7.62l1.64-3.28c1.5-3.01,1.19-5.26-1.07-7.76c-1.71-1.88-3.39-3.85-4.99-5.84
			c-2.03-2.51-4.37-3.23-7.36-2.25c-2.07,0.68-4.14,1.37-6.2,2.07c-1.78,0.6-3.55,1.2-5.33,1.78c-5.73,1.89-10.52-0.48-12.46-6.19
			c-2.21-6.51-4.39-13.03-6.54-19.56c-1.77-5.37,0.67-10.24,6.08-12.11c2.3-0.79,4.61-1.56,6.92-2.33c1.54-0.51,3.08-1.02,4.62-1.54
			c3.23-1.09,4.59-2.95,4.7-6.42c0.08-2.59,0.23-4.99,0.45-7.34c0.33-3.6-0.72-5.53-3.9-7.14c-2.1-1.06-4.21-2.1-6.32-3.14
			c-1.47-0.73-2.95-1.45-4.42-2.19c-4.95-2.47-6.78-7.83-4.36-12.74c3.14-6.37,6.31-12.71,9.5-19.05c2.35-4.66,7.67-6.45,12.38-4.18
			c2.2,1.06,4.39,2.15,6.58,3.24c1.44,0.72,2.89,1.44,4.33,2.15c2.94,1.45,5.24,1.07,7.7-1.25c1.94-1.83,3.96-3.63,6.01-5.33
			c2.55-2.12,3.17-4.26,2.14-7.38c-0.54-1.63-1.09-3.26-1.64-4.89c-0.65-1.95-1.31-3.89-1.95-5.84c-1.92-5.82,0.5-10.63,6.31-12.57
			l9.01-3.01c3.46-1.16,6.91-2.31,10.37-3.46c5.52-1.84,10.32,0.55,12.21,6.07c0.54,1.59,1.08,3.19,1.61,4.78
			c0.59,1.77,1.18,3.53,1.79,5.3c1.19,3.46,2.94,4.72,6.67,4.83c2.72,0.08,5.58,0.25,8.51,0.51c3.11,0.27,5.28-0.92,6.64-3.64
			c0.55-1.11,1.1-2.22,1.65-3.33c1.05-2.13,2.1-4.25,3.18-6.36c2.7-5.23,7.85-6.91,13.13-4.28c6.09,3.04,12.19,6.07,18.29,9.1
			c5.19,2.58,6.98,7.78,4.44,12.96c-0.88,1.8-1.78,3.59-2.67,5.38c-0.64,1.28-1.28,2.56-1.92,3.85c-1.55,3.12-1.18,5.35,1.32,7.97
			c1.78,1.87,3.6,3.95,5.74,6.56c2.18,2.65,4.34,3.31,7.5,2.29c1.6-0.52,3.19-1.06,4.79-1.59c1.61-0.54,3.21-1.09,4.83-1.61
			c5.83-1.89,10.48,0.44,12.43,6.23c0.74,2.2,1.48,4.4,2.21,6.6l1.63,4.86l-0.01,0l0.49,1.45c0.77,2.27,1.53,4.53,2.27,6.81
			c1.66,5.13-0.73,9.98-5.81,11.79c-2.09,0.75-4.2,1.44-6.31,2.14c-1.22,0.4-2.43,0.8-3.64,1.21c-3.37,1.14-4.62,2.86-4.8,6.54
			c-0.12,2.68-0.35,5.57-0.69,8.84c-0.34,3.25,0.71,5.25,3.5,6.68c1.65,0.85,3.31,1.67,4.98,2.49c1.46,0.72,2.93,1.45,4.38,2.19
			c5.32,2.71,7.04,7.91,4.39,13.25c-3.01,6.05-6.03,12.09-9.06,18.13c-2.69,5.35-7.87,7.1-13.2,4.45l-4.1-2.05
			c-1.75-0.88-3.51-1.75-5.27-2.62c-3.16-1.57-5.44-1.2-8.14,1.32c-2.1,1.96-4.31,3.77-6.39,5.43c-2.4,1.91-3.12,4.11-2.27,6.91
			c0.72,2.38,1.54,4.79,2.33,7.12c0.39,1.14,0.77,2.28,1.15,3.42c1.99,6.01-0.32,10.61-6.34,12.63c-6.35,2.13-12.7,4.26-19.06,6.39
			C326.44,440.25,325.17,440.47,323.97,440.47z M296.4,414.16c0.51,0,1.04,0.03,1.59,0.09c2.4,0.26,4.96,0.46,7.81,0.62
			c4.37,0.24,7.41,2.5,8.8,6.55c0.71,2.07,1.4,4.14,2.09,6.22c0.54,1.61,1.08,3.22,1.62,4.83c1.38,4.06,4.36,5.56,8.42,4.2
			c6.35-2.12,12.7-4.26,19.05-6.39c4.28-1.44,5.67-4.21,4.26-8.47c-0.38-1.13-0.76-2.27-1.14-3.4c-0.8-2.35-1.62-4.79-2.37-7.22
			c-1.24-4.09-0.08-7.7,3.37-10.45c2.03-1.62,4.18-3.38,6.2-5.26c3.7-3.45,7.46-4.04,11.86-1.87c1.76,0.87,3.52,1.75,5.28,2.63
			l4.1,2.04c3.71,1.85,6.91,0.76,8.78-2.97c3.03-6.03,6.05-12.07,9.05-18.12c1.85-3.72,0.78-6.95-2.93-8.84
			c-1.44-0.74-2.89-1.45-4.35-2.17c-1.68-0.83-3.36-1.66-5.02-2.51c-3.97-2.04-5.75-5.39-5.28-9.96c0.33-3.21,0.55-6.04,0.67-8.65
			c0.24-5.08,2.34-7.92,7.03-9.51c1.22-0.41,2.44-0.82,3.67-1.22c2.08-0.69,4.16-1.37,6.23-2.11c3.41-1.22,4.89-4.23,3.78-7.67
			c-0.73-2.26-1.49-4.52-2.25-6.77l-1.51-4.51l0.01,0l-0.61-1.81c-0.73-2.2-1.47-4.4-2.21-6.59c-1.36-4.02-4.22-5.46-8.29-4.14
			c-1.6,0.52-3.19,1.06-4.79,1.59c-1.61,0.54-3.21,1.09-4.83,1.61c-4.49,1.45-8,0.39-11.06-3.34c-2.09-2.54-3.86-4.57-5.59-6.38
			c-3.45-3.62-4.05-7.34-1.88-11.71c0.64-1.29,1.28-2.57,1.92-3.86c0.89-1.78,1.78-3.57,2.66-5.36c1.72-3.52,0.59-6.79-2.95-8.55
			c-6.1-3.03-12.2-6.06-18.29-9.1c-3.67-1.83-6.85-0.8-8.72,2.84c-1.08,2.09-2.12,4.2-3.16,6.31c-0.55,1.11-1.1,2.23-1.66,3.34
			c-1.98,3.97-5.4,5.85-9.88,5.46c-2.87-0.25-5.67-0.42-8.32-0.5c-5.07-0.15-8.06-2.33-9.7-7.06c-0.61-1.77-1.2-3.55-1.8-5.33
			c-0.53-1.59-1.06-3.17-1.6-4.76c-1.32-3.87-4.18-5.29-8.05-4.01c-3.45,1.15-6.91,2.3-10.36,3.46l-9.02,3.01
			c-4.06,1.35-5.55,4.34-4.21,8.4c0.64,1.94,1.29,3.88,1.94,5.82c0.55,1.63,1.1,3.27,1.64,4.91c1.45,4.39,0.42,7.97-3.16,10.95
			c-1.99,1.66-3.96,3.4-5.85,5.19c-3.48,3.28-7.21,3.88-11.42,1.81c-1.45-0.71-2.9-1.43-4.35-2.15c-2.18-1.08-4.36-2.17-6.54-3.22
			c-3.09-1.5-6.46-0.37-8,2.69c-3.19,6.33-6.35,12.67-9.48,19.03c-1.63,3.31-0.48,6.66,2.87,8.33c1.47,0.73,2.93,1.46,4.4,2.18
			c2.12,1.04,4.24,2.09,6.34,3.15c4.4,2.22,6.16,5.42,5.69,10.39c-0.21,2.28-0.36,4.61-0.44,7.14c-0.16,4.89-2.37,7.9-6.94,9.44
			c-1.54,0.52-3.09,1.04-4.63,1.55c-2.3,0.76-4.59,1.53-6.88,2.32c-3.73,1.29-5.23,4.26-4.02,7.95c2.14,6.52,4.32,13.03,6.53,19.52
			c1.37,4.03,4.24,5.46,8.3,4.12c1.77-0.58,3.54-1.18,5.31-1.78c2.07-0.7,4.15-1.4,6.23-2.08c4.28-1.4,8.07-0.25,10.95,3.32
			c1.57,1.94,3.21,3.86,4.87,5.7c3.16,3.49,3.68,7.23,1.58,11.44l-1.65,3.29c-1.26,2.52-2.53,5.04-3.75,7.58
			c-1.68,3.47-0.57,6.71,2.89,8.46c6.79,3.42,12.82,6.42,18.43,9.16c3.73,1.83,6.81,0.79,8.69-2.92c1.06-2.09,2.1-4.19,3.15-6.29
			l1.98-3.97C289.44,416.04,292.35,414.16,296.4,414.16z M306.57,381.52c-15.55,0-30.1-9.84-35.35-25.4
			c-6.54-19.35,3.83-40.41,23.1-46.95c9.57-3.25,19.77-2.6,28.71,1.83c8.87,4.39,15.51,12.01,18.69,21.45
			c6.54,19.44-3.92,40.57-23.32,47.11C314.47,380.9,310.49,381.52,306.57,381.52z M306.54,310.45c-3.74,0-7.5,0.62-11.16,1.86
			c-17.55,5.96-26.99,25.14-21.03,42.76v0c6,17.76,25.28,27.34,42.99,21.38c17.68-5.96,27.21-25.22,21.25-42.93
			c-2.89-8.6-8.94-15.55-17.02-19.54C316.83,311.63,311.71,310.45,306.54,310.45z"/>
	</g>
</g>
<g>
	<path class="st2" d="M139.04,579.01h2.08l2.6,7.82l2.62-7.82h2.08l1.88,11.22h-2.06l-1.2-7.08l-2.38,7.08h-1.88l-2.36-7.08
		l-1.23,7.08h-2.08L139.04,579.01z"/>
	<path class="st2" d="M160.09,586.68h-6.69c0.1,0.59,0.35,1.06,0.77,1.41c0.42,0.35,0.95,0.52,1.61,0.52c0.78,0,1.45-0.27,2.01-0.82
		l1.75,0.82c-0.44,0.62-0.96,1.08-1.57,1.37c-0.61,0.3-1.33,0.45-2.17,0.45c-1.3,0-2.36-0.41-3.18-1.23
		c-0.82-0.82-1.23-1.85-1.23-3.08c0-1.27,0.41-2.32,1.22-3.15c0.82-0.83,1.84-1.25,3.07-1.25c1.31,0,2.37,0.42,3.19,1.25
		c0.82,0.84,1.23,1.94,1.23,3.31L160.09,586.68z M158.01,585.04c-0.14-0.46-0.41-0.84-0.81-1.13c-0.41-0.29-0.87-0.43-1.41-0.43
		c-0.58,0-1.09,0.16-1.53,0.49c-0.27,0.2-0.53,0.56-0.76,1.07H158.01z"/>
	<path class="st2" d="M167.89,578.73h2.08v11.5h-2.08v-0.88c-0.41,0.39-0.81,0.66-1.22,0.83c-0.41,0.17-0.85,0.25-1.33,0.25
		c-1.07,0-2-0.42-2.78-1.25c-0.78-0.83-1.17-1.86-1.17-3.1c0-1.28,0.38-2.33,1.13-3.15c0.76-0.82,1.68-1.23,2.76-1.23
		c0.5,0,0.96,0.1,1.4,0.28c0.44,0.19,0.84,0.47,1.21,0.85V578.73z M165.71,583.64c-0.64,0-1.18,0.23-1.6,0.68
		c-0.43,0.45-0.64,1.04-0.64,1.75c0,0.72,0.22,1.31,0.65,1.77c0.43,0.46,0.97,0.69,1.6,0.69c0.65,0,1.2-0.23,1.63-0.68
		c0.43-0.45,0.65-1.05,0.65-1.79c0-0.72-0.22-1.31-0.65-1.75C166.91,583.86,166.36,583.64,165.71,583.64z"/>
	<path class="st2" d="M172.89,578.52c0.37,0,0.68,0.13,0.94,0.4c0.26,0.26,0.39,0.58,0.39,0.96c0,0.37-0.13,0.69-0.39,0.95
		c-0.26,0.26-0.57,0.39-0.93,0.39c-0.37,0-0.69-0.13-0.95-0.4c-0.26-0.27-0.39-0.59-0.39-0.97c0-0.37,0.13-0.68,0.39-0.94
		C172.21,578.65,172.53,578.52,172.89,578.52z M171.85,581.93h2.08v8.29h-2.08V581.93z"/>
	<path class="st2" d="M183.94,583.61l-1.73,0.95c-0.33-0.34-0.65-0.58-0.97-0.71c-0.32-0.13-0.69-0.2-1.12-0.2
		c-0.78,0-1.41,0.23-1.89,0.7c-0.48,0.46-0.72,1.06-0.72,1.78c0,0.71,0.23,1.28,0.69,1.73c0.46,0.45,1.07,0.67,1.82,0.67
		c0.93,0,1.66-0.32,2.18-0.95l1.64,1.12c-0.89,1.16-2.14,1.73-3.77,1.73c-1.46,0-2.6-0.43-3.43-1.3s-1.24-1.87-1.24-3.03
		c0-0.8,0.2-1.54,0.6-2.22c0.4-0.68,0.96-1.21,1.68-1.59c0.72-0.39,1.52-0.58,2.41-0.58c0.82,0,1.56,0.16,2.22,0.49
		C182.99,582.54,183.52,583.01,183.94,583.61z"/>
	<path class="st2" d="M191.94,581.93h2.08v8.29h-2.08v-0.88c-0.41,0.39-0.81,0.66-1.22,0.83c-0.41,0.17-0.85,0.25-1.33,0.25
		c-1.07,0-2-0.42-2.78-1.25c-0.78-0.83-1.17-1.86-1.17-3.1c0-1.28,0.38-2.33,1.13-3.15c0.76-0.82,1.68-1.23,2.76-1.23
		c0.5,0,0.96,0.1,1.4,0.28c0.44,0.19,0.84,0.47,1.21,0.85V581.93z M189.75,583.64c-0.64,0-1.18,0.23-1.6,0.68
		c-0.43,0.45-0.64,1.04-0.64,1.75c0,0.72,0.22,1.31,0.65,1.77c0.43,0.46,0.97,0.69,1.6,0.69c0.65,0,1.2-0.23,1.63-0.68
		c0.43-0.45,0.65-1.05,0.65-1.79c0-0.72-0.22-1.31-0.65-1.75C190.95,583.86,190.41,583.64,189.75,583.64z"/>
	<path class="st2" d="M195.9,578.73h2.08v11.5h-2.08V578.73z"/>
	<path class="st2" d="M203.61,579.01h2.2l2.82,7.97l2.86-7.97h2.19l-4.04,11.22h-2.06L203.61,579.01z"/>
	<path class="st2" d="M215.98,578.52c0.37,0,0.68,0.13,0.94,0.4c0.26,0.26,0.39,0.58,0.39,0.96c0,0.37-0.13,0.69-0.39,0.95
		c-0.26,0.26-0.57,0.39-0.93,0.39c-0.37,0-0.69-0.13-0.95-0.4c-0.26-0.27-0.39-0.59-0.39-0.97c0-0.37,0.13-0.68,0.39-0.94
		C215.3,578.65,215.61,578.52,215.98,578.52z M214.94,581.93h2.08v8.29h-2.08V581.93z"/>
	<path class="st2" d="M223.99,583.09l-1.29,1.29c-0.52-0.52-1-0.78-1.43-0.78c-0.23,0-0.42,0.05-0.55,0.15
		c-0.13,0.1-0.2,0.22-0.2,0.37c0,0.11,0.04,0.21,0.13,0.31c0.08,0.09,0.29,0.22,0.62,0.39l0.76,0.38c0.8,0.4,1.35,0.8,1.65,1.21
		c0.3,0.41,0.45,0.89,0.45,1.45c0,0.74-0.27,1.35-0.81,1.84c-0.54,0.49-1.27,0.74-2.18,0.74c-1.21,0-2.18-0.47-2.9-1.42l1.28-1.39
		c0.24,0.29,0.53,0.51,0.86,0.69c0.33,0.18,0.62,0.26,0.87,0.26c0.27,0,0.5-0.07,0.66-0.2c0.17-0.13,0.25-0.28,0.25-0.46
		c0-0.32-0.3-0.63-0.91-0.94l-0.7-0.35c-1.34-0.68-2.01-1.52-2.01-2.54c0-0.66,0.25-1.22,0.76-1.68c0.51-0.46,1.15-0.7,1.94-0.7
		c0.54,0,1.05,0.12,1.52,0.35C223.25,582.31,223.66,582.65,223.99,583.09z"/>
	<path class="st2" d="M226.59,578.52c0.37,0,0.68,0.13,0.94,0.4c0.26,0.26,0.39,0.58,0.39,0.96c0,0.37-0.13,0.69-0.39,0.95
		c-0.26,0.26-0.57,0.39-0.93,0.39c-0.37,0-0.69-0.13-0.95-0.4c-0.26-0.27-0.39-0.59-0.39-0.97c0-0.37,0.13-0.68,0.39-0.94
		C225.92,578.65,226.23,578.52,226.59,578.52z M225.55,581.93h2.08v8.29h-2.08V581.93z"/>
	<path class="st2" d="M233.42,581.72c0.78,0,1.52,0.2,2.21,0.59c0.69,0.39,1.23,0.92,1.61,1.59c0.39,0.67,0.58,1.4,0.58,2.17
		c0,0.78-0.2,1.52-0.58,2.2c-0.39,0.68-0.92,1.21-1.59,1.6c-0.67,0.38-1.41,0.58-2.22,0.58c-1.19,0-2.2-0.42-3.05-1.27
		c-0.84-0.85-1.26-1.87-1.26-3.09c0-1.3,0.48-2.38,1.43-3.24C231.38,582.1,232.34,581.72,233.42,581.72z M233.45,583.68
		c-0.65,0-1.19,0.22-1.62,0.67c-0.43,0.45-0.65,1.03-0.65,1.73c0,0.72,0.21,1.31,0.64,1.75c0.43,0.45,0.96,0.67,1.62,0.67
		c0.65,0,1.19-0.23,1.63-0.68c0.43-0.45,0.65-1.03,0.65-1.75c0-0.71-0.21-1.29-0.64-1.73C234.66,583.9,234.11,583.68,233.45,583.68z
		"/>
	<path class="st2" d="M239.52,581.93h2.08v0.85c0.47-0.4,0.9-0.67,1.28-0.83c0.38-0.15,0.78-0.23,1.18-0.23
		c0.82,0,1.52,0.29,2.09,0.86c0.48,0.49,0.72,1.21,0.72,2.16v5.48h-2.06v-3.63c0-0.99-0.04-1.65-0.13-1.97
		c-0.09-0.33-0.24-0.57-0.46-0.74s-0.49-0.25-0.82-0.25c-0.42,0-0.78,0.14-1.08,0.42c-0.3,0.28-0.51,0.67-0.63,1.17
		c-0.06,0.26-0.09,0.82-0.09,1.68v3.33h-2.08V581.93z"/>
	<path class="st2" d="M259.38,581.93h2.08v8.29h-2.08v-0.88c-0.41,0.39-0.81,0.66-1.22,0.83c-0.41,0.17-0.85,0.25-1.33,0.25
		c-1.07,0-2-0.42-2.78-1.25c-0.78-0.83-1.17-1.86-1.17-3.1c0-1.28,0.38-2.33,1.13-3.15c0.76-0.82,1.68-1.23,2.76-1.23
		c0.5,0,0.96,0.1,1.4,0.28c0.44,0.19,0.84,0.47,1.21,0.85V581.93z M257.19,583.64c-0.64,0-1.18,0.23-1.6,0.68
		c-0.43,0.45-0.64,1.04-0.64,1.75c0,0.72,0.22,1.31,0.65,1.77c0.43,0.46,0.97,0.69,1.6,0.69c0.65,0,1.2-0.23,1.63-0.68
		c0.43-0.45,0.65-1.05,0.65-1.79c0-0.72-0.22-1.31-0.65-1.75C258.39,583.86,257.85,583.64,257.19,583.64z"/>
	<path class="st2" d="M263.56,581.93h2.08v0.85c0.47-0.4,0.9-0.67,1.28-0.83c0.38-0.15,0.78-0.23,1.18-0.23
		c0.82,0,1.52,0.29,2.09,0.86c0.48,0.49,0.72,1.21,0.72,2.16v5.48h-2.06v-3.63c0-0.99-0.04-1.65-0.13-1.97
		c-0.09-0.33-0.24-0.57-0.46-0.74s-0.49-0.25-0.82-0.25c-0.42,0-0.78,0.14-1.08,0.42c-0.3,0.28-0.51,0.67-0.63,1.17
		c-0.06,0.26-0.09,0.82-0.09,1.68v3.33h-2.08V581.93z"/>
	<path class="st2" d="M279.05,578.73h2.08v11.5h-2.08v-0.88c-0.41,0.39-0.81,0.66-1.22,0.83c-0.41,0.17-0.85,0.25-1.33,0.25
		c-1.07,0-2-0.42-2.78-1.25c-0.78-0.83-1.17-1.86-1.17-3.1c0-1.28,0.38-2.33,1.13-3.15c0.76-0.82,1.68-1.23,2.76-1.23
		c0.5,0,0.96,0.1,1.4,0.28c0.44,0.19,0.84,0.47,1.21,0.85V578.73z M276.87,583.64c-0.64,0-1.18,0.23-1.6,0.68
		c-0.43,0.45-0.64,1.04-0.64,1.75c0,0.72,0.22,1.31,0.65,1.77c0.43,0.46,0.97,0.69,1.6,0.69c0.65,0,1.2-0.23,1.63-0.68
		c0.43-0.45,0.65-1.05,0.65-1.79c0-0.72-0.22-1.31-0.65-1.75C278.07,583.86,277.52,583.64,276.87,583.64z"/>
	<path class="st2" d="M287.68,579.01h2.12v11.22h-2.12V579.01z"/>
	<path class="st2" d="M291.98,581.93h2.08v0.85c0.47-0.4,0.9-0.67,1.28-0.83c0.38-0.15,0.78-0.23,1.18-0.23
		c0.82,0,1.52,0.29,2.09,0.86c0.48,0.49,0.72,1.21,0.72,2.16v5.48h-2.06v-3.63c0-0.99-0.04-1.65-0.13-1.97
		c-0.09-0.33-0.24-0.57-0.46-0.74s-0.49-0.25-0.82-0.25c-0.42,0-0.78,0.14-1.08,0.42c-0.3,0.28-0.51,0.67-0.63,1.17
		c-0.06,0.26-0.09,0.82-0.09,1.68v3.33h-2.08V581.93z"/>
	<path class="st2" d="M301.6,578.88h2.08v3.06h1.24v1.79h-1.24v6.5h-2.08v-6.5h-1.07v-1.79h1.07V578.88z"/>
	<path class="st2" d="M314.34,586.68h-6.69c0.1,0.59,0.35,1.06,0.77,1.41c0.42,0.35,0.95,0.52,1.61,0.52c0.78,0,1.45-0.27,2.01-0.82
		l1.75,0.82c-0.44,0.62-0.96,1.08-1.57,1.37c-0.61,0.3-1.33,0.45-2.17,0.45c-1.3,0-2.36-0.41-3.18-1.23
		c-0.82-0.82-1.23-1.85-1.23-3.08c0-1.27,0.41-2.32,1.22-3.15c0.82-0.83,1.84-1.25,3.07-1.25c1.31,0,2.37,0.42,3.19,1.25
		c0.82,0.84,1.23,1.94,1.23,3.31L314.34,586.68z M312.25,585.04c-0.14-0.46-0.41-0.84-0.81-1.13c-0.4-0.29-0.87-0.43-1.41-0.43
		c-0.58,0-1.09,0.16-1.53,0.49c-0.28,0.2-0.53,0.56-0.76,1.07H312.25z"/>
	<path class="st2" d="M315.79,578.73h2.08v11.5h-2.08V578.73z"/>
	<path class="st2" d="M319.54,578.73h2.08v11.5h-2.08V578.73z"/>
	<path class="st2" d="M324.32,578.52c0.37,0,0.68,0.13,0.94,0.4c0.26,0.26,0.39,0.58,0.39,0.96c0,0.37-0.13,0.69-0.39,0.95
		c-0.26,0.26-0.57,0.39-0.93,0.39c-0.37,0-0.69-0.13-0.95-0.4c-0.26-0.27-0.39-0.59-0.39-0.97c0-0.37,0.13-0.68,0.39-0.94
		C323.64,578.65,323.96,578.52,324.32,578.52z M323.28,581.93h2.08v8.29h-2.08V581.93z"/>
	<path class="st2" d="M333.38,581.93h2.07v7.1c0,1.4-0.28,2.43-0.85,3.09c-0.76,0.89-1.9,1.34-3.42,1.34c-0.81,0-1.5-0.1-2.05-0.31
		c-0.55-0.2-1.02-0.5-1.4-0.89c-0.38-0.39-0.66-0.87-0.85-1.44h2.29c0.2,0.23,0.47,0.41,0.79,0.53c0.32,0.12,0.7,0.18,1.13,0.18
		c0.56,0,1.01-0.09,1.35-0.26c0.34-0.17,0.58-0.4,0.72-0.67c0.14-0.27,0.21-0.75,0.21-1.42c-0.37,0.37-0.75,0.63-1.15,0.79
		c-0.4,0.16-0.86,0.24-1.36,0.24c-1.11,0-2.05-0.4-2.82-1.21c-0.77-0.8-1.15-1.82-1.15-3.05c0-1.32,0.41-2.37,1.22-3.17
		c0.74-0.72,1.62-1.08,2.64-1.08c0.48,0,0.93,0.09,1.35,0.26c0.42,0.18,0.85,0.46,1.28,0.87V581.93z M331.22,583.66
		c-0.66,0-1.2,0.22-1.62,0.66c-0.43,0.44-0.64,0.99-0.64,1.66c0,0.69,0.22,1.26,0.66,1.7c0.44,0.44,0.99,0.66,1.65,0.66
		c0.64,0,1.18-0.22,1.6-0.65c0.42-0.43,0.63-1,0.63-1.7c0-0.69-0.21-1.25-0.63-1.69C332.43,583.88,331.89,583.66,331.22,583.66z"/>
	<path class="st2" d="M345.87,586.68h-6.69c0.1,0.59,0.35,1.06,0.77,1.41s0.95,0.52,1.61,0.52c0.78,0,1.45-0.27,2.01-0.82l1.75,0.82
		c-0.44,0.62-0.96,1.08-1.57,1.37c-0.61,0.3-1.33,0.45-2.17,0.45c-1.3,0-2.36-0.41-3.18-1.23c-0.82-0.82-1.23-1.85-1.23-3.08
		c0-1.27,0.41-2.32,1.23-3.15c0.82-0.83,1.84-1.25,3.07-1.25c1.31,0,2.37,0.42,3.19,1.25c0.82,0.84,1.23,1.94,1.23,3.31
		L345.87,586.68z M343.79,585.04c-0.14-0.46-0.41-0.84-0.81-1.13c-0.4-0.29-0.87-0.43-1.41-0.43c-0.58,0-1.09,0.16-1.53,0.49
		c-0.28,0.2-0.53,0.56-0.76,1.07H343.79z"/>
	<path class="st2" d="M347.55,581.93h2.08v0.85c0.47-0.4,0.9-0.67,1.28-0.83c0.38-0.15,0.78-0.23,1.18-0.23
		c0.82,0,1.52,0.29,2.09,0.86c0.48,0.49,0.72,1.21,0.72,2.16v5.48h-2.06v-3.63c0-0.99-0.05-1.65-0.13-1.97
		c-0.09-0.33-0.24-0.57-0.46-0.74c-0.22-0.17-0.49-0.25-0.82-0.25c-0.42,0-0.78,0.14-1.08,0.42c-0.3,0.28-0.51,0.67-0.63,1.17
		c-0.06,0.26-0.09,0.82-0.09,1.68v3.33h-2.08V581.93z"/>
	<path class="st2" d="M357.17,578.88h2.08v3.06h1.23v1.79h-1.23v6.5h-2.08v-6.5h-1.07v-1.79h1.07V578.88z"/>
	<path class="st2" d="M376.51,580.98l-1.49,1.42c-1.02-1.07-2.16-1.61-3.43-1.61c-1.07,0-1.97,0.37-2.71,1.1
		c-0.73,0.73-1.1,1.63-1.1,2.71c0,0.75,0.16,1.41,0.49,1.99s0.78,1.04,1.38,1.37c0.59,0.33,1.26,0.49,1.98,0.49
		c0.62,0,1.19-0.11,1.7-0.35c0.51-0.23,1.08-0.65,1.69-1.26l1.45,1.51c-0.83,0.81-1.61,1.37-2.35,1.68s-1.58,0.47-2.52,0.47
		c-1.74,0-3.17-0.55-4.28-1.66c-1.11-1.11-1.67-2.52-1.67-4.25c0-1.12,0.25-2.11,0.76-2.98c0.51-0.87,1.23-1.57,2.17-2.1
		s1.96-0.79,3.05-0.79c0.92,0,1.81,0.2,2.67,0.59C375.15,579.71,375.89,580.26,376.51,580.98z"/>
	<path class="st2" d="M382.04,581.72c0.78,0,1.52,0.2,2.21,0.59c0.69,0.39,1.23,0.92,1.61,1.59c0.39,0.67,0.58,1.4,0.58,2.17
		c0,0.78-0.2,1.52-0.58,2.2c-0.39,0.68-0.92,1.21-1.59,1.6s-1.41,0.58-2.22,0.58c-1.19,0-2.2-0.42-3.04-1.27
		c-0.84-0.85-1.26-1.87-1.26-3.09c0-1.3,0.48-2.38,1.43-3.24C380,582.1,380.96,581.72,382.04,581.72z M382.08,583.68
		c-0.65,0-1.18,0.22-1.62,0.67s-0.64,1.03-0.64,1.73c0,0.72,0.21,1.31,0.64,1.75c0.43,0.45,0.96,0.67,1.62,0.67s1.19-0.23,1.63-0.68
		c0.43-0.45,0.65-1.03,0.65-1.75c0-0.71-0.21-1.29-0.64-1.73C383.28,583.9,382.74,583.68,382.08,583.68z"/>
	<path class="st2" d="M388.13,581.93h2.08v0.95c0.36-0.39,0.75-0.68,1.19-0.88c0.43-0.19,0.91-0.29,1.42-0.29
		c0.52,0,0.99,0.13,1.4,0.38c0.42,0.25,0.75,0.63,1.01,1.11c0.33-0.49,0.74-0.86,1.22-1.11c0.48-0.25,1.01-0.38,1.57-0.38
		c0.59,0,1.11,0.14,1.56,0.41c0.45,0.27,0.77,0.63,0.97,1.08c0.2,0.44,0.29,1.16,0.29,2.16v4.86h-2.1v-4.21
		c0-0.94-0.12-1.58-0.35-1.91c-0.23-0.33-0.59-0.5-1.05-0.5c-0.36,0-0.68,0.1-0.96,0.3c-0.28,0.2-0.49,0.49-0.63,0.84
		c-0.14,0.36-0.21,0.93-0.21,1.73v3.74h-2.1v-4.02c0-0.74-0.05-1.28-0.16-1.61c-0.11-0.33-0.27-0.58-0.49-0.74
		c-0.22-0.16-0.48-0.25-0.79-0.25c-0.35,0-0.66,0.1-0.94,0.31c-0.28,0.21-0.49,0.49-0.63,0.87c-0.14,0.37-0.21,0.96-0.21,1.75v3.69
		h-2.08V581.93z"/>
	<path class="st2" d="M404.88,581.93v0.91c0.38-0.38,0.78-0.66,1.22-0.85c0.44-0.19,0.9-0.28,1.4-0.28c1.08,0,2,0.41,2.76,1.23
		c0.76,0.82,1.13,1.87,1.13,3.15c0,1.23-0.39,2.27-1.17,3.1c-0.78,0.83-1.71,1.25-2.78,1.25c-0.48,0-0.92-0.09-1.33-0.25
		c-0.41-0.17-0.82-0.45-1.23-0.83v3.91h-2.06v-11.33H404.88z M407.07,583.64c-0.66,0-1.2,0.22-1.63,0.67
		c-0.43,0.45-0.65,1.03-0.65,1.75c0,0.74,0.22,1.33,0.65,1.79c0.43,0.46,0.98,0.68,1.63,0.68c0.64,0,1.17-0.23,1.61-0.69
		c0.43-0.46,0.65-1.05,0.65-1.77c0-0.71-0.21-1.29-0.64-1.75C408.26,583.87,407.72,583.64,407.07,583.64z"/>
	<path class="st2" d="M413.12,581.93h2.1v3.99c0,0.78,0.05,1.32,0.16,1.62c0.11,0.3,0.28,0.54,0.52,0.71
		c0.24,0.17,0.53,0.25,0.88,0.25c0.35,0,0.64-0.08,0.88-0.25c0.24-0.16,0.42-0.41,0.54-0.73c0.09-0.24,0.13-0.75,0.13-1.53v-4.06
		h2.08v3.51c0,1.45-0.11,2.44-0.34,2.97c-0.28,0.65-0.69,1.15-1.23,1.5c-0.54,0.35-1.24,0.52-2.07,0.52c-0.91,0-1.65-0.2-2.21-0.61
		c-0.56-0.41-0.96-0.97-1.19-1.7c-0.16-0.5-0.24-1.42-0.24-2.74V581.93z"/>
	<path class="st2" d="M422.75,578.88h2.08v3.06h1.23v1.79h-1.23v6.5h-2.08v-6.5h-1.07v-1.79h1.07V578.88z"/>
	<path class="st2" d="M427.99,578.52c0.37,0,0.68,0.13,0.94,0.4c0.26,0.26,0.39,0.58,0.39,0.96c0,0.37-0.13,0.69-0.39,0.95
		c-0.26,0.26-0.57,0.39-0.93,0.39c-0.37,0-0.69-0.13-0.95-0.4c-0.26-0.27-0.39-0.59-0.39-0.97c0-0.37,0.13-0.68,0.39-0.94
		C427.31,578.65,427.62,578.52,427.99,578.52z M426.95,581.93h2.08v8.29h-2.08V581.93z"/>
	<path class="st2" d="M430.92,581.93H433v0.85c0.47-0.4,0.9-0.67,1.28-0.83c0.38-0.15,0.78-0.23,1.18-0.23
		c0.82,0,1.52,0.29,2.09,0.86c0.48,0.49,0.72,1.21,0.72,2.16v5.48h-2.06v-3.63c0-0.99-0.05-1.65-0.13-1.97
		c-0.09-0.33-0.24-0.57-0.46-0.74c-0.22-0.17-0.49-0.25-0.82-0.25c-0.42,0-0.78,0.14-1.08,0.42c-0.3,0.28-0.51,0.67-0.63,1.17
		c-0.06,0.26-0.09,0.82-0.09,1.68v3.33h-2.08V581.93z"/>
	<path class="st2" d="M446.42,581.93h2.07v7.1c0,1.4-0.28,2.43-0.85,3.09c-0.76,0.89-1.9,1.34-3.42,1.34c-0.81,0-1.5-0.1-2.05-0.31
		c-0.55-0.2-1.02-0.5-1.4-0.89c-0.38-0.39-0.66-0.87-0.85-1.44h2.29c0.2,0.23,0.47,0.41,0.79,0.53c0.32,0.12,0.7,0.18,1.13,0.18
		c0.56,0,1.01-0.09,1.35-0.26c0.34-0.17,0.58-0.4,0.72-0.67c0.14-0.27,0.21-0.75,0.21-1.42c-0.37,0.37-0.75,0.63-1.15,0.79
		c-0.4,0.16-0.86,0.24-1.36,0.24c-1.11,0-2.05-0.4-2.82-1.21c-0.77-0.8-1.15-1.82-1.15-3.05c0-1.32,0.41-2.37,1.22-3.17
		c0.74-0.72,1.62-1.08,2.64-1.08c0.48,0,0.93,0.09,1.35,0.26c0.42,0.18,0.85,0.46,1.28,0.87V581.93z M444.26,583.66
		c-0.66,0-1.2,0.22-1.62,0.66c-0.43,0.44-0.64,0.99-0.64,1.66c0,0.69,0.22,1.26,0.66,1.7c0.44,0.44,0.99,0.66,1.65,0.66
		c0.64,0,1.18-0.22,1.6-0.65c0.42-0.43,0.63-1,0.63-1.7c0-0.69-0.21-1.25-0.63-1.69C445.47,583.88,444.93,583.66,444.26,583.66z"/>
	<path class="st2" d="M455.19,579.01h2.13v9.18h3.11v2.04h-5.24V579.01z"/>
	<path class="st2" d="M467.95,581.93h2.08v8.29h-2.08v-0.88c-0.41,0.39-0.81,0.66-1.22,0.83c-0.41,0.17-0.85,0.25-1.33,0.25
		c-1.07,0-2-0.42-2.78-1.25c-0.78-0.83-1.17-1.86-1.17-3.1c0-1.28,0.38-2.33,1.13-3.15c0.76-0.82,1.67-1.23,2.76-1.23
		c0.5,0,0.97,0.1,1.4,0.28c0.44,0.19,0.84,0.47,1.21,0.85V581.93z M465.76,583.64c-0.64,0-1.18,0.23-1.6,0.68
		c-0.43,0.45-0.64,1.04-0.64,1.75c0,0.72,0.22,1.31,0.65,1.77c0.43,0.46,0.97,0.69,1.6,0.69c0.65,0,1.2-0.23,1.63-0.68
		c0.43-0.45,0.65-1.05,0.65-1.79c0-0.72-0.22-1.31-0.65-1.75C466.97,583.86,466.42,583.64,465.76,583.64z"/>
	<path class="st2" d="M474.2,578.73v4.12c0.38-0.38,0.78-0.66,1.22-0.85c0.44-0.19,0.9-0.28,1.4-0.28c1.08,0,2,0.41,2.76,1.23
		c0.76,0.82,1.13,1.87,1.13,3.15c0,1.23-0.39,2.27-1.17,3.1c-0.78,0.83-1.71,1.25-2.78,1.25c-0.48,0-0.92-0.09-1.33-0.25
		c-0.41-0.17-0.82-0.45-1.23-0.83v0.88h-2.06v-11.5H474.2z M476.39,583.64c-0.66,0-1.2,0.22-1.63,0.67
		c-0.43,0.45-0.65,1.03-0.65,1.75c0,0.74,0.22,1.33,0.65,1.79c0.43,0.46,0.98,0.68,1.63,0.68c0.64,0,1.17-0.23,1.61-0.69
		c0.43-0.46,0.65-1.05,0.65-1.77c0-0.71-0.21-1.29-0.64-1.75C477.58,583.87,477.04,583.64,476.39,583.64z"/>
</g>
<g>
	<path class="st2" d="M147.65,505.55h11.72l14.65,44.07l14.78-44.07h11.71l10.6,63.19h-11.63l-6.78-39.91l-13.42,39.91h-10.6
		l-13.31-39.91l-6.94,39.91H136.7L147.65,505.55z"/>
	<path class="st2" d="M266.22,548.77h-37.67c0.54,3.32,2,5.97,4.36,7.93c2.36,1.96,5.38,2.94,9.04,2.94c4.38,0,8.15-1.53,11.3-4.6
		l9.88,4.64c-2.46,3.49-5.41,6.08-8.85,7.75c-3.44,1.68-7.52,2.51-12.24,2.51c-7.33,0-13.3-2.31-17.91-6.94
		c-4.61-4.62-6.92-10.42-6.92-17.38c0-7.13,2.3-13.05,6.89-17.76c4.6-4.71,10.36-7.07,17.29-7.07c7.36,0,13.35,2.36,17.96,7.07
		c4.61,4.71,6.92,10.93,6.92,18.67L266.22,548.77z M254.49,539.53c-0.77-2.6-2.3-4.73-4.58-6.36c-2.28-1.63-4.93-2.45-7.94-2.45
		c-3.27,0-6.14,0.92-8.61,2.75c-1.55,1.15-2.98,3.17-4.3,6.06H254.49z"/>
	<path class="st2" d="M310.21,503.96h11.73v64.78h-11.73v-4.94c-2.29,2.18-4.58,3.74-6.89,4.7c-2.3,0.96-4.8,1.44-7.49,1.44
		c-6.04,0-11.26-2.34-15.66-7.02c-4.41-4.68-6.61-10.5-6.61-17.46c0-7.22,2.13-13.13,6.39-17.74c4.26-4.61,9.44-6.92,15.53-6.92
		c2.8,0,5.43,0.53,7.89,1.59c2.46,1.06,4.73,2.65,6.82,4.77V503.96z M297.88,531.63c-3.63,0-6.64,1.28-9.03,3.85
		c-2.4,2.56-3.6,5.85-3.6,9.86c0,4.04,1.22,7.36,3.66,9.97c2.44,2.61,5.44,3.91,9.01,3.91c3.68,0,6.74-1.28,9.16-3.84
		c2.43-2.56,3.64-5.92,3.64-10.07c0-4.07-1.21-7.36-3.64-9.88C304.66,532.89,301.59,531.63,297.88,531.63z"/>
	<path class="st2" d="M330.29,505.55h12.37l15.9,44.89l16.13-44.89h12.35l-22.77,63.19h-11.6L330.29,505.55z"/>
	<path class="st2" d="M395.83,505.55h11.94v63.19h-11.94V505.55z"/>
	<path class="st2" d="M479.38,516.66l-8.41,8.02c-5.72-6.05-12.16-9.07-19.31-9.07c-6.04,0-11.12,2.06-15.26,6.19
		c-4.14,4.13-6.2,9.22-6.2,15.27c0,4.21,0.92,7.95,2.75,11.22c1.83,3.27,4.42,5.83,7.77,7.7c3.35,1.86,7.07,2.79,11.16,2.79
		c3.49,0,6.68-0.65,9.57-1.96c2.89-1.3,6.07-3.68,9.53-7.12l8.16,8.51c-4.67,4.56-9.08,7.72-13.23,9.48
		c-4.15,1.76-8.89,2.64-14.22,2.64c-9.82,0-17.87-3.11-24.12-9.34c-6.26-6.23-9.38-14.21-9.38-23.95c0-6.3,1.42-11.9,4.27-16.8
		c2.85-4.9,6.93-8.83,12.24-11.81c5.31-2.98,11.03-4.47,17.16-4.47c5.21,0,10.23,1.1,15.06,3.3
		C471.72,509.47,475.88,512.6,479.38,516.66z"/>
</g>
<g>
	<path class="st2" d="M298.06,305.47c1.54-0.76,2.97-1.74,4.49-2.5c1.74-0.88,3.65-1.44,5.51-2.02c6.56-2.06,13.24-2.5,20-1.18
		c0.19,0.04,0.42,0,0.6,0.36c-7.58-0.11-14.73,1.45-21.45,4.85c0,0-0.02,0.03-0.02,0.03l0.03-0.04c2.75-0.66,5.45-1.54,8.28-1.87
		c6.23-0.73,12.35-0.27,18.31,1.73c1.92,0.65,3.87,1.29,5.61,2.44c-7.06-1.97-14.16-2.41-21.37-0.85
		c11.25-0.27,21.21,3.05,29.66,10.58c-6.36-3.69-13.15-5.94-20.53-6.28c9.47,2.12,17.39,6.81,23.65,14.25
		c0.58,0.69,1.19,1.37,1.56,2.2c-0.08,0.08-0.17,0.16-0.25,0.25c-4.46-4.16-9.43-7.52-15.16-9.69c-0.49-0.19-0.97-0.48-1.53-0.36
		c-0.06-0.32-0.31-0.22-0.51-0.24c-0.06-0.03-0.13-0.05-0.19-0.08c0.07,0.02,0.14,0.04,0.21,0.06c0.09,0.25,0.3,0.24,0.5,0.25
		c2.84,1.73,5.68,3.45,8.2,5.66c5.67,4.96,9.77,10.97,12.17,18.12c0.05,0.15,0.08,0.31,0.11,0.47c0,0.03-0.03,0.06-0.09,0.18
		c-1.6-3.04-3.47-5.84-5.69-8.4c-2.11-2.44-4.48-4.61-7.06-6.53c-0.35-0.26-0.65-0.78-1.24-0.54c0.14-0.28-0.04-0.28-0.23-0.26
		c0.06-0.14,0.03-0.21-0.14-0.16c0.05,0.05,0.1,0.09,0.15,0.14c0.08,0.09,0.16,0.17,0.24,0.26c7.9,7.65,12.29,16.93,13.14,28.01
		c-0.48-0.39-0.41-0.89-0.54-1.31c-0.14-0.43-0.28-0.86-0.4-1.3c-1.72-5.85-4.58-11.1-8.48-15.78c-0.1-0.12-0.26-0.19-0.39-0.29
		c-0.11-0.15-0.21-0.3-0.32-0.45c-0.05-0.05-0.08-0.26-0.18-0.03c0.07,0,0.13,0.01,0.2,0.01c-0.11,0.25-0.04,0.43,0.21,0.54
		c1.36,2.57,2.81,5.1,3.82,7.85c1.65,4.49,2.72,9.11,2.57,13.87c-0.1,3.18-0.01,6.43-1.04,9.53c0.11-5.02-0.41-9.95-1.9-14.75
		c-0.7-2.27-1.41-4.55-2.71-6.58c-0.02-0.04-0.03-0.07-0.05-0.1c-0.02-0.03-0.04-0.07-0.06-0.1c0.04,0.06,0.08,0.13,0.13,0.19
		c0.62,2.56,1.33,5.1,1.65,7.73c0.75,6.07,0.24,12.02-1.67,17.83c-0.69,2.09-1.37,4.2-2.6,6.09c2.01-7.03,2.5-14.13,0.96-21.34
		c0.15,10.76-2.85,20.4-10.02,28.56c3.36-6.14,5.32-12.67,5.79-19.92c-0.59,2.04-1.07,3.84-1.65,5.62c-0.6,1.85-1.41,3.61-2.29,5.33
		c-2.99,5.82-7.11,10.68-12.42,14.52c-0.3,0.22-0.55,0.67-1.05,0.39l0.02,0.01c2.76-2.96,5.34-6.05,7.34-9.59
		c1.33-2.36,2.49-4.79,3.24-7.44c-5.26,9.27-12.63,16.02-22.63,19.68c-0.09-0.12-0.18-0.23-0.28-0.35c0.61-0.38,1.21-0.75,1.82-1.13
		c4.63-2.89,8.48-6.62,11.76-10.96c0.2-0.26,0.33-0.56,0.5-0.85c0.18-0.14,0.28-0.31,0.2-0.54c0.1,0.03,0.21,0.07,0.16-0.12
		c-0.05,0.05-0.09,0.09-0.14,0.14c-0.17,0.14-0.36,0.28-0.19,0.54c-1.32,0.45-2.14,1.61-3.04,2.51c-2.02,2.04-4.41,3.48-6.83,4.89
		c-5.38,3.15-11.24,4.87-17.45,5.38c-0.34,0.03-0.69,0-1.04-0.05c4-1.03,7.87-2.4,11.48-4.41c2.95-1.64,5.77-3.47,8.15-5.9
		c0.03-0.02,0.05-0.04,0.08-0.06c0.03-0.02,0.06-0.03,0.09-0.05c-0.05,0.04-0.1,0.08-0.15,0.12c-2.77,1.54-5.49,3.14-8.48,4.24
		c-6.54,2.4-13.24,3.29-20.16,2.27c-0.77-0.11-1.58,0.02-2.32-0.49c7.04-0.22,13.82-1.47,20.14-4.72
		c-10.78,3.16-21.23,2.44-31.31-2.6c3.08,0.73,6.18,1.39,9.34,1.66c4.01,0.34,7.99,0.05,11.94-0.68c0.11-0.02,0.19-0.13,0.29-0.21
		c0.07-0.03,0.14-0.07,0.2-0.1c-0.06,0.04-0.12,0.08-0.19,0.12c-3.76-0.03-7.5-0.14-11.19-0.96c-6.51-1.45-12.38-4.22-17.54-8.46
		c-0.21-0.17-0.51-0.3-0.52-0.86c3.15,1.7,6.28,3.2,9.62,4.22c3.32,1.01,6.69,1.68,10.16,1.8c-10.3-2.42-18.75-7.68-25.04-16.27
		c-0.22-0.3-0.67-0.53-0.4-1.03l-0.01,0.02c0.98,0.87,1.97,1.74,2.95,2.62c3.83,3.39,8.19,5.88,12.96,7.69
		c0.11,0.04,0.23,0.08,0.35,0.1c0.07,0.01,0.16-0.04,0.47-0.12c-9.76-5.53-16.5-13.38-19.89-23.98c1.8,3.14,3.82,6.15,6.24,8.86
		c2.45,2.74,5.2,5.13,8.33,7.12c-8.31-7.85-12.88-17.44-13.59-28.85c1.76,6.98,4.8,13.31,9.65,18.76c-5.51-9.5-7.52-19.58-5.29-30.4
		c0.1,7.13,1.37,13.98,4.65,20.4c-3.16-10.81-2.4-21.27,2.66-31.37c-1.96,7.01-2.43,14.09-0.9,21.26c0.11-2.62,0.13-5.25,0.52-7.85
		c0.39-2.62,0.99-5.18,1.84-7.69c0.86-2.54,1.95-4.99,3.33-7.3c1.35-2.27,2.81-4.46,4.74-6.33c-1.6,3.16-3.16,6.33-4.22,9.72
		c-1.08,3.42-1.75,6.91-1.86,10.51c0.71-2.83,1.51-5.63,2.72-8.29c1.22-2.71,2.65-5.31,4.41-7.72c2.57-3.53,5.6-6.6,9.15-9.14
		c0.29-0.21,0.52-0.7,1.03-0.38l-0.02-0.01c-1.79,2.09-3.71,4.06-5.27,6.35c-2.18,3.18-3.95,6.56-5.16,10.29
		c2.84-4.54,6.03-8.78,10.2-12.19c4.14-3.39,8.71-5.97,13.84-7.55c-4.14,2.37-7.96,5.15-11.24,8.61c-1.67,1.76-3.24,3.6-4.48,5.75
		c7.73-8.17,17.19-12.65,28.42-13.32c-1.39,0.43-2.78,0.84-4.16,1.29c-4.74,1.56-9.07,3.91-12.99,6.98
		c-0.54,0.42-1.14,0.8-1.51,1.41c-0.15,0.1-0.31,0.2-0.46,0.3c-0.05,0.06-0.26,0.09-0.02,0.18c0-0.07,0-0.13,0-0.2
		C297.78,305.8,297.95,305.73,298.06,305.47z M272.3,362.92l-0.03-0.01l0.04,0.02l0.03,0.04
		C272.34,362.96,272.3,362.92,272.3,362.92z M343.19,344.09c0.04-20.48-16.7-36.71-36.59-36.7c-20.7,0.01-36.9,16.41-36.85,37.26
		c0.05,19.99,16.67,36.22,37.05,36.18C326.85,380.78,343.24,364.23,343.19,344.09z"/>
</g>
<g>
	<g>
		<path class="st0" d="M282.23,300.12c0.21-0.24,0.37-0.44,0.54-0.63c4.68-5.22,5.57-13.05,2.16-19.02
			c-3.61-6.3-10.68-9.56-17.69-8.08c-10.44,2.21-16.46,13.6-11.01,23.98c3.65,6.96,11.8,10.09,19.38,7.72
			c0.55-0.17,0.8-0.08,1.1,0.4c2.64,4.15,5.31,8.28,7.97,12.42c1.14,1.77,2.28,3.55,3.37,5.26c-1.18,1.21-2.36,2.3-3.4,3.52
			c-3.97,4.65-6.27,10.04-6.84,16.13c-0.05,0.54-0.25,0.66-0.76,0.68c-4.79,0.2-9.58,0.42-14.37,0.67c-0.59,0.03-0.87-0.1-1.12-0.69
			c-2.42-5.61-8.93-8.38-14.69-6.3c-5.77,2.09-9,8.37-7.31,14.22c1.42,4.93,5.91,8.44,10.92,8.56c5.22,0.12,9.78-3.07,11.5-8.09
			c0.18-0.52,0.39-0.71,0.95-0.73c3.95-0.17,7.9-0.37,11.85-0.57c1.06-0.05,2.13-0.1,3.22-0.15c1.52,8.08,5.6,14.44,12.28,19.16
			c-5.97,11.56-11.93,23.1-17.87,34.63c-12.7-4.1-25.28,2.56-29.72,13.46c-4.5,11.02-0.27,23.7,9.91,29.67
			c10.24,6,23.42,3.57,30.75-5.71c3.65-4.62,5.41-9.9,5.12-15.79c-0.37-7.64-3.75-13.74-9.82-18.41c0.1-0.21,0.19-0.39,0.28-0.57
			c3.6-6.98,7.2-13.96,10.8-20.93c2.16-4.19,4.33-8.38,6.48-12.57c0.23-0.45,0.43-0.53,0.94-0.39c1.79,0.47,3.59,0.91,5.4,1.26
			c3.3,0.64,6.62,0.49,9.87-0.25c2.29-0.52,4.52-1.33,6.9-2.05c14.49,22.57,29.07,45.29,43.77,68.18c-0.29,0.25-0.63,0.46-0.86,0.75
			c-3.67,4.46-4.93,9.53-3.39,15.11c2.48,9,11.66,14.05,20.58,11.3c6.32-1.94,10.18-6.36,11.32-12.81
			c1.16-6.56-1.04-12.07-6.42-16.07c-4.47-3.32-9.5-3.99-14.82-2.37c-0.49,0.15-0.7,0.07-0.96-0.36c-0.79-1.31-1.63-2.58-2.46-3.87
			c-2.22-3.45-4.43-6.91-6.65-10.36c-9.93-15.47-19.86-30.93-29.78-46.4c-1.51-2.36-3.02-4.71-4.54-7.08
			c6.22-5.33,9.63-12.08,10.4-20.17c12.31-0.58,24.56-1.16,36.8-1.73c2.74,12.92,15.25,20.05,26.5,17.99
			c10.79-1.97,18.52-11.16,18.91-21.64c0.45-12.01-8.08-21.42-18.49-23.43c-5.44-1.05-10.64-0.29-15.46,2.44
			c-6.85,3.87-10.68,9.85-11.79,17.61c-12.29,0.58-24.51,1.16-36.79,1.73c-1.52-8.07-5.61-14.44-12.27-19.13
			c1.95-3.76,3.85-7.45,5.76-11.15c2.81-5.44,5.62-10.87,8.41-16.31c0.23-0.44,0.42-0.57,0.93-0.41c5.68,1.79,11.3,1.61,16.87-0.48
			c11.3-4.25,18.21-16.49,15.75-28.24c-1.97-9.39-7.43-15.9-16.55-19.23c-4.21-1.53-8.51-1.83-12.87-1.02
			c-12.77,2.39-21.49,13.61-20.65,26.58c0.42,6.41,2.96,11.91,7.58,16.41c0.94,0.92,1.96,1.75,2.97,2.65
			c-4.81,9.33-9.64,18.67-14.46,28.01c-3.77-1.37-7.55-1.96-11.44-1.78c-3.91,0.18-7.64,1.13-11.22,2.83
			C290.09,312.36,286.18,306.27,282.23,300.12z"/>
		<path class="st0" d="M374.49,467.84c-2.84,0-5.63-0.7-8.16-2.09c-4.08-2.24-7.02-5.99-8.28-10.57
			c-1.58-5.73-0.39-11.07,3.55-15.85c0.13-0.15,0.27-0.29,0.4-0.4l-43.03-67.03c-0.53,0.17-1.06,0.33-1.58,0.5
			c-1.63,0.52-3.17,1.01-4.78,1.38c-3.51,0.8-6.95,0.89-10.21,0.26c-1.61-0.31-3.35-0.71-5.45-1.27c-1.55,3.02-3.06,5.93-4.56,8.84
			l-12.69,24.6c6.01,4.83,9.24,11.08,9.6,18.6c0.29,6.03-1.49,11.52-5.3,16.35c-7.56,9.57-21.24,12.11-31.82,5.91
			c-10.48-6.15-14.89-19.34-10.26-30.69c4.74-11.61,17.84-17.72,30.07-14.14l17.23-33.38c-6.28-4.64-10.28-10.87-11.89-18.55
			l-5.33,0.26c-3.01,0.15-6.03,0.3-9.04,0.43c-0.07,0-0.12,0.01-0.14,0.02c0,0.02-0.03,0.07-0.06,0.16
			c-1.84,5.38-6.65,8.81-12.3,8.65c-5.37-0.12-10.18-3.89-11.7-9.15c-1.82-6.29,1.62-12.98,7.82-15.23
			c6.21-2.25,13.12,0.72,15.73,6.75c0.05,0.12,0.09,0.18,0.1,0.2c0,0,0.03,0,0.09,0c0.03,0,0.07,0,0.12,0
			c4.78-0.24,9.56-0.46,14.34-0.67c0.63-6.27,2.99-11.79,7.04-16.53c0.73-0.85,1.5-1.62,2.32-2.44c0.22-0.22,0.44-0.43,0.66-0.65
			l-4.91-7.65c-2.03-3.16-4.06-6.31-6.07-9.48c-0.02-0.03-0.04-0.06-0.06-0.08c-0.02,0.01-0.06,0.02-0.1,0.03
			c-8.02,2.5-16.58-0.92-20.36-8.13c-2.64-5.04-2.84-10.75-0.53-15.65c2.31-4.91,6.72-8.38,12.1-9.52
			c7.33-1.55,14.78,1.85,18.58,8.47c3.6,6.27,2.67,14.49-2.26,19.98l-0.13,0.15l11.07,17.24c3.48-1.56,7.14-2.43,10.88-2.6
			c3.78-0.17,7.41,0.35,11.07,1.59l13.83-26.8l-0.46-0.4c-0.7-0.61-1.4-1.21-2.05-1.85c-4.76-4.64-7.4-10.34-7.83-16.95
			c-0.88-13.42,8.09-24.96,21.32-27.44c4.56-0.86,9.04-0.5,13.3,1.05c9.28,3.38,15.02,10.05,17.08,19.83
			c2.56,12.19-4.44,24.73-16.27,29.18c-5.73,2.15-11.57,2.33-17.35,0.51c-2.29,4.45-4.52,8.76-6.74,13.07l-7.1,13.74
			c6.28,4.62,10.27,10.85,11.88,18.52l35.41-1.67c1.3-7.83,5.36-13.73,12.1-17.54c4.92-2.78,10.31-3.64,16.02-2.53
			c11.54,2.23,19.6,12.44,19.16,24.27c-0.41,10.99-8.65,20.42-19.59,22.42c-10.7,1.96-24.03-4.36-27.3-17.95l-35.4,1.67
			c-0.91,7.81-4.29,14.37-10.07,19.54l41.23,64.23c0.62,0.95,1.24,1.91,1.82,2.89c5.83-1.72,11.02-0.87,15.57,2.5
			c5.62,4.18,7.95,10.01,6.74,16.87c-1.2,6.78-5.31,11.43-11.89,13.46C377.96,467.58,376.22,467.84,374.49,467.84z M319.7,369.95
			l44.49,69.31l-0.55,0.47c-0.1,0.09-0.21,0.17-0.32,0.26c-0.17,0.13-0.34,0.26-0.44,0.39c-3.57,4.35-4.66,9.18-3.23,14.37
			c1.14,4.14,3.8,7.54,7.49,9.56c3.67,2.02,7.96,2.44,12.06,1.18c6.03-1.86,9.65-5.95,10.75-12.17c1.11-6.3-0.94-11.43-6.1-15.26
			c-4.14-3.07-8.88-3.83-14.09-2.25c-0.85,0.26-1.46,0.03-1.91-0.72c-0.58-0.96-1.19-1.91-1.8-2.85l-42-65.44l0.55-0.47
			c5.95-5.1,9.36-11.7,10.12-19.63l0.07-0.71l38.22-1.8l0.15,0.69c2.78,13.1,15.43,19.2,25.54,17.35
			c10.18-1.86,17.85-10.63,18.23-20.86c0.41-11.02-7.08-20.52-17.82-22.59c-5.32-1.03-10.33-0.24-14.9,2.35
			c-6.46,3.65-10.28,9.38-11.38,17.01l-0.1,0.68l-38.19,1.8l-0.13-0.71c-1.47-7.8-5.49-14.06-11.94-18.61l-0.59-0.41l7.75-15.01
			c2.25-4.36,4.5-8.72,6.74-13.08c0.16-0.3,0.62-1.23,1.91-0.82c5.44,1.72,10.93,1.56,16.33-0.47
			c10.89-4.09,17.59-16.08,15.23-27.29c-1.93-9.19-7.32-15.45-16.02-18.62c-3.98-1.45-8.16-1.78-12.44-0.98
			c-12.4,2.32-20.79,13.14-19.97,25.71c0.4,6.18,2.87,11.53,7.33,15.87c0.63,0.62,1.31,1.2,1.98,1.78l1.44,1.26l-15.09,29.22
			l-0.68-0.25c-3.69-1.34-7.33-1.91-11.12-1.73c-3.76,0.17-7.43,1.1-10.91,2.75l-0.66,0.31l-12.51-19.49l0.96-1.1
			c4.46-4.97,5.3-12.39,2.06-18.05c-3.44-6-10.19-9.08-16.8-7.68c-4.88,1.03-8.87,4.17-10.95,8.61c-2.08,4.43-1.9,9.6,0.5,14.18
			c3.41,6.5,11.15,9.58,18.41,7.32c0.9-0.28,1.54-0.05,2.04,0.74c2.01,3.16,4.04,6.32,6.07,9.47l5.62,8.76l-0.46,0.47
			c-0.38,0.39-0.76,0.77-1.14,1.14c-0.8,0.79-1.55,1.53-2.23,2.34c-3.86,4.52-6.1,9.79-6.65,15.68c-0.13,1.37-1.19,1.41-1.54,1.43
			c-4.79,0.2-9.58,0.42-14.36,0.67c-0.96,0.05-1.54-0.31-1.92-1.19c-2.26-5.23-8.25-7.8-13.65-5.85c-5.39,1.95-8.37,7.76-6.79,13.22
			c1.32,4.58,5.5,7.85,10.15,7.96c4.89,0.15,9.09-2.84,10.7-7.53c0.29-0.85,0.81-1.25,1.69-1.29c3.01-0.13,6.02-0.28,9.03-0.43
			l6.76-0.32l0.13,0.71c1.49,7.92,5.4,14.01,11.94,18.64l0.59,0.41l-18.52,35.89l-0.67-0.22c-11.6-3.74-24.2,1.96-28.7,12.98
			c-4.32,10.6-0.21,22.91,9.57,28.65c9.87,5.79,22.63,3.42,29.69-5.51c3.56-4.5,5.22-9.63,4.95-15.24
			c-0.35-7.23-3.55-13.22-9.49-17.79l-0.54-0.41l1.82-3.56l11.49-22.27c1.53-2.95,3.05-5.9,4.56-8.86c0.41-0.79,1-1.05,1.88-0.81
			c2.07,0.54,3.77,0.94,5.35,1.24c3.04,0.58,6.24,0.5,9.53-0.25c1.54-0.35,3.05-0.83,4.64-1.35c0.73-0.23,1.46-0.47,2.2-0.69
			L319.7,369.95z"/>
	</g>
	<g>
		<path class="st4" d="M282.23,300.12c3.95,6.15,7.85,12.23,11.79,18.36c3.58-1.7,7.31-2.65,11.22-2.83
			c3.89-0.18,7.67,0.42,11.44,1.78c4.82-9.34,9.64-18.68,14.46-28.01c-1.01-0.89-2.03-1.73-2.97-2.65c-4.62-4.5-7.16-10-7.58-16.41
			c-0.85-12.97,7.88-24.18,20.65-26.58c4.36-0.82,8.66-0.52,12.87,1.02c9.12,3.32,14.58,9.84,16.55,19.23
			c2.47,11.74-4.44,23.99-15.75,28.24c-5.57,2.09-11.2,2.27-16.87,0.48c-0.51-0.16-0.7-0.03-0.93,0.41
			c-2.79,5.44-5.6,10.88-8.41,16.31c-1.91,3.69-3.81,7.38-5.76,11.15c6.66,4.69,10.75,11.06,12.27,19.13
			c12.28-0.58,24.5-1.16,36.79-1.73c1.11-7.76,4.94-13.74,11.79-17.61c4.82-2.73,10.02-3.49,15.46-2.44
			c10.41,2.01,18.94,11.42,18.49,23.43c-0.39,10.49-8.12,19.67-18.91,21.64c-11.25,2.05-23.76-5.08-26.5-17.99
			c-12.24,0.58-24.49,1.15-36.8,1.73c-0.78,8.09-4.18,14.84-10.4,20.17c1.52,2.37,3.03,4.72,4.54,7.08
			c9.93,15.47,19.85,30.93,29.78,46.4c2.22,3.45,4.43,6.91,6.65,10.36c0.82,1.28,1.67,2.56,2.46,3.87c0.26,0.43,0.47,0.51,0.96,0.36
			c5.32-1.61,10.35-0.95,14.82,2.37c5.38,4,7.58,9.51,6.42,16.07c-1.14,6.46-5,10.87-11.32,12.81c-8.93,2.74-18.1-2.3-20.58-11.3
			c-1.54-5.58-0.28-10.65,3.39-15.11c0.24-0.29,0.57-0.5,0.86-0.75c-14.69-22.89-29.28-45.61-43.77-68.18
			c-2.38,0.72-4.6,1.53-6.9,2.05c-3.25,0.74-6.57,0.89-9.87,0.25c-1.81-0.35-3.61-0.79-5.4-1.26c-0.51-0.13-0.71-0.06-0.94,0.39
			c-2.15,4.2-4.32,8.38-6.48,12.57c-3.6,6.98-7.2,13.95-10.8,20.93c-0.09,0.18-0.18,0.36-0.28,0.57c6.06,4.66,9.44,10.76,9.82,18.41
			c0.29,5.89-1.47,11.17-5.12,15.79c-7.34,9.28-20.51,11.71-30.75,5.71c-10.18-5.97-14.41-18.65-9.91-29.67
			c4.45-10.89,17.02-17.56,29.72-13.46c5.95-11.52,11.9-23.06,17.87-34.63c-6.68-4.72-10.75-11.08-12.28-19.16
			c-1.1,0.05-2.16,0.1-3.22,0.15c-3.95,0.19-7.9,0.4-11.85,0.57c-0.55,0.02-0.77,0.21-0.95,0.73c-1.72,5.02-6.28,8.21-11.5,8.09
			c-5.02-0.12-9.5-3.63-10.92-8.56c-1.69-5.85,1.53-12.13,7.31-14.22c5.76-2.08,12.27,0.69,14.69,6.3c0.25,0.58,0.53,0.72,1.12,0.69
			c4.79-0.25,9.58-0.47,14.37-0.67c0.5-0.02,0.71-0.14,0.76-0.68c0.57-6.1,2.87-11.48,6.84-16.13c1.04-1.22,2.23-2.31,3.4-3.52
			c-1.1-1.71-2.23-3.48-3.37-5.26c-2.66-4.14-5.33-8.27-7.97-12.42c-0.3-0.48-0.55-0.57-1.1-0.4c-7.59,2.36-15.74-0.77-19.38-7.72
			c-5.45-10.39,0.58-21.77,11.01-23.98c7.01-1.49,14.08,1.78,17.69,8.08c3.42,5.96,2.53,13.8-2.16,19.02
			C282.61,299.69,282.44,299.88,282.23,300.12z M305.59,322.64c-12.15,0.57-21.52,10.88-20.95,23.07
			c0.56,12.02,10.93,21.43,23.01,20.87c12.09-0.56,21.47-10.86,20.96-23.01C328.11,331.55,317.69,322.07,305.59,322.64z
			 M344.89,250.35c-10.19,0.53-17.95,9.2-17.36,19.52c0.58,10.21,9.83,18.38,20.8,16.99c8.21-1.04,16.24-8.55,15.76-19.12
			C363.64,257.69,354.91,249.83,344.89,250.35z M265.49,442.63c9.22-0.41,16.48-8.32,16.04-17.54c-0.45-9.51-8.36-16.37-17.26-16.1
			c-9.56,0.3-16.78,8.16-16.37,17.59C248.31,435.86,256.19,443.04,265.49,442.63z M394.07,324.56c-8.55,0.37-15.4,7.79-15.14,16.2
			c0.28,9.12,7.86,16.01,16.67,15.59c8.7-0.41,15.51-7.8,15.16-16.48C410.42,331.41,403.35,324.05,394.07,324.56z M270.35,279.07
			c-5.06,0.11-9.2,4.32-9.21,9.27c-0.02,5.65,4.49,9.61,9.6,9.58c5.17-0.03,9.43-4.4,9.29-9.67
			C279.88,282.85,275.32,278.86,270.35,279.07z M365.24,450.98c0.23,5.22,4.62,9.27,9.81,9.04c5.21-0.24,9.25-4.64,9.03-9.83
			c-0.21-5.12-4.69-9.25-9.78-9.02C369.08,441.4,365.01,445.82,365.24,450.98z M246.17,347.46c0.13,2.69,2.28,4.63,4.97,4.49
			c2.62-0.14,4.54-2.3,4.42-4.96c-0.12-2.63-2.28-4.57-4.94-4.44C247.96,342.68,246.03,344.8,246.17,347.46z"/>
		<path class="st0" d="M374.49,467.84c-2.84,0-5.63-0.7-8.16-2.09c-4.08-2.24-7.02-5.99-8.28-10.57
			c-1.58-5.73-0.39-11.07,3.55-15.85c0.13-0.15,0.27-0.29,0.4-0.4l-43.03-67.03c-0.53,0.17-1.06,0.33-1.58,0.5
			c-1.63,0.52-3.17,1.01-4.78,1.38c-3.51,0.8-6.95,0.89-10.21,0.26c-1.61-0.31-3.35-0.71-5.45-1.27c-1.55,3.02-3.06,5.93-4.56,8.84
			l-12.69,24.6c6.01,4.83,9.24,11.08,9.6,18.6c0.29,6.03-1.49,11.52-5.3,16.35c-7.56,9.57-21.24,12.11-31.82,5.91
			c-10.48-6.15-14.89-19.34-10.26-30.69c4.74-11.61,17.84-17.72,30.07-14.14l17.23-33.38c-6.28-4.64-10.28-10.87-11.89-18.55
			l-5.33,0.26c-3.01,0.15-6.03,0.3-9.04,0.43c-0.07,0-0.12,0.01-0.14,0.02c0,0.02-0.03,0.07-0.06,0.16
			c-1.84,5.38-6.65,8.81-12.3,8.65c-5.37-0.12-10.18-3.89-11.7-9.15c-1.82-6.29,1.62-12.98,7.82-15.23
			c6.21-2.25,13.12,0.72,15.73,6.75c0.05,0.12,0.09,0.18,0.1,0.2c0,0,0.03,0,0.09,0c0.03,0,0.07,0,0.12,0
			c4.78-0.24,9.56-0.46,14.34-0.67c0.63-6.27,2.99-11.79,7.04-16.53c0.73-0.85,1.5-1.62,2.32-2.44c0.22-0.22,0.44-0.43,0.66-0.65
			l-4.91-7.65c-2.03-3.16-4.06-6.31-6.07-9.48c-0.02-0.03-0.04-0.06-0.06-0.08c-0.02,0.01-0.06,0.02-0.1,0.03
			c-8.02,2.5-16.58-0.92-20.36-8.13c-2.64-5.04-2.84-10.75-0.53-15.65c2.31-4.91,6.72-8.38,12.1-9.52
			c7.33-1.55,14.78,1.85,18.58,8.47c3.6,6.27,2.67,14.49-2.26,19.98l-0.13,0.15l11.07,17.24c3.48-1.56,7.14-2.43,10.88-2.6
			c3.78-0.17,7.41,0.35,11.07,1.59l13.83-26.8l-0.46-0.4c-0.7-0.61-1.4-1.21-2.05-1.85c-4.76-4.64-7.4-10.34-7.83-16.95
			c-0.88-13.42,8.09-24.96,21.32-27.44c4.56-0.86,9.04-0.5,13.3,1.05c9.28,3.38,15.02,10.05,17.08,19.83
			c2.56,12.19-4.44,24.73-16.27,29.18c-5.73,2.15-11.57,2.33-17.35,0.51c-2.29,4.45-4.52,8.76-6.74,13.07l-7.1,13.74
			c6.28,4.62,10.27,10.85,11.88,18.52l35.41-1.67c1.3-7.83,5.36-13.73,12.1-17.54c4.92-2.78,10.31-3.64,16.02-2.53
			c11.54,2.23,19.6,12.44,19.16,24.27c-0.41,10.99-8.65,20.42-19.59,22.42c-10.7,1.96-24.03-4.36-27.3-17.95l-35.4,1.67
			c-0.91,7.81-4.29,14.37-10.07,19.54l41.23,64.23c0.62,0.95,1.24,1.91,1.82,2.89c5.83-1.72,11.02-0.87,15.57,2.5
			c5.62,4.18,7.95,10.01,6.74,16.87c-1.2,6.78-5.31,11.43-11.89,13.46C377.96,467.58,376.22,467.84,374.49,467.84z M319.7,369.95
			l44.49,69.31l-0.55,0.47c-0.1,0.09-0.21,0.17-0.32,0.26c-0.17,0.13-0.34,0.26-0.44,0.39c-3.57,4.35-4.66,9.18-3.23,14.37
			c1.14,4.14,3.8,7.54,7.49,9.56c3.67,2.02,7.96,2.44,12.06,1.18c6.03-1.86,9.65-5.95,10.75-12.17c1.11-6.3-0.94-11.43-6.1-15.26
			c-4.14-3.07-8.88-3.83-14.09-2.25c-0.85,0.26-1.46,0.03-1.91-0.72c-0.58-0.96-1.19-1.91-1.8-2.85l-42-65.44l0.55-0.47
			c5.95-5.1,9.36-11.7,10.12-19.63l0.07-0.71l38.22-1.8l0.15,0.69c2.78,13.1,15.43,19.2,25.54,17.35
			c10.18-1.86,17.85-10.63,18.23-20.86c0.41-11.02-7.08-20.52-17.82-22.59c-5.32-1.03-10.33-0.24-14.9,2.35
			c-6.46,3.65-10.28,9.38-11.38,17.01l-0.1,0.68l-38.19,1.8l-0.13-0.71c-1.47-7.8-5.49-14.06-11.94-18.61l-0.59-0.41l7.75-15.01
			c2.25-4.36,4.5-8.72,6.74-13.08c0.16-0.3,0.62-1.23,1.91-0.82c5.44,1.72,10.93,1.56,16.33-0.47
			c10.89-4.09,17.59-16.08,15.23-27.29c-1.93-9.19-7.32-15.45-16.02-18.62c-3.98-1.45-8.16-1.78-12.44-0.98
			c-12.4,2.32-20.79,13.14-19.97,25.71c0.4,6.18,2.87,11.53,7.33,15.87c0.63,0.62,1.31,1.2,1.98,1.78l1.44,1.26l-15.09,29.22
			l-0.68-0.25c-3.69-1.34-7.33-1.91-11.12-1.73c-3.76,0.17-7.43,1.1-10.91,2.75l-0.66,0.31l-12.51-19.49l0.96-1.1
			c4.46-4.97,5.3-12.39,2.06-18.05c-3.44-6-10.19-9.08-16.8-7.68c-4.88,1.03-8.87,4.17-10.95,8.61c-2.08,4.43-1.9,9.6,0.5,14.18
			c3.41,6.5,11.15,9.58,18.41,7.32c0.9-0.28,1.54-0.05,2.04,0.74c2.01,3.16,4.04,6.32,6.07,9.47l5.62,8.76l-0.46,0.47
			c-0.38,0.39-0.76,0.77-1.14,1.14c-0.8,0.79-1.55,1.53-2.23,2.34c-3.86,4.52-6.1,9.79-6.65,15.68c-0.13,1.37-1.19,1.41-1.54,1.43
			c-4.79,0.2-9.58,0.42-14.36,0.67c-0.96,0.05-1.54-0.31-1.92-1.19c-2.26-5.23-8.25-7.8-13.65-5.85c-5.39,1.95-8.37,7.76-6.79,13.22
			c1.32,4.58,5.5,7.85,10.15,7.96c4.89,0.15,9.09-2.84,10.7-7.53c0.29-0.85,0.81-1.25,1.69-1.29c3.01-0.13,6.02-0.28,9.03-0.43
			l6.76-0.32l0.13,0.71c1.49,7.92,5.4,14.01,11.94,18.64l0.59,0.41l-18.52,35.89l-0.67-0.22c-11.6-3.74-24.2,1.96-28.7,12.98
			c-4.32,10.6-0.21,22.91,9.57,28.65c9.87,5.79,22.63,3.42,29.69-5.51c3.56-4.5,5.22-9.63,4.95-15.24
			c-0.35-7.23-3.55-13.22-9.49-17.79l-0.54-0.41l1.82-3.56l11.49-22.27c1.53-2.95,3.05-5.9,4.56-8.86c0.41-0.79,1-1.05,1.88-0.81
			c2.07,0.54,3.77,0.94,5.35,1.24c3.04,0.58,6.24,0.5,9.53-0.25c1.54-0.35,3.05-0.83,4.64-1.35c0.73-0.23,1.46-0.47,2.2-0.69
			L319.7,369.95z M374.61,460.85c-2.56,0-4.99-0.95-6.89-2.7c-2.01-1.86-3.19-4.39-3.31-7.13l0,0c-0.25-5.63,4.16-10.42,9.84-10.68
			c2.66-0.14,5.26,0.84,7.29,2.7c2.05,1.88,3.24,4.4,3.35,7.11c0.24,5.64-4.17,10.43-9.81,10.69
			C374.92,460.84,374.77,460.85,374.61,460.85z M366.06,450.94c0.1,2.31,1.09,4.44,2.78,5.99c1.69,1.56,3.89,2.34,6.16,2.25
			c4.74-0.22,8.44-4.24,8.24-8.97c-0.09-2.27-1.09-4.39-2.82-5.97c-1.7-1.56-3.86-2.36-6.1-2.27
			C369.56,442.2,365.85,446.22,366.06,450.94L366.06,450.94z M264.72,443.47c-4.43,0-8.63-1.62-11.91-4.62
			c-3.49-3.18-5.52-7.53-5.73-12.24c-0.21-4.79,1.45-9.35,4.67-12.82c3.23-3.48,7.67-5.48,12.5-5.63
			c9.73-0.24,17.65,7.12,18.11,16.88c0.22,4.66-1.41,9.16-4.59,12.64c-3.2,3.51-7.54,5.55-12.24,5.76l0,0
			C265.26,443.46,264.99,443.47,264.72,443.47z M264.81,409.81c-0.17,0-0.34,0-0.51,0.01c-4.39,0.14-8.41,1.95-11.34,5.1
			c-2.92,3.15-4.42,7.27-4.23,11.62c0.19,4.27,2.03,8.21,5.19,11.09c3.16,2.88,7.25,4.34,11.54,4.18v0
			c4.25-0.19,8.19-2.04,11.09-5.22c2.89-3.16,4.36-7.23,4.16-11.46C280.3,416.44,273.36,409.81,264.81,409.81z M306.61,367.43
			c-5.67,0-11.08-2.09-15.34-5.95c-4.53-4.11-7.18-9.69-7.46-15.73c-0.59-12.61,9.17-23.34,21.74-23.94l0,0
			c6.1-0.28,11.96,1.84,16.51,6c4.51,4.12,7.13,9.71,7.38,15.72c0.53,12.58-9.23,23.28-21.75,23.86
			C307.33,367.43,306.97,367.43,306.61,367.43z M305.62,323.47c-11.66,0.55-20.71,10.52-20.16,22.21
			c0.26,5.59,2.72,10.77,6.92,14.58c4.2,3.81,9.62,5.77,15.23,5.5c11.61-0.54,20.66-10.47,20.18-22.15
			c-0.23-5.57-2.66-10.75-6.84-14.58C316.72,325.18,311.27,323.19,305.62,323.47L305.62,323.47z M394.83,357.18
			c-4.21,0-8.2-1.56-11.32-4.45c-3.35-3.1-5.27-7.34-5.41-11.96c-0.27-8.85,7.02-16.66,15.93-17.05c4.48-0.24,8.73,1.27,12.01,4.25
			c3.34,3.04,5.36,7.36,5.54,11.85c0.37,9.12-6.79,16.9-15.95,17.33C395.37,357.17,395.1,357.18,394.83,357.18z M394.96,325.36
			c-0.28,0-0.56,0.01-0.84,0.02l-0.01,0c-8.02,0.35-14.6,7.37-14.35,15.35c0.13,4.17,1.86,8,4.88,10.8
			c2.99,2.77,6.86,4.2,10.93,3.99c8.26-0.39,14.7-7.4,14.37-15.62c-0.16-4.05-1.98-7.95-5-10.69
			C402.19,326.71,398.68,325.36,394.96,325.36z M250.85,352.78c-1.4,0-2.71-0.49-3.71-1.4c-1.09-0.98-1.73-2.36-1.8-3.88l0,0
			c-0.15-3.14,2.1-5.62,5.24-5.78c1.52-0.07,2.95,0.42,4.04,1.41c1.07,0.98,1.7,2.33,1.77,3.81c0.14,3.1-2.15,5.66-5.21,5.83
			C251.07,352.77,250.96,352.78,250.85,352.78z M250.88,343.36c-0.07,0-0.15,0-0.22,0.01c-2.2,0.11-3.78,1.85-3.67,4.05l0,0
			c0.05,1.08,0.5,2.06,1.26,2.74c0.76,0.68,1.76,1.03,2.84,0.97c2.18-0.12,3.75-1.88,3.65-4.1c-0.05-1.04-0.48-1.99-1.23-2.67
			C252.8,343.71,251.87,343.36,250.88,343.36z M270.68,298.75c-2.76,0-5.45-1.1-7.38-3.02c-1.94-1.93-3-4.55-2.99-7.38
			c0.02-5.45,4.51-9.97,10.01-10.09c2.65-0.1,5.29,0.89,7.27,2.74c2.03,1.89,3.18,4.47,3.26,7.25c0.07,2.77-0.95,5.4-2.89,7.4
			c-1.93,1.99-4.49,3.1-7.22,3.11C270.72,298.75,270.7,298.75,270.68,298.75z M270.71,279.89c-0.11,0-0.22,0-0.33,0.01l-0.02,0
			c-4.62,0.1-8.39,3.89-8.41,8.45c-0.01,2.39,0.88,4.59,2.51,6.21c1.62,1.62,3.88,2.54,6.21,2.54c0.02,0,0.04,0,0.05,0
			c2.28-0.01,4.42-0.94,6.04-2.61c1.63-1.68,2.49-3.89,2.43-6.21c-0.06-2.34-1.03-4.5-2.73-6.09
			C274.89,280.72,272.81,279.89,270.71,279.89z M345.89,287.83c-4.53,0-8.83-1.54-12.34-4.45c-4.05-3.37-6.55-8.28-6.84-13.47
			c-0.3-5.23,1.43-10.22,4.88-14.07c3.41-3.81,8.12-6.05,13.26-6.32l0,0c5.1-0.25,9.99,1.5,13.82,4.97
			c3.81,3.45,6.03,8.14,6.25,13.2c0.5,11.14-7.99,18.9-16.48,19.98C347.58,287.78,346.73,287.83,345.89,287.83z M344.94,251.17
			L344.94,251.17c-4.69,0.24-9,2.29-12.11,5.77c-3.15,3.52-4.74,8.09-4.46,12.87c0.27,4.73,2.55,9.21,6.25,12.29
			c3.8,3.16,8.64,4.55,13.62,3.92c7.75-0.98,15.5-8.08,15.04-18.26c-0.21-4.62-2.24-8.9-5.72-12.05
			C354.06,252.54,349.56,250.92,344.94,251.17z"/>
	</g>
	<g>
		<path class="st0" d="M305.59,322.64c12.1-0.57,22.52,8.91,23.03,20.94c0.51,12.15-8.88,22.44-20.96,23.01
			c-12.08,0.56-22.45-8.85-23.01-20.87C284.07,333.53,293.43,323.22,305.59,322.64z"/>
		<path class="st0" d="M306.61,367.43c-5.67,0-11.08-2.09-15.34-5.95c-4.53-4.11-7.18-9.69-7.46-15.73
			c-0.59-12.61,9.17-23.34,21.74-23.94l0,0c6.1-0.28,11.96,1.84,16.51,6c4.51,4.12,7.13,9.71,7.38,15.72
			c0.53,12.58-9.23,23.28-21.75,23.86C307.33,367.43,306.97,367.43,306.61,367.43z M305.62,323.47L305.62,323.47
			c-11.66,0.55-20.71,10.52-20.16,22.21c0.26,5.59,2.72,10.77,6.92,14.58c4.2,3.81,9.62,5.77,15.23,5.5
			c11.61-0.54,20.66-10.47,20.18-22.15c-0.23-5.57-2.66-10.75-6.84-14.58C316.72,325.18,311.29,323.19,305.62,323.47z"/>
	</g>
	<g>
		<path class="st0" d="M344.89,250.35c10.01-0.52,18.75,7.34,19.2,17.39c0.48,10.57-7.55,18.08-15.76,19.12
			c-10.97,1.39-20.22-6.77-20.8-16.99C326.95,259.54,334.7,250.88,344.89,250.35z"/>
		<path class="st0" d="M345.89,287.83c-4.53,0-8.83-1.54-12.34-4.45c-4.05-3.37-6.55-8.28-6.84-13.47
			c-0.3-5.23,1.43-10.22,4.88-14.07c3.41-3.81,8.12-6.05,13.26-6.32l0,0c5.1-0.25,9.99,1.5,13.82,4.97
			c3.81,3.45,6.03,8.14,6.25,13.2c0.5,11.14-7.99,18.9-16.48,19.98C347.58,287.78,346.73,287.83,345.89,287.83z M344.94,251.17
			L344.94,251.17c-4.69,0.24-9,2.29-12.11,5.77c-3.15,3.52-4.74,8.09-4.46,12.87c0.27,4.73,2.55,9.21,6.25,12.29
			c3.8,3.16,8.64,4.55,13.62,3.92c7.75-0.98,15.5-8.08,15.04-18.26c-0.21-4.62-2.24-8.9-5.72-12.05
			C354.06,252.54,349.56,250.92,344.94,251.17z"/>
	</g>
	<g>
		<path class="st0" d="M394.07,324.56c9.27-0.51,16.35,6.86,16.69,15.31c0.35,8.67-6.46,16.06-15.16,16.48
			c-8.81,0.42-16.4-6.46-16.67-15.59C378.68,332.35,385.52,324.93,394.07,324.56z"/>
		<path class="st0" d="M394.83,357.18c-4.21,0-8.2-1.56-11.32-4.45c-3.35-3.1-5.27-7.34-5.41-11.96
			c-0.27-8.85,7.02-16.66,15.93-17.05c4.46-0.24,8.73,1.27,12.01,4.25c3.34,3.04,5.36,7.36,5.54,11.85
			c0.37,9.12-6.79,16.9-15.95,17.33C395.37,357.17,395.1,357.18,394.83,357.18z M394.96,325.36c-0.28,0-0.56,0.01-0.84,0.02l-0.01,0
			c-8.02,0.35-14.6,7.37-14.35,15.35c0.13,4.17,1.86,8,4.88,10.8c2.99,2.77,6.87,4.18,10.93,3.99c8.26-0.39,14.7-7.4,14.37-15.62
			c-0.16-4.05-1.98-7.95-5-10.69C402.19,326.71,398.68,325.36,394.96,325.36z"/>
	</g>
	<g>
		<path class="st0" d="M270.35,279.07c4.97-0.21,9.53,3.78,9.68,9.18c0.14,5.27-4.12,9.64-9.29,9.67c-5.11,0.03-9.62-3.93-9.6-9.58
			C261.15,283.39,265.29,279.18,270.35,279.07z"/>
		<path class="st0" d="M270.68,298.75c-2.76,0-5.45-1.1-7.38-3.02c-1.94-1.93-3-4.55-2.99-7.38c0.02-5.45,4.51-9.97,10.01-10.09
			c2.64-0.1,5.29,0.89,7.27,2.74c2.03,1.89,3.18,4.47,3.26,7.25c0.07,2.77-0.95,5.4-2.89,7.4c-1.93,1.99-4.49,3.1-7.22,3.11
			C270.72,298.75,270.7,298.75,270.68,298.75z M270.71,279.89c-0.11,0-0.22,0-0.33,0.01l-0.02,0c-4.62,0.1-8.39,3.89-8.41,8.45
			c-0.01,2.39,0.88,4.59,2.51,6.21c1.62,1.62,3.88,2.54,6.21,2.54c0.02,0,0.04,0,0.05,0c2.28-0.01,4.42-0.94,6.04-2.61
			c1.63-1.68,2.49-3.89,2.43-6.21c-0.06-2.34-1.03-4.5-2.73-6.09C274.89,280.72,272.81,279.89,270.71,279.89z"/>
	</g>
	<g>
		<path class="st0" d="M365.24,450.98c-0.23-5.16,3.85-9.58,9.05-9.81c5.09-0.23,9.56,3.9,9.78,9.02c0.22,5.2-3.82,9.6-9.03,9.83
			C369.86,460.25,365.47,456.2,365.24,450.98z"/>
		<path class="st0" d="M374.61,460.85c-2.56,0-4.99-0.95-6.89-2.7c-2.01-1.86-3.19-4.39-3.31-7.13l0,0
			c-0.25-5.63,4.16-10.42,9.84-10.68c2.66-0.14,5.26,0.84,7.29,2.7c2.05,1.88,3.24,4.4,3.35,7.11c0.24,5.64-4.17,10.43-9.81,10.69
			C374.92,460.84,374.77,460.85,374.61,460.85z M366.06,450.94c0.1,2.31,1.09,4.44,2.78,5.99c1.69,1.56,3.89,2.34,6.16,2.25
			c4.74-0.22,8.44-4.24,8.24-8.97c-0.09-2.27-1.09-4.39-2.82-5.97c-1.7-1.56-3.86-2.36-6.1-2.27
			C369.56,442.2,365.85,446.22,366.06,450.94L366.06,450.94z"/>
	</g>
</g>
</svg>
